SplineFontDB: 3.2
FontName: GuraType_XDZ
FullName: GuraType_XDZ
FamilyName: GuraType_XDZ
Weight: NORMAL
Copyright: Copyright (c) 2022, Designed by XDzZyq\n\nhttps://space.bilibili.com/302469604\n\nqq: 3504146712\ngmail: xiaodouzizyq@gmail.com\ntwi: https://twitter.com/zyq30905782
UComments: "2022-2-24: Created with FontForge (http://fontforge.org)"
Version: 001.000
ItalicAngle: 0
UnderlinePosition: -100
UnderlineWidth: 50
Ascent: 800
Descent: 200
InvalidEm: 0
LayerCount: 2
Layer: 0 0 "Back" 1
Layer: 1 0 "Fore" 1
XUID: [1021 316 -1247856474 20454]
StyleMap: 0x0000
FSType: 0
OS2Version: 0
OS2_WeightWidthSlopeOnly: 0
OS2_UseTypoMetrics: 1
CreationTime: 1645711658
ModificationTime: 1703683577
PfmFamily: 17
TTFWeight: 400
TTFWidth: 5
LineGap: 90
VLineGap: 0
OS2TypoAscent: 0
OS2TypoAOffset: 1
OS2TypoDescent: 0
OS2TypoDOffset: 1
OS2TypoLinegap: 90
OS2WinAscent: 0
OS2WinAOffset: 1
OS2WinDescent: 0
OS2WinDOffset: 1
HheadAscent: 0
HheadAOffset: 1
HheadDescent: 0
HheadDOffset: 1
OS2Vendor: 'PfEd'
MarkAttachClasses: 1
DEI: 91125
LangName: 1033
Encoding: ISO8859-1
UnicodeInterp: none
NameList: AGL For New Fonts
DisplaySize: -48
AntiAlias: 1
FitToEm: 0
WinInfo: 0 38 13
BeginPrivate: 0
EndPrivate
Grid
-1000 428 m 0
 2000 428 l 1024
  Named: "upP"
-1000 -103 m 0
 2000 -103 l 1024
  Named: "underP"
-1000 568 m 0
 2000 568 l 1024
  Spiro
    -1000 568 {
    2000 568 o
    0 0 z
  EndSpiro
  Named: "up"
-1000 326 m 0
 2000 326 l 1024
  Spiro
    -1000 326 {
    2000 326 o
    0 0 z
  EndSpiro
  Named: "as"
502 1300 m 0
 502 -700 l 1024
  Spiro
    502 1300 {
    502 -700 o
    0 0 z
  EndSpiro
  Named: "as"
EndSplineSet
BeginChars: 256 80

StartChar: a
Encoding: 97 97 0
Width: 1000
Flags: W
VStem: 771 46<385.384 446.249>
LayerCount: 2
Back
Fore
SplineSet
789 450 m 5
 787 449.333333333 784.666666667 448.5 782 447.5 c 4
 779.333333333 446.5 776.166666667 443.5 772.5 438.5 c 4
 768.833333333 433.5 768.333333333 427.666666667 771 421 c 4
 772.333333333 417.666666667 773.833333333 413.666666667 775.5 409 c 4
 777.166666667 404.333333333 778.333333333 400.833333333 779 398.5 c 4
 779.666666667 396.166666667 780.666666667 393.833333333 782 391.5 c 4
 783.333333333 389.166666667 784.833333333 387.5 786.5 386.5 c 4
 788.166666667 385.5 790 385 792 385 c 4
 798 385 804.166666667 389.333333333 810.5 398 c 4
 816.833333333 406.666666667 819 414.666666667 817 422 c 4
 814.32276482 431.847880224 804.989431487 441.181213557 789 450 c 5
41 23 m 6
 39 23 39 23 35.5 23 c 4
 33.1666666667 23 30.1666666667 22.6666666667 26.5 22 c 4
 22.8333333333 21.3333333333 21.6666666667 20.1666666667 23 18.5 c 4
 24.3333333333 16.8333333333 28.6666666667 14.6666666667 36 12 c 4
 61.3333333333 2.66666666667 88 0.666666666667 116 6 c 4
 126 8 134.5 10.3333333333 141.5 13 c 4
 148.5 15.6666666667 158.333333333 20.5 171 27.5 c 4
 183.666666667 34.5 197.833333333 45.5 213.5 60.5 c 4
 229.166666667 75.5 246 94.3333333333 264 117 c 4
 305.333333333 168.333333333 336.666666667 222.5 358 279.5 c 4
 379.333333333 336.5 382 380.333333333 366 411 c 4
 355.333333333 431.666666667 340.5 442.833333333 321.5 444.5 c 4
 302.5 446.166666667 284.166666667 439.166666667 266.5 423.5 c 4
 248.833333333 407.833333333 236 387 228 361 c 4
 214.666666667 323 208.833333333 291 210.5 265 c 4
 212.166666667 239 224 210.666666667 246 180 c 4
 259.333333333 161.333333333 277.666666667 138.5 301 111.5 c 4
 324.333333333 84.5 344.666666667 61.3333333333 362 42 c 4
 379.333333333 22.6666666667 388.666666667 12 390 10 c 4
 392 6.66666666667 394.833333333 4 398.5 2 c 4
 402.166666667 0 405.5 -0.333333333333 408.5 1 c 4
 411.5 2.33333333333 413.333333333 6 414 12 c 4
 414.666666667 20.6666666667 437.5 50.5 482.5 101.5 c 4
 527.5 152.5 552.666666667 178.666666667 558 180 c 4
 560.666666667 180.666666667 566.666666667 173.5 576 158.5 c 4
 585.333333333 143.5 596 125.333333333 608 104 c 4
 620 82.6666666667 627.666666667 69.6666666667 631 65 c 4
 635.666666667 57.6666666667 640.833333333 52 646.5 48 c 4
 652.166666667 44 656.5 41.8333333333 659.5 41.5 c 6
 664 41 l 5
 666.666666667 51 669.333333333 57.3333333333 672 60 c 4
 672.666666667 60.6666666667 677.666666667 66.8333333333 687 78.5 c 4
 696.333333333 90.1666666667 707.5 104 720.5 120 c 4
 740 144 740 144 759.5 168 c 4
 772.5 184 783.833333333 197.166666667 793.5 207.5 c 4
 803.166666667 217.833333333 808.666666667 222.666666667 810 222 c 4
 810.666666667 221.333333333 832.5 188.333333333 875.5 123 c 4
 918.5 57.6666666667 943.666666667 22.3333333333 951 17 c 4
 955.666666667 13 958.833333333 10.6666666667 960.5 10 c 4
 962.166666667 9.33333333333 963.333333333 9.16666666667 964 9.5 c 4
 964.666666667 9.83333333333 965.5 11.6666666667 966.5 15 c 4
 967.5 18.3333333333 969 21.6666666667 971 25 c 4
 973.666666667 29.6666666667 975.166666667 33.6666666667 975.5 37 c 4
 975.833333333 40.3333333333 975.5 42.3333333333 974.5 43 c 6
 973 44 l 5
 879 172.666666667 829.666666667 243.333333333 825 256 c 4
 819.755092376 267.547724027 799.65650798 254.170272115 764.704246812 215.867644262 c 6
 763 214 l 6
 759 210 752.833333333 203 744.5 193 c 4
 736.166666667 183 727.333333333 172.666666667 718 162 c 4
 708.666666667 151.333333333 699.666666667 140.666666667 691 130 c 4
 682.333333333 119.333333333 675 110.833333333 669 104.5 c 4
 663 98.1666666667 659.666666667 95 659 95 c 4
 657.666666667 95.6666666667 650.833333333 103.833333333 638.5 119.5 c 4
 626.166666667 135.166666667 613.333333333 153 600 173 c 4
 586.666666667 193 578.333333333 207 575 215 c 4
 573 220.333333333 570.833333333 223.833333333 568.5 225.5 c 4
 566.166666667 227.166666667 563.833333333 227.166666667 561.5 225.5 c 4
 559.166666667 223.833333333 557.166666667 222 555.5 220 c 4
 553.833333333 218 552 215.5 550 212.5 c 4
 548 209.5 547 207.666666667 547 207 c 4
 543.666666667 202.333333333 518.666666667 174.333333333 472 123 c 4
 425.333333333 71.6666666667 401.333333333 46 400 46 c 4
 398.666666667 46 390 53.8333333333 374 69.5 c 4
 358 85.1666666667 339.166666667 104.5 317.5 127.5 c 4
 295.833333333 150.5 279 170 267 186 c 4
 223.666666667 242.666666667 216.333333333 300.666666667 245 360 c 4
 252.333333333 375.333333333 261.833333333 389.166666667 273.5 401.5 c 4
 285.166666667 413.833333333 296.666666667 422.5 308 427.5 c 4
 319.333333333 432.5 329.333333333 429.666666667 338 419 c 4
 346.666666667 408.333333333 351.333333333 389.333333333 352 362 c 4
 354 307.333333333 335 249.166666667 295 187.5 c 4
 255 125.833333333 210.666666667 79.3333333333 162 48 c 4
 148 38.6666666667 135 31.1666666667 123 25.5 c 4
 111 19.8333333333 101.333333333 16.1666666667 94 14.5 c 4
 86.6666666667 12.8333333333 80 12 74 12 c 4
 68 12 63.6666666667 12.5 61 13.5 c 4
 58.3333333333 14.5 55.6666666667 15.8333333333 53 17.5 c 6
 49 20 l 5
 41 23 l 6
EndSplineSet
Validated: 37
EndChar

StartChar: e
Encoding: 101 101 1
Width: 798
Flags: W
HStem: -12 18<33.25 124.649>
LayerCount: 2
Back
Fore
SplineSet
590 470 m 0
 600 473 612 469 626 458 c 0
 640 447 645 438 640 429 c 0
 630 412 612 413 586 431 c 0
 575 438 570 446 572 454 c 0
 574 462 580 467 590 470 c 0
-6 31 m 0
 -5 32 -1 32 6 28 c 0
 13 24 22 20 33 15 c 0
 44 10 53 7 62 6 c 0
 79 4 94 5 107 8 c 0
 120 11 143 23 177 43 c 0
 185 48 192 54 200 60 c 0
 208 66 215 74 222 82 c 0
 229 90 236 98 242 105 c 0
 248 112 254 121 260 132 c 0
 266 143 272 151 276 158 c 0
 280 165 284 175 290 186 c 0
 296 197 300 206 302 210 c 0
 304 214 307 222 312 232 c 0
 317 242 320 247 320 248 c 0
 327 263 331 284 332 310 c 0
 333 336 328 359 318 382 c 0
 308 405 294 416 274 417 c 0
 244 418 227 398 222 355 c 0
 217 312 222 270 239 227 c 0
 243 216 249 204 256 192 c 0
 263 180 271 170 280 160 c 0
 289 150 298 141 307 133 c 0
 316 125 326 116 337 108 c 0
 348 100 357 94 364 89 c 0
 371 84 378 79 388 73 c 0
 398 67 404 63 405 62 c 0
 412 57 418 55 422 54 c 0
 426 53 427 53 428 54 c 0
 429 55 430 57 430 60 c 0
 430 63 430 65 431 66 c 0
 432 69 444 82 464 108 c 0
 484 134 507 162 532 193 c 0
 557 224 571 242 576 248 c 0
 579 251 582 256 586 262 c 0
 590 268 594 273 596 276 c 0
 598 279 601 282 605 284 c 0
 609 286 613 286 617 284 c 0
 621 282 626 276 633 269 c 0
 640 262 647 252 655 239 c 0
 670 214 690 186 712 155 c 0
 734 124 754 97 770 76 c 0
 786 55 795 44 798 41 c 0
 800 38 800 35 799 33 c 0
 798 31 796 28 792 24 c 0
 788 20 786 17 785 16 c 0
 784 14 782 11 779 8 c 0
 776 5 772 2 768 0 c 0
 764 -2 761 -1 758 2 c 0
 755 5 753 12 752 23 c 0
 751 44 728 85 684 147 c 0
 640 209 613 241 603 242 c 0
 598 243 582 224 553 184 c 0
 524 144 496 104 468 63 c 0
 440 22 423 1 419 0 c 0
 415 -1 412 0 410 5 c 0
 408 10 406 17 401 26 c 0
 396 35 389 42 380 49 c 0
 371 55 359 64 344 78 c 0
 329 92 310 110 288 133 c 0
 266 156 249 180 234 204 c 0
 219 228 207 254 198 282 c 0
 189 310 190 335 200 358 c 0
 215 397 231 422 248 435 c 0
 265 448 281 450 296 442 c 0
 311 434 325 418 339 395 c 0
 360 362 359 311 338 242 c 0
 317 173 282 114 235 66 c 0
 213 43 190 25 165 12 c 0
 140 -1 118 -8 99 -10 c 0
 80 -12 63 -13 50 -12 c 0
 37 -11 28 -8 21 -5 c 0
 14 -2 9 3 4 8 c 0
 -1 13 -4 18 -6 22 c 0
 -8 26 -8 30 -6 31 c 0
1050 1182 m 1049
EndSplineSet
Validated: 37
EndChar

StartChar: h
Encoding: 104 104 2
Width: 384
Flags: W
VStem: -7 32<47.0183 164.063> 361.5 23.5747<17.0942 60.4888>
LayerCount: 2
Back
Fore
SplineSet
415 360 m 0
 407.666666667 354.666666667 386.333333333 318.333333333 351 251 c 0
 350.333333333 250.333333333 338.166666667 232.833333333 314.5 198.5 c 0
 290.833333333 164.166666667 270.333333333 131 253 99 c 0
 235.666666667 67 229.333333333 45.6666666667 234 35 c 0
 242.15565331 17.1595083836 255.120037614 31.8868029285 272.89315291 79.1818836347 c 0
 275.247697025 85.4474342778 278.260994315 93.9055427208 281.933044778 104.556208964 c 0
 284.057895005 110.719269854 285.413546746 114.533866866 286 116 c 0
 289.333333333 125.333333333 309.666666667 157.333333333 347 212 c 0
 384.333333333 266.666666667 407.666666667 297.333333333 417 304 c 0
 419.666666667 306 423.833333333 309 429.5 313 c 0
 435.166666667 317 439.333333333 319.833333333 442 321.5 c 0
 444.666666667 323.166666667 448 326 452 330 c 0
 456 334 457.833333333 337.166666667 457.5 339.5 c 0
 457.166666667 341.833333333 457 345 457 349 c 0
 453.666666667 357 446.666666667 361.833333333 436 363.5 c 0
 425.333333333 365.166666667 418.333333333 364 415 360 c 0
323 525 m 0
 321 525 318.666666667 522 316 516 c 0
 313.333333333 510 310.333333333 501.166666667 307 489.5 c 0
 303.666666667 477.833333333 300.333333333 466.333333333 297 455 c 0
 293.666666667 443.666666667 289.833333333 430.166666667 285.5 414.5 c 0
 281.166666667 398.833333333 277.666666667 386.333333333 275 377 c 0
 269.666666667 357.666666667 260.666666667 332 248 300 c 0
 235.333333333 268 219.833333333 232 201.5 192 c 0
 183.166666667 152 162.666666667 117 140 87 c 0
 117.333333333 57 96.3333333333 40 77 36 c 0
 57.6666666667 32 43.6666666667 35.5 35 46.5 c 0
 26.3333333333 57.5 23 72.1666666667 25 90.5 c 0
 27 108.833333333 30 125.666666667 34 141 c 0
 38 156.333333333 42.3333333333 169.333333333 47 180 c 0
 53 193 53 193 56 199.5 c 0
 58 203.833333333 62.8333333333 211.5 70.5 222.5 c 0
 78.1666666667 233.5 85.3333333333 241.5 92 246.5 c 0
 98.6666666667 251.5 108 256 120 260 c 0
 132 264 144.333333333 264.166666667 157 260.5 c 0
 169.666666667 256.833333333 184.833333333 248.833333333 202.5 236.5 c 0
 220.166666667 224.166666667 238.666666667 207.333333333 258 186 c 0
 280 161.333333333 298.5 139 313.5 119 c 0
 328.5 99 338.833333333 83.3333333333 344.5 72 c 0
 350.166666667 60.6666666667 354.5 50.8333333333 357.5 42.5 c 0
 360.5 34.1666666667 361.833333333 28.3333333333 361.5 25 c 0
 361.166666667 21.6666666667 361.666666667 19 363 17 c 0
 364.333333333 15 366.666666667 13.6666666667 370 13 c 0
 378.32173271 11.2663056854 383.346643202 16.1876785045 385.074731475 27.7641184573 c 0
 386.958274475 46.9471806634 383.60003065 64.0258078443 375 79 c 2
 368 89.5 l 2
 363.333333333 96.5 358.833333333 103.333333333 354.5 110 c 0
 350.166666667 116.666666667 344 125.333333333 336 136 c 0
 328 146.666666667 319.833333333 156.833333333 311.5 166.5 c 0
 303.166666667 176.166666667 293.833333333 186.666666667 283.5 198 c 0
 273.166666667 209.333333333 262.333333333 219.666666667 251 229 c 0
 239.666666667 238.333333333 228.166666667 247.166666667 216.5 255.5 c 0
 204.833333333 263.833333333 192.333333333 270.833333333 179 276.5 c 0
 165.666666667 282.166666667 152.666666667 286 140 288 c 0
 117.333333333 291.333333333 96.3333333333 287.333333333 77 276 c 0
 57.6666666667 264.666666667 42.5 249.166666667 31.5 229.5 c 0
 20.5 209.833333333 11.1666666667 188.5 3.5 165.5 c 0
 -4.16666666667 142.5 -7.66666666667 121.666666667 -7 103 c 0
 -6.33333333333 84.3333333333 -4 70 0 60 c 0
 8 46.6666666667 14.5 36.5 19.5 29.5 c 0
 24.5 22.5 33 15.3333333333 45 8 c 0
 57 0.666666666667 68.8333333333 -1.16666666667 80.5 2.5 c 0
 92.1666666667 6.16666666667 107 17 125 35 c 0
 143 53 162.333333333 79.3333333333 183 114 c 0
 215 168.666666667 243 226.5 267 287.5 c 0
 291 348.5 307.333333333 395.833333333 316 429.5 c 0
 324.666666667 463.166666667 328.666666667 483 328 489 c 0
 328 491 328.166666667 495.333333333 328.5 502 c 0
 328.833333333 508.666666667 328.666666667 514.166666667 328 518.5 c 0
 327.333333333 522.833333333 325.666666667 525 323 525 c 0
EndSplineSet
Validated: 37
EndChar

StartChar: i
Encoding: 105 105 3
Width: 314
Flags: W
LayerCount: 2
Back
Fore
SplineSet
288 142 m 1
 286 140.666992188 283.833007812 138.833007812 281.5 136.5 c 0
 279.166992188 134.166992188 275 129.833007812 269 123.5 c 0
 263 117.166992188 259.666992188 112.5 259 109.5 c 0
 258.333007812 106.5 259 103.666992188 261 101 c 0
 263 100.333007812 265.833007812 99 269.5 97 c 0
 273.166992188 95 276.166992188 93.6669921875 278.5 93 c 0
 280.833007812 92.3330078125 283.5 91.6669921875 286.5 91 c 0
 289.5 90.3330078125 292.333007812 90.5 295 91.5 c 0
 297.666992188 92.5 300 94 302 96 c 0
 312.668945312 106.668945312 319.483398438 120.309570312 322.444335938 136.921875 c 0
 322.9140625 146.002929688 320.098632812 150.362304688 314 150 c 2
 288 142 l 1
234 274 m 4
 218.666992188 264 173.333007812 207 98 103 c 4
 91.3330078125 94.3330078125 82.6669921875 84.8330078125 72 74.5 c 4
 61.3330078125 64.1669921875 52.5 55.6669921875 45.5 49 c 4
 38.5 42.3330078125 34.6669921875 36.6669921875 34 32 c 4
 32.6669921875 23.3330078125 34.1669921875 15 38.5 7 c 4
 42.8330078125 -1 47.6669921875 -3.3330078125 53 0 c 4
 55.6669921875 2 64.5 16.1669921875 79.5 42.5 c 4
 94.5 68.8330078125 108 87 120 97 c 4
 129.333007812 105 144.833007812 122.5 166.5 149.5 c 4
 188.166992188 176.5 207.333007812 201.666992188 224 225 c 6
 249 260 l 6
 249 263 249 263 249 266.5 c 4
 249 268.833007812 248 272 246 276 c 4
 244 280 240 279.333007812 234 274 c 4
EndSplineSet
Validated: 524297
EndChar

StartChar: T
Encoding: 84 84 4
Width: 662
Flags: W
VStem: 252.5 24.5<13.1666 226.559> 258.5 27.5<197.027 710.701> 268 25<556.82 735.612> 396 38<-2.26257 223.914> 422 24<483.694 713.193>
LayerCount: 2
Back
Fore
SplineSet
446 732 m 1x08
 430.666666667 726 422.666666667 705.666666667 422 671 c 0x08
 422 653.666666667 417.666666667 544.166666667 409 342.5 c 0
 400.333333333 140.833333333 396 35 396 25 c 0
 396 11.6666666667 399 2.5 405 -2.5 c 0
 411 -7.5 417 -10 423 -10 c 0
 430.333333333 -10 434 -1.33333333333 434 16 c 2x10
 446 732 l 1x08
268 733 m 25x20
 267.333333333 684.333333333 266 624.5 264 553.5 c 0
 262 482.5 260.166666667 418.333333333 258.5 361 c 0x40
 256.833333333 303.666666667 255.333333333 248 254 194 c 0
 252.666666667 140 252.166666667 97.1666666667 252.5 65.5 c 0
 252.833333333 33.8333333333 254.333333333 16.3333333333 257 13 c 0
 259.690753802 9.68830301296 262.192877031 7.85862711367 264.506369689 7.51097230213 c 0
 271.655048535 6.43672095772 275.819591972 15.9330635237 277 36 c 0x80
 277.666666667 48.6666666667 280.666666667 166.666666667 286 390 c 0x40
 291.333333333 613.333333333 293.666666667 727.333333333 293 732 c 0
 291.666666667 739.333333333 283.333333333 739.666666667 268 733 c 25x20
-134 726 m 0
 -133.342881772 729.614150256 -135.596466172 730.405410694 -140.760753201 728.373781315 c 0
 -142.064425183 727.860917044 -144.243244292 726.882007482 -147.297210528 725.437052629 c 0
 -155.564331334 721.525543659 -161.131927825 719.713192783 -164 720 c 0
 -168 720.666666667 -165.666666667 713.5 -157 698.5 c 0
 -148.333333333 683.5 -135.333333333 666 -118 646 c 0
 -100.666666667 626 -83.3333333333 610.666666667 -66 600 c 0
 -39.3333333333 583.333333333 -18.8333333333 571 -4.5 563 c 0
 9.83333333333 555 30.3333333333 545.666666667 57 535 c 0
 83.6666666667 524.333333333 110 517 136 513 c 0
 195.333333333 503.666666667 274.666666667 504 374 514 c 0
 386 515.333333333 418.666666667 525.166666667 472 543.5 c 0
 525.333333333 561.833333333 577.666666667 582.666666667 629 606 c 0
 663 621.333333333 697.166666667 638.5 731.5 657.5 c 0
 765.833333333 676.5 792 691.833333333 810 703.5 c 0
 828 715.166666667 839.666666667 723.333333333 845 728 c 0
 878.823885013 756.186570844 891.079723384 773.52041223 881.767515115 780.001524158 c 0
 879.446207441 781.617108176 875.523702403 782.28326679 870 782 c 0
 858 781.333333333 850 780.166666667 846 778.5 c 0
 842 776.833333333 840 774 840 770 c 0
 840 766 839.666666667 763.666666667 839 763 c 0
 837.666666667 761 835.166666667 758.666666667 831.5 756 c 0
 827.833333333 753.333333333 824.5 751.333333333 821.5 750 c 2
 817 748 l 1
 729 684 655.666666667 640.666666667 597 618 c 0
 583 612.666666667 562.166666667 603.833333333 534.5 591.5 c 0
 506.833333333 579.166666667 484.5 569.666666667 467.5 563 c 0
 450.5 556.333333333 427.833333333 549.666666667 399.5 543 c 0
 371.166666667 536.333333333 342.333333333 532.333333333 313 531 c 0
 195 525.666666667 109 533.666666667 55 555 c 0
 29 565.666666667 2.16666666667 581.5 -25.5 602.5 c 0
 -53.1666666667 623.5 -75.6666666667 644 -93 664 c 0
 -121.666666667 697.333333333 -135.333333333 718 -134 726 c 0
EndSplineSet
Validated: 37
EndChar

StartChar: u
Encoding: 117 117 5
Width: 399
Flags: W
HStem: 405 30<98.7653 121.734>
VStem: 95 29<405.158 427.719>
LayerCount: 2
Back
Fore
SplineSet
69 259 m 1
 64 221 l 1
 65.3330078125 221 66.3330078125 220.833007812 67 220.5 c 0
 67.6669921875 220.166992188 68.5 220.5 69.5 221.5 c 0
 71 223 71 223 72 224 c 0
 72.6669921875 224.666992188 73.3330078125 225.666992188 74 227 c 0
 75 229 75 229 76 231 c 0
 76.6669921875 232.333007812 77.3330078125 233.833007812 78 235.5 c 0
 78.6669921875 237.166992188 79.1669921875 238.666992188 79.5 240 c 0
 79.8330078125 241.333007812 80.3330078125 242.833007812 81 244.5 c 0
 81.6669921875 246.166992188 82.3330078125 247.666992188 83 249 c 0
 93.6669921875 275.666992188 105 286.666992188 117 282 c 0
 127 278 135.166992188 267.5 141.5 250.5 c 0
 147.833007812 233.5 149 212 145 186 c 0
 143 174.666992188 141.333007812 161.666992188 140 147 c 0
 138.666992188 132.333007812 137.5 122.666992188 136.5 118 c 0
 135.5 113.333007812 133.5 107.333007812 130.5 100 c 0
 127.5 92.6669921875 123.333007812 84.6669921875 118 76 c 0
 92.6669921875 36 75.3330078125 15.3330078125 66 14 c 0
 60.4033203125 13.0673828125 57.5400390625 14.470703125 57.412109375 18.208984375 c 0
 57.1865234375 24.7509765625 66.3828125 30.6806640625 85 36 c 0
 143.666992188 52.6669921875 203.333007812 52.6669921875 264 36 c 0
 280 31.3330078125 293.666992188 26.5 305 21.5 c 0
 316.333007812 16.5 324.166992188 12.3330078125 328.5 9 c 0
 332.833007812 5.6669921875 336.5 2.5 339.5 -0.5 c 0
 344 -5 344 -5 345 -6 c 0
 347 -7 348.25 -8.875 348.75 -11.625 c 0
 349.427734375 -11.51953125 350.177734375 -10.64453125 351 -9 c 0
 359 7.6669921875 365.333007812 16.6669921875 370 18 c 1
 363.5 24 l 2
 359.166992188 28 354 38 348 54 c 0
 342 70 338.333007812 90 337 114 c 0
 335.666992188 144.666992188 335.833007812 167.833007812 337.5 183.5 c 0
 339.166992188 199.166992188 341.333007812 208.833007812 344 212.5 c 0
 346.666992188 216.166992188 351.666992188 220.333007812 359 225 c 0
 372.333007812 233.666992188 379 245.333007812 379 260 c 0
 379 267.333007812 378.166992188 272.666992188 376.5 276 c 0
 374.833007812 279.333007812 372.666992188 280.333007812 370 279 c 0
 368.666992188 278.333007812 366.166992188 274.5 362.5 267.5 c 0
 358.833007812 260.5 354.333007812 254.666992188 349 250 c 0
 341.666992188 244 333.666992188 235.166992188 325 223.5 c 0
 316.333007812 211.833007812 311.666992188 203.333007812 311 198 c 0
 307 164.666992188 308.333007812 130 315 94 c 0
 316.333007812 85.3330078125 317.666992188 76.1669921875 319 66.5 c 0
 320.333007812 56.8330078125 321.333007812 50 322 46 c 0
 322.666992188 42 323.666992188 39.3330078125 325 38 c 1
 305 49.3330078125 295 55 295 55 c 2
 291.666992188 57 287 59.3330078125 281 62 c 0
 275 64.6669921875 263.5 68.1669921875 246.5 72.5 c 0
 229.5 76.8330078125 213 78.6669921875 197 78 c 0
 116.333007812 75.3330078125 62 62.3330078125 34 39 c 0
 18.95703125 26.6923828125 21.95703125 14.3583984375 43 2 c 0
 60.9892578125 -8.5654296875 75.21484375 -11.392578125 85.6767578125 -6.482421875 c 0
 86.5673828125 -6.064453125 87.3427734375 -5.5703125 88 -5 c 0
 98 3.6669921875 110.833007812 19.5 126.5 42.5 c 0
 142.166992188 65.5 153.333007812 88 160 110 c 0
 166.666992188 133.333007812 171 158 173 184 c 0
 175 210 174.333007812 227.333007812 171 236 c 0
 167 251.333007812 159.833007812 267 149.5 283 c 0
 139.166992188 299 126.666992188 306 112 304 c 0
 91.099609375 300.556640625 76.765625 285.556640625 69 259 c 1
64 210 m 0
 59.3330078125 206.666992188 60 204 66 202 c 0
 68 201.333007812 69.8330078125 201.166992188 71.5 201.5 c 0
 73.1669921875 201.833007812 74.1669921875 202.5 74.5 203.5 c 0
 74.8330078125 204.5 74.6669921875 205.666992188 74 207 c 0
 70.6669921875 211.666992188 67.3330078125 212.666992188 64 210 c 0
114 435 m 0
 109.333007812 436.333007812 104.166992188 434 98.5 428 c 0
 92.8330078125 422 91.6669921875 416.333007812 95 411 c 0
 102.333007812 399 111.333007812 397 122 405 c 0
 126 408.333007812 126.666992188 413.833007812 124 421.5 c 0
 121.333007812 429.166992188 118 433.666992188 114 435 c 0
EndSplineSet
Validated: 524325
EndChar

StartChar: s
Encoding: 115 115 6
Width: 400
Flags: W
HStem: 229 47.2002<267.994 322.397>
VStem: 69.7998 47.2002<219.994 274.397>
LayerCount: 2
Back
Fore
SplineSet
69.7998046875 259.400390625 m 0
 68.734375 250.333007812 78.734375 233.666015625 99.7998046875 209.400390625 c 0
 120.8671875 185.1328125 137.799804688 169.80078125 150.600585938 163.400390625 c 0
 169.799804688 153.80078125 193.267578125 123.666015625 231.400390625 98.6005859375 c 0
 269.53515625 73.533203125 284.108398438 45.24609375 285.80078125 37.80078125 c 0
 287.765625 29.1533203125 297.822265625 22.439453125 315.970703125 17.65625 c 0
 333.90625 12.931640625 342.908203125 14.9443359375 342.978515625 23.6943359375 c 0
 342.986328125 24.595703125 342.859375 25.564453125 342.600585938 26.6005859375 c 0
 339.934570312 37.80078125 334.067382812 48.6005859375 325 59 c 0
 315.934570312 69.400390625 306.592773438 75.90234375 297 78.6005859375 c 0
 279.934570312 83.400390625 253.799804688 121.80078125 201 157 c 0
 148.200195312 192.200195312 121.494140625 226.3828125 117 246.600585938 c 0
 113.799804688 261 108.467773438 270.333007812 101 274.600585938 c 0
 93.5341796875 278.866210938 86.734375 279.1328125 80.6005859375 275.400390625 c 0
 74.4677734375 271.666015625 70.8671875 266.333007812 69.7998046875 259.400390625 c 0
  Spiro
    69.8003 259.4 o
    72.4169 247.814 o
    82.4369 231.114 o
    99.8003 209.4 o
    119.471 188.13 o
    136.438 172.766 o
    150.6 163.4 o
    171.585 147.924 o
    197.8 124.382 o
    231.4 98.6004 o
    262.053 73.3755 o
    279.43 51.2832 o
    285.8 37.8004 o
    290.455 29.8051 o
    300.532 23.0772 o
    315.971 17.6566 o
    330.917 15.1777 o
    339.937 17.1942 o
    342.978 23.6941 o
    342.942 24.6172 o
    342.815 25.5878 o
    342.6 26.6004 o
    338.872 37.6561 o
    332.994 48.4777 o
    325 59.0004 o
    315.853 68.0966 o
    306.499 74.636 o
    297 78.6004 o
    276.285 93.2143 o
    245.527 122.13 o
    201 157 o
    156.79 191.349 o
    129.022 222.236 o
    117 246.6 o
    113.094 259.3 o
    107.75 268.652 o
    101 274.6 o
    93.7636 277.532 o
    86.95 277.799 o
    80.6003 275.4 o
    75.3162 271.138 o
    71.709 265.794 o
    0 0 z
  EndSpiro
307.400390625 276.200195312 m 0
 298.333984375 277.266601562 281.666992188 267.266601562 257.400390625 246.200195312 c 0
 233.133789062 225.133789062 217.799804688 208.200195312 211.400390625 195.400390625 c 0
 201.799804688 176.200195312 171.666992188 152.734375 146.600585938 114.600585938 c 0
 121.534179688 76.466796875 93.24609375 61.892578125 85.7998046875 60.2001953125 c 0
 77.154296875 58.2353515625 70.4404296875 48.1787109375 65.6572265625 30.03125 c 0
 60.931640625 12.0947265625 62.9443359375 3.0927734375 71.6943359375 3.0224609375 c 0
 72.595703125 3.015625 73.564453125 3.140625 74.6005859375 3.400390625 c 0
 85.7998046875 6.06640625 96.6005859375 11.93359375 107 21 c 0
 117.400390625 30.06640625 123.90234375 39.4091796875 126.600585938 49 c 0
 131.400390625 66.06640625 169.799804688 92.2001953125 205 145 c 0
 240.200195312 197.80078125 274.3828125 224.5078125 294.600585938 229 c 0
 309 232.200195312 318.333984375 237.534179688 322.600585938 245 c 0
 326.8671875 252.466796875 327.133789062 259.266601562 323.400390625 265.400390625 c 0
 319.666992188 271.534179688 314.333984375 275.133789062 307.400390625 276.200195312 c 0
  Spiro
    307.4 276.2 o
    295.814 273.584 o
    279.114 263.564 o
    257.4 246.2 o
    236.13 226.53 o
    220.766 209.563 o
    211.4 195.4 o
    195.924 174.416 o
    172.382 148.201 o
    146.6 114.6 o
    121.376 83.9481 o
    99.2837 66.5706 o
    85.8003 60.2004 o
    77.8055 55.5456 o
    71.0778 45.4688 o
    65.6573 30.0309 o
    63.1779 15.0847 o
    65.1944 6.06396 o
    71.6948 3.02227 o
    72.6173 3.05945 o
    73.5878 3.18569 o
    74.6003 3.40039 o
    85.656 7.12887 o
    96.4776 13.0074 o
    107 21.0004 o
    116.097 30.1485 o
    122.636 39.5025 o
    126.6 49.0004 o
    141.214 69.716 o
    170.13 100.474 o
    205 145 o
    239.349 189.211 o
    270.236 216.979 o
    294.6 229 o
    307.3 232.907 o
    316.652 238.251 o
    322.6 245 o
    325.532 252.238 o
    325.799 259.051 o
    323.4 265.4 o
    319.138 270.685 o
    313.794 274.292 o
    0 0 z
  EndSpiro
EndSplineSet
Validated: 524325
EndChar

StartChar: o
Encoding: 111 111 7
Width: 875
Flags: W
HStem: 393 48<870.756 904.202>
VStem: 5 33<107.875 217.443> 868.5 41.5<400.766 440.586>
LayerCount: 2
Back
Fore
SplineSet
891 441 m 0
 885.666666667 440.333333333 880.5 436.166666667 875.5 428.5 c 0
 870.5 420.833333333 868.166666667 413.166666667 868.5 405.5 c 0
 868.833333333 397.833333333 872.333333333 393.666666667 879 393 c 0
 889.666666667 392.333333333 898.166666667 394.833333333 904.5 400.5 c 0
 910.833333333 406.166666667 912.666666667 413 910 421 c 0
 909.333333333 423 908.5 425.833333333 907.5 429.5 c 0
 906.5 433.166666667 906 435.166666667 906 435.5 c 0
 906 435.833333333 905.333333333 437 904 439 c 0
 902.666666667 441 901 441.666666667 899 441 c 0
 897 440.333333333 894.333333333 440.333333333 891 441 c 0
45 236 m 1
 41.6666666667 234 37.3333333333 231.166666667 32 227.5 c 0
 26.6666666667 223.833333333 20.1666666667 216.833333333 12.5 206.5 c 0
 4.83333333333 196.166666667 2.33333333333 186.666666667 5 178 c 0
 5.66666666667 176.666666667 8.16666666667 165.333333333 12.5 144 c 0
 16.8333333333 122.666666667 21.6666666667 105 27 91 c 0
 32.3333333333 77 39.3333333333 65 48 55 c 0
 61.3333333333 39.6666666667 81.5 26.8333333333 108.5 16.5 c 0
 135.5 6.16666666667 167.833333333 3.5 205.5 8.5 c 0
 243.166666667 13.5 276.333333333 29.6666666667 305 57 c 0
 366.946996661 116.220812864 400.002794023 147.371984428 404.167392085 150.453514693 c 0
 414.578226774 158.156851654 422.522429412 158.00568009 428 150 c 0
 428 149.333333333 431.666666667 143.333333333 439 132 c 0
 446.333333333 120.666666667 453.166666667 110.333333333 459.5 101 c 0
 465.833333333 91.6666666667 474.666666667 80.1666666667 486 66.5 c 0
 497.333333333 52.8333333333 508.166666667 41.6666666667 518.5 33 c 0
 528.833333333 24.3333333333 540.666666667 17.3333333333 554 12 c 0
 567.333333333 6.66666666667 580 5.33333333333 592 8 c 0
 632 16 663.333333333 25.8333333333 686 37.5 c 0
 708.666666667 49.1666666667 725.333333333 61.1666666667 736 73.5 c 0
 746.666666667 85.8333333333 765.166666667 105.5 791.5 132.5 c 0
 817.833333333 159.5 848.666666667 186.666666667 884 214 c 0
 896 223.333333333 902.166666667 232.666666667 902.5 242 c 0
 902.833333333 251.333333333 899 257.166666667 891 259.5 c 0
 883 261.833333333 874 260.666666667 864 256 c 0
 854 250 838.166666667 232.166666667 816.5 202.5 c 0
 794.833333333 172.833333333 776 151 760 137 c 0
 758 135.666666667 749 127.666666667 733 113 c 0
 717 98.3333333333 705 87.8333333333 697 81.5 c 0
 689 75.1666666667 676.5 67 659.5 57 c 0
 642.5 47 628 41 616 39 c 0
 604 37 590.166666667 37.8333333333 574.5 41.5 c 0
 558.833333333 45.1666666667 544.333333333 53.3333333333 531 66 c 0
 497.666666667 98 475 124 463 144 c 0
 451 164 447.333333333 183 452 201 c 0
 458.033416657 222.720299965 455.503971215 234.317085941 444.411663672 235.790357925 c 0
 430.565861945 237.629346947 408.428640721 218.032560972 378 177 c 0
 346.666666667 135 309.833333333 99.6666666667 267.5 71 c 0
 225.166666667 42.3333333333 193.333333333 28.6666666667 172 30 c 0
 160.666666667 30.6666666667 151.5 31.5 144.5 32.5 c 0
 137.5 33.5 127.666666667 36.1666666667 115 40.5 c 0
 102.333333333 44.8333333333 92 50.1666666667 84 56.5 c 0
 76 62.8333333333 68.1666666667 72.3333333333 60.5 85 c 0
 52.8333333333 97.6666666667 47.6666666667 112.666666667 45 130 c 0
 40.3333333333 156.666666667 38 178.833333333 38 196.5 c 0
 38 214.166666667 39.1666666667 225.166666667 41.5 229.5 c 2
 45 236 l 1
EndSplineSet
Validated: 41
EndChar

StartChar: z
Encoding: 122 122 8
Width: 490
Flags: W
HStem: -0.5 26.5<81.4082 148.34> 7 30.5244<428.717 489.21>
VStem: 158.425 25.5748<63.1956 86.5957> 242 28.5<-47.8751 28.3909> 269 28<31.7715 260.656> 378 40<39.8212 110>
LayerCount: 2
Back
Fore
SplineSet
188 107 m 0x24
 194.666666667 117.666666667 215.333333333 135 250 159 c 0
 269.333333333 172.333333333 295.833333333 184.333333333 329.5 195 c 0
 363.166666667 205.666666667 384.333333333 211 393 211 c 0
 395 211 399.666666667 210.333333333 407 209 c 0
 414.333333333 207.666666667 422 207.333333333 430 208 c 0
 443.333333333 208.666666667 445.333333333 217.333333333 436 234 c 0
 432 241.333333333 414 241.666666667 382 235 c 0
 371.333333333 233 351 226.333333333 321 215 c 0
 291 203.666666667 265 192.666666667 243 182 c 4
 199 160.666666667 171 128.666666667 159 86 c 0
 156.960470803 78.6576948919 156.768864147 72.8700070483 158.425180032 68.6369364691 c 0
 161.635728724 60.4316905173 168.43751138 58.5885303609 178.830528 63.107456 c 0
 183.154649939 64.9876016987 184.877807272 66.9517830321 184 69 c 0
 182.666666667 72.3333333333 182.333333333 78.3333333333 183 87 c 0
 183.666666667 95.6666666667 185.333333333 102.333333333 188 107 c 0x24
242 -30 m 0xb4
 241.333333333 -33.3333333333 243.5 -38.3333333333 248.5 -45 c 0
 253.5 -51.6666666667 258.666666667 -52.6666666667 264 -48 c 0
 266.666666667 -45.3333333333 268.833333333 -42.8333333333 270.5 -40.5 c 0xb4
 272.166666667 -38.1666666667 273.166666667 -35.8333333333 273.5 -33.5 c 0
 273.833333333 -31.1666666667 274.333333333 -26.5 275 -19.5 c 0
 275.666666667 -12.5 276.666666667 -6 278 0 c 0
 290 68 296.333333333 131 297 189 c 0
 297.666666667 217 295.833333333 239.166666667 291.5 255.5 c 0
 287.166666667 271.833333333 282.5 282.5 277.5 287.5 c 0
 272.5 292.5 264.666666667 297.333333333 254 302 c 0
 236.666666667 310 209.166666667 308 171.5 296 c 0
 133.833333333 284 99.3333333333 258.666666667 68 220 c 0
 31.3333333333 174.666666667 9.5 139.333333333 2.5 114 c 0
 -4.5 88.6666666667 2.66666666667 67 24 49 c 0
 36.6666666667 39.6666666667 49 31.3333333333 61 24 c 0
 73 16.6666666667 85.1666666667 10.5 97.5 5.5 c 0
 109.833333333 0.5 120.666666667 -1.5 130 -0.5 c 0
 139.333333333 0.5 145.666666667 5.33333333333 149 14 c 0
 151 20.6666666667 152.333333333 25.6666666667 153 29 c 0
 153.666666667 32.3333333333 152.5 34 149.5 34 c 0
 146.5 34 143.5 33.5 140.5 32.5 c 0
 137.5 31.5 133.666666667 30.1666666667 129 28.5 c 0
 124.333333333 26.8333333333 120.333333333 26 117 26 c 0
 97.6666666667 24.6666666667 74 36.3333333333 46 61 c 0
 17.3333333333 85.6666666667 18 121.666666667 48 169 c 0
 66 197.666666667 89.6666666667 222 119 242 c 0
 148.333333333 262 172.333333333 274.333333333 191 279 c 0
 214.637062026 284.909265507 230.206044615 285.980972585 237.706947766 282.215121234 c 0
 247.195297861 277.451466072 254.292981939 266.379758994 259 249 c 0
 265 227.666666667 268.333333333 197.833333333 269 159.5 c 0xac
 269.666666667 121.166666667 269 99 267 93 c 0
 255.666666667 25.6666666667 248.333333333 -12.3333333333 245 -21 c 0
 243.666666667 -24.3333333333 242.666666667 -27.3333333333 242 -30 c 0xb4
378 110 m 1
 378 108 378.166666667 105.166666667 378.5 101.5 c 0
 378.833333333 97.8333333333 380 91.1666666667 382 81.5 c 0
 384 71.8333333333 386.5 63.1666666667 389.5 55.5 c 0
 392.5 47.8333333333 397.166666667 40 403.5 32 c 0
 409.833333333 24 417.333333333 18.6666666667 426 16 c 0
 449.333333333 8.66666666667 464.166666667 5.66666666667 470.5 7 c 0
 476.833333333 8.33333333333 483.333333333 13.6666666667 490 23 c 0
 498.856846215 35.5471988039 495.164885283 40.3886713809 478.924117205 37.524417731 c 0x64
 475.777155318 36.9694133724 472.135782916 36.1279407953 468 35 c 0
 456.666666667 30.3333333333 443.333333333 30.3333333333 428 35 c 0
 412.666666667 39.6666666667 406.666666667 49.3333333333 410 64 c 0
 412 74.6666666667 413.666666667 83 415 89 c 0
 416.333333333 95 417.333333333 101.666666667 418 109 c 0
 418.666666667 116.333333333 418.166666667 121.166666667 416.5 123.5 c 0
 414.833333333 125.833333333 412.333333333 126 409 124 c 2
 378 110 l 1
EndSplineSet
Validated: 37
EndChar

StartChar: t
Encoding: 116 116 9
Width: 424
Flags: W
HStem: -10 33<32.6432 58.9062> 219 44<312.813 324.937> 229 33<325.062 451.686>
VStem: 22 48<74.0989 89.5> 32.5 47.5<-1.29553 34.5703> 162.5 34.5<161.462 205.875>
LayerCount: 2
Back
Fore
SplineSet
70 114 m 1x94
 68.6666666667 112 67.1666666667 109.5 65.5 106.5 c 0
 63.8333333333 103.5 60.6666666667 99.6666666667 56 95 c 0
 51.3333333333 90.3333333333 47.3333333333 88.6666666667 44 90 c 0
 36.6666666667 92.6666666667 41.3333333333 107.666666667 58 135 c 0
 64 144.333333333 80.5 160.166666667 107.5 182.5 c 0
 134.5 204.833333333 151.666666667 213.666666667 159 209 c 0
 161 207.666666667 162.166666667 205.666666667 162.5 203 c 0
 162.833333333 200.333333333 162.333333333 197 161 193 c 0
 159.666666667 189 157.833333333 185 155.5 181 c 0
 153.166666667 177 150.666666667 172 148 166 c 0
 145.333333333 160 143.333333333 154.333333333 142 149 c 0
 138 135 122.333333333 111.833333333 95 79.5 c 0
 67.6666666667 47.1666666667 49.3333333333 28.3333333333 40 23 c 0
 32 18.3333333333 29.5 11.3333333333 32.5 2 c 0
 35.5 -7.33333333333 42 -11.3333333333 52 -10 c 0
 62 -8.66666666667 68.8333333333 -5.83333333333 72.5 -1.5 c 0
 76.1666666667 2.83333333333 78.6666666667 9 80 17 c 0
 80.6666666667 21.6666666667 100.333333333 50.3333333333 139 103 c 0
 177.666666667 155.666666667 197 184.666666667 197 190 c 0
 197 196 196.833333333 201.333333333 196.5 206 c 0
 196.166666667 210.666666667 194.833333333 217.333333333 192.5 226 c 0
 190.166666667 234.666666667 186.833333333 240.833333333 182.5 244.5 c 0
 178.166666667 248.166666667 171.5 249 162.5 247 c 0
 153.5 245 142.666666667 238.333333333 130 227 c 0
 109.333333333 209 90 189.166666667 72 167.5 c 0
 54 145.833333333 40.8333333333 128 32.5 114 c 0x8c
 24.1666666667 100 20.6666666667 91.3333333333 22 88 c 0
 24 84 28 80 34 76 c 0
 40 72 44 70.6666666667 46 72 c 0
 48.6565165749 73.3617319944 56.6565165749 87.3617319944 70 114 c 1x94
300 263 m 1xc4
 306.666666667 235 313.333333333 220.333333333 320 219 c 0xc4
 322 218.333333333 323.666666667 218.5 325 219.5 c 0
 326.333333333 220.5 327.166666667 221.5 327.5 222.5 c 0
 327.833333333 223.5 329.166666667 224.666666667 331.5 226 c 0
 333.833333333 227.333333333 336.666666667 228.333333333 340 229 c 0
 348.666666667 230.333333333 363.333333333 230.333333333 384 229 c 0
 404.666666667 227.666666667 418 225.666666667 424 223 c 0
 436 217.666666667 445.333333333 221.666666667 452 235 c 1
 459 262 l 1xa4
 300 263 l 1xc4
339 215 m 0
 333.666666667 212.333333333 315 188.833333333 283 144.5 c 0
 251 100.166666667 230.666666667 70.6666666667 222 56 c 0
 220 52.6666666667 217.833333333 49.1666666667 215.5 45.5 c 0
 213.166666667 41.8333333333 211.333333333 39 210 37 c 0
 208.666666667 35 207.333333333 32.8333333333 206 30.5 c 0
 204.666666667 28.1666666667 203.833333333 26.3333333333 203.5 25 c 0
 203.166666667 23.6666666667 203.166666667 22.1666666667 203.5 20.5 c 0
 203.833333333 18.8333333333 204.666666667 17.5 206 16.5 c 0
 207.333333333 15.5 209.333333333 14.6666666667 212 14 c 0
 220.666666667 9.33333333333 229 7.33333333333 237 8 c 0
 245 8.66666666667 250.333333333 14 253 24 c 0
 254.333333333 30.6666666667 261.666666667 44.8333333333 275 66.5 c 0
 288.333333333 88.1666666667 300.833333333 108.166666667 312.5 126.5 c 0
 324.166666667 144.833333333 329.333333333 154 328 154 c 1
 356 211 l 1
 355.333333333 211 354 212 352 214 c 0
 350 216 348.5 217 347.5 217 c 0
 346.5 217 343.666666667 216.333333333 339 215 c 0
EndSplineSet
Validated: 41
EndChar

StartChar: A
Encoding: 65 65 10
Width: 990
Flags: W
VStem: 333.5 34.5<415.996 595.436> 333.5 25.5<66.1564 91.0994 393.309 590.031> 605 34<391.207 609.937> 630 37<16.9629 25.5>
LayerCount: 2
Back
Fore
SplineSet
620 613 m 0x20
 626 614.333333333 631 613.333333333 635 610 c 0
 636.333333333 608.666666667 637.333333333 607.166666667 638 605.5 c 0
 638.666666667 603.833333333 639 601.166666667 639 597.5 c 0
 639 593.833333333 638.833333333 590.166666667 638.5 586.5 c 0
 638.166666667 582.833333333 637.666666667 576.833333333 637 568.5 c 0
 636.333333333 560.166666667 635.666666667 552 635 544 c 0
 632.333333333 500.666666667 637.333333333 451 650 395 c 0
 654.666666667 373.666666667 660.666666667 358.666666667 668 350 c 0
 675.333333333 341.333333333 684.666666667 337.666666667 696 339 c 0
 710 340.333333333 725.333333333 366.333333333 742 417 c 0
 756.666666667 460.333333333 771.666666667 482 787 482 c 0
 790.333333333 482 792.5 481 793.5 479 c 0
 794.5 477 794.666666667 474.166666667 794 470.5 c 0
 793.333333333 466.833333333 792.166666667 462.833333333 790.5 458.5 c 0
 788.833333333 454.166666667 786.5 448.666666667 783.5 442 c 0
 780.5 435.333333333 777.666666667 429.166666667 775 423.5 c 0
 772.333333333 417.833333333 769 411 765 403 c 0
 761 395 757.666666667 387.666666667 755 381 c 0
 734.333333333 333.666666667 706.666666667 311.333333333 672 314 c 0
 665.333333333 314.666666667 659.5 316.5 654.5 319.5 c 0
 649.5 322.5 645.5 326.833333333 642.5 332.5 c 0
 639.5 338.166666667 637.166666667 343.166666667 635.5 347.5 c 0
 633.833333333 351.833333333 631.833333333 358.166666667 629.5 366.5 c 0
 627.166666667 374.833333333 625.333333333 380.666666667 624 384 c 0
 619.333333333 396.666666667 615 426.666666667 611 474 c 0
 607 521.333333333 605 552.666666667 605 568 c 0
 605 596 610 611 620 613 c 0x20
183 380 m 0
 183 380.997519008 184.096209913 383.118024353 186.288629738 386.361516035 c 0
 195.062451348 399.341610947 200.966241435 401.887772268 204 394 c 0
 204 393.333333333 205.333333333 388.5 208 379.5 c 0
 210.666666667 370.5 213.666666667 362 217 354 c 0
 220.333333333 346 224.333333333 337.166666667 229 327.5 c 0
 233.666666667 317.833333333 239.5 310 246.5 304 c 0
 253.5 298 261 294.666666667 269 294 c 0
 277 293.333333333 283.666666667 294 289 296 c 0
 294.333333333 298 298.833333333 302.5 302.5 309.5 c 0
 306.166666667 316.5 308.666666667 322.666666667 310 328 c 0
 311.333333333 333.333333333 313.5 343 316.5 357 c 0
 319.5 371 322 382 324 390 c 0
 326.666666667 401.333333333 328.833333333 414.666666667 330.5 430 c 0
 332.166666667 445.333333333 333.166666667 460.666666667 333.5 476 c 0
 333.833333333 491.333333333 333.833333333 505.166666667 333.5 517.5 c 0
 333.166666667 529.833333333 332.833333333 541.166666667 332.5 551.5 c 0
 332.166666667 561.833333333 332 567.333333333 332 568 c 0
 332 572.003931159 336.660125 579.417879076 345.980375 590.24184375 c 0
 360.660125 607.290001838 368 613.209387255 368 608 c 0x80
 368 606.666666667 367.166666667 598.5 365.5 583.5 c 0
 363.833333333 568.5 362.166666667 552.666666667 360.5 536 c 0
 358.833333333 519.333333333 358.333333333 507.333333333 359 500 c 0x40
 361 476 354.333333333 427.666666667 339 355 c 0
 335 337 330.5 322.5 325.5 311.5 c 0
 320.5 300.5 315.833333333 292.833333333 311.5 288.5 c 0
 307.166666667 284.166666667 300.666666667 278.666666667 292 272 c 0
 289.333333333 270 286.5 268.5 283.5 267.5 c 0
 280.5 266.5 277.333333333 266.333333333 274 267 c 0
 270.666666667 267.666666667 267.666666667 268.333333333 265 269 c 0
 262.333333333 269.666666667 259 271.5 255 274.5 c 0
 251 277.5 247.833333333 280 245.5 282 c 0
 242 285 242 285 235 291 c 0
 230.333333333 295 226.666666667 298 224 300 c 0
 216 306.666666667 208.666666667 316.5 202 329.5 c 0
 195.333333333 342.5 190.5 353.666666667 187.5 363 c 0
 184.5 372.333333333 183 378 183 380 c 0
355 42 m 0
 357.663359165 34.1028605792 365.330025831 24.4361939126 378 13 c 1
 366 3 357 3 351 13 c 0
 349.666666667 15 346.5 18.6666666667 341.5 24 c 0
 336.5 29.3333333333 332.833333333 34 330.5 38 c 0
 328.166666667 42 327.833333333 48.5 329.5 57.5 c 0
 331.166666667 66.5 336 76.6666666667 344 88 c 0
 345.333333333 90 349.5 95.8333333333 356.5 105.5 c 0
 363.5 115.166666667 368.166666667 121.666666667 370.5 125 c 0
 372.833333333 128.333333333 377.5 134 384.5 142 c 0
 391.5 150 397.166666667 155.5 401.5 158.5 c 0
 405.833333333 161.5 412 165.5 420 170.5 c 0
 428 175.5 435.666666667 179 443 181 c 0
 450.333333333 183 459.166666667 184.666666667 469.5 186 c 0
 479.833333333 187.333333333 495.666992188 186.666992188 507 186 c 0
 528.333007812 184.666992188 543 180.833333333 561 172.5 c 0
 579 164.166666667 593.333333333 153.666666667 604 141 c 0
 614.666666667 128.333333333 622.833333333 117.5 628.5 108.5 c 0
 634.166666667 99.5 639 90.3333333333 643 81 c 0
 645.666666667 74.3333333333 650 66.3333333333 656 57 c 0
 662 47.6666666667 665.666666667 41.5 667 38.5 c 0
 668.333333333 35.5 668.333333333 31.6666666667 667 27 c 1
 661 22.3333333333 654 18.6666666667 646 16 c 0
 638 13.3333333333 632.666666667 14 630 18 c 2x10
 628 25.5 l 2
 626 33 626 33 624 40.5 c 0
 622.666666667 45.5 620.666666667 51.8333333333 618 59.5 c 0
 615.333333333 67.1666666667 612.5 74.3333333333 609.5 81 c 0
 606.5 87.6666666667 603 95 599 103 c 0
 595 111 590.666666667 118 586 124 c 0
 581.333333333 130 576.166666667 135.5 570.5 140.5 c 0
 564.833333333 145.5 559 149 553 151 c 0
 495.666666667 172.333333333 450.333333333 166.666666667 417 134 c 0
 411.666666667 128.666666667 405.333333333 122.666666667 398 116 c 0
 390.666666667 109.333333333 385 104.166666667 381 100.5 c 0
 377 96.8333333333 373 92.8333333333 369 88.5 c 0
 365 84.1666666667 362.166666667 80.1666666667 360.5 76.5 c 0
 358.833333333 72.8333333333 358 69.3333333333 358 66 c 0
 358.666666667 60 358 55.5 356 52.5 c 0
 354 49.5 353.666666667 46 355 42 c 0
122 -10 m 0
 104 -8.66666666667 89.3333333333 3.66666666667 78 27 c 0
 66.6666666667 50.3333333333 61.3333333333 72 62 92 c 0
 62.6666666667 108.666666667 69.8333333333 139.666666667 83.5 185 c 0
 97.1666666667 230.333333333 111 269.666666667 125 303 c 0
 157 379.666666667 190.666666667 443.333333333 226 494 c 0
 248 526 278.5 561 317.5 599 c 0
 356.5 637 384 661.666666667 400 673 c 0
 402.666666667 675 412.833333333 682.833333333 430.5 696.5 c 0
 448.166666667 710.166666667 463.833333333 722 477.5 732 c 0
 491.166666667 742 499.333333333 747 502 747 c 0
 505.333333333 747.666666667 513.666666667 744.5 527 737.5 c 0
 540.333333333 730.5 558 719.5 580 704.5 c 0
 602 689.5 624 672.666666667 646 654 c 0
 677.333333333 627.333333333 711.5 581.5 748.5 516.5 c 0
 785.5 451.5 816 390.333333333 840 333 c 0
 856.666666667 293 876 237.833333333 898 167.5 c 0
 920 97.1666666667 931 56.6666666667 931 46 c 0
 931 36.6666666667 926.166666667 30.1666666667 916.5 26.5 c 0
 906.833333333 22.8333333333 900 24.3333333333 896 31 c 0
 894 34.3333333333 889.833333333 48.1666666667 883.5 72.5 c 0
 877.166666667 96.8333333333 870 125.333333333 862 158 c 0
 854 190.666666667 848 214 844 228 c 0
 834.666666667 259.333333333 828.166666667 280.833333333 824.5 292.5 c 0
 820.833333333 304.166666667 810.333333333 329.666666667 793 369 c 0
 775.666666667 408.333333333 754 451 728 497 c 0
 708.666666667 531.666666667 690.5 560.333333333 673.5 583 c 0
 656.5 605.666666667 643.666666667 620.666666667 635 628 c 0
 626.333333333 635.333333333 617 642.166666667 607 648.5 c 0
 597 654.833333333 590.666666667 659.333333333 588 662 c 0
 574 674.666666667 555 685.166666667 531 693.5 c 0
 507 701.833333333 485.666666667 702 467 694 c 0
 443 684 404.833333333 653.5 352.5 602.5 c 0
 300.166666667 551.5 259.333333333 501.333333333 230 452 c 0
 198.666666667 400 174.833333333 355 158.5 317 c 0
 142.166666667 279 122 222.333333333 98 147 c 0
 75.3403127946 76.610333362 84.8822331223 25.5623622433 126.625760983 -6.14391335603 c 0
 129.210346197 -8.1070337562 130.513419826 -9.29532905321 130.53498187 -9.70879924706 c 0
 130.568063608 -10.3431692094 127.723069652 -10.440236127 122 -10 c 0
EndSplineSet
Validated: 37
EndChar

StartChar: I
Encoding: 73 73 11
Width: 438
Flags: W
HStem: 549.5 18.5<-141.752 217.152> 554 42<496.583 704.056> 555 21<38.1613 408> 557 29.5<267.844 656.861> 669 50<387 417.204>
VStem: 171 28<4.47754 184 212.5 326.957> 183.5 36.5<326.957 541.358> 290 46<7.10376 54 224 436.077>
LayerCount: 2
Back
Fore
SplineSet
387 719 m 0x09
 386 718 386 718 384 716 c 0
 382.666666667 714.666666667 380.5 712 377.5 708 c 0
 374.5 704 372 700.166666667 370 696.5 c 0
 368 692.833333333 366.166666667 689 364.5 685 c 0
 362.833333333 681 362.333333333 677.666666667 363 675 c 0
 363.666666667 672.333333333 365.666666667 670.333333333 369 669 c 0
 378.333333333 665.666666667 390.166666667 669.166666667 404.5 679.5 c 0
 418.833333333 689.833333333 425.666666667 699.333333333 425 708 c 0
 424.291976479 718.516013024 411.625309812 722.182679691 387 719 c 0x09
181 662 m 2
 179 661.333333333 177 660.333333333 175 659 c 0
 173 657.666666667 170.166666667 654.166666667 166.5 648.5 c 0
 162.833333333 642.833333333 163.666666667 636 169 628 c 0
 173 619.333333333 178.5 611.666666667 185.5 605 c 0
 192.5 598.333333333 198.666666667 594.5 204 593.5 c 0
 209.333333333 592.5 213.333333333 594 216 598 c 0
 217.333333333 600.666666667 217.333333333 604.833333333 216 610.5 c 0
 214.666666667 616.166666667 212.666666667 622.166666667 210 628.5 c 0
 207.333333333 634.833333333 204.5 640.833333333 201.5 646.5 c 0
 198.5 652.166666667 195.666666667 656.833333333 193 660.5 c 0
 190.333333333 664.166666667 188.333333333 665.666666667 187 665 c 2
 181 662 l 2
309 540 m 0
 297.666666667 527.333333333 292 422 292 224 c 1
 290 161 l 2
 288.666666667 119 288.333333333 83.3333333333 289 54 c 0
 289.666666667 24.6666666667 292 9 296 7 c 0
 297.333333333 6.33333333333 299 5.33333333333 301 4 c 0
 303 2.66666666667 304.666666667 1.66666666667 306 1 c 0
 307.333333333 0.333333333333 309 -0.333333333333 311 -1 c 0
 313 -1.66666666667 314.666666667 -1.83333333333 316 -1.5 c 0
 317.333333333 -1.16666666667 318.833333333 -0.333333333333 320.5 1 c 0
 322.166666667 2.33333333333 323.5 4.33333333333 324.5 7 c 0
 325.5 9.66666666667 326.5 13.3333333333 327.5 18 c 0
 328.5 22.6666666667 329.333333333 28 330 34 c 0
 330.666666667 40 332.666666667 128.333333333 336 299 c 0
 336 311 335.333333333 343 334 395 c 0
 332.666666667 447 333 473.666666667 335 475 c 0
 337.991121681 495.937851767 334.733345926 515.47965119 325.226672736 533.62539827 c 0
 319.799486405 543.984474315 314.390595493 546.109341559 309 540 c 0
184 535 m 0
 183.333333333 531.666666667 183.166666667 519.833333333 183.5 499.5 c 0x0b
 183.833333333 479.166666667 183.333333333 466 182 460 c 0
 180.666666667 454 178.666666667 409.333333333 176 326 c 0
 173.333333333 242.666666667 171.666666667 195.333333333 171 184 c 0
 163.666666667 88.6666666667 161.666666667 25.6666666667 165 -5 c 0
 167.463808697 -26.5583260951 175.355588093 -20.9794599946 188.675338189 11.7365983015 c 0
 190.772438277 16.8875094094 192.547325547 21.6419766423 194 26 c 0
 195.333333333 30.6666666667 197 51.3333333333 199 88 c 0x0d
 201 124.666666667 203.166666667 166.166666667 205.5 212.5 c 0
 207.833333333 258.833333333 209.666666667 289.666666667 211 305 c 0
 220.333333333 425 223.333333333 498.666666667 220 526 c 0x0b
 219.333333333 533.333333333 216.166666667 538.5 210.5 541.5 c 0
 204.833333333 544.5 199.166666667 545.166666667 193.5 543.5 c 0
 187.833333333 541.833333333 184.666666667 539 184 535 c 0
-157 568 m 0x89
 -162.333333333 568 -166.666666667 566 -170 562 c 0
 -173.333333333 558 -175 554 -175 550 c 0
 -175 546 -173.666666667 543 -171 541 c 0
 -167 539 -152.666666667 539.666666667 -128 543 c 0
 -124 543.666666667 -67 545.833333333 43 549.5 c 0x89
 153 553.166666667 217 555 235 555 c 0x29
 242.333333333 555 277.166666667 555.666666667 339.5 557 c 0x19
 401.833333333 558.333333333 455.166666667 559.333333333 499.5 560 c 0
 543.833333333 560.666666667 577.666666667 560.333333333 601 559 c 0
 643.666666667 553.666666667 672 552 686 554 c 0
 690.666666667 554.666666667 695.166666667 558.5 699.5 565.5 c 0
 703.833333333 572.5 706 579 706 585 c 0
 706 591 704 594.666666667 700 596 c 0x49
 694.666666667 596.666666667 615.333333333 593.5 462 586.5 c 0x19
 308.666666667 579.5 230 576 226 576 c 0x29
 218.666666667 576 154.166666667 574.666666667 32.5 572 c 0
 -89.1666666667 569.333333333 -152.333333333 568 -157 568 c 0x89
EndSplineSet
Validated: 41
EndChar

StartChar: l
Encoding: 108 108 12
Width: 500
Flags: W
HStem: 51 24<343.339 474.974> 226.042 36.4577<315.378 369.006> 228 24.5<141.468 321.485>
LayerCount: 2
Back
Fore
SplineSet
-38 146 m 5x80
 3.33333333333 86 34.3333333333 46.6666666667 55 28 c 0
 99.6666666667 -12 138 -6.33333333333 170 45 c 0
 198.269230769 90.2307692308 214.519230769 115.230769231 218.75 120 c 0
 233.031767956 136.099447514 246.781767956 137.099447514 260 123 c 0
 264.666666667 118.333333333 271.333333333 110.333333333 280 99 c 0
 288.666666667 87.6666666667 295.5 79.5 300.5 74.5 c 0
 305.5 69.5 314 64.3333333333 326 59 c 0
 338 53.6666666667 351.666666667 51 367 51 c 0
 439 49.6666666667 475 53.3333333333 475 62 c 0
 475 68 473.833333333 71.5 471.5 72.5 c 0
 469.166666667 73.5 458.666666667 74.3333333333 440 75 c 0
 432.666666667 75 421.333333333 74 406 72 c 0
 390.666666667 70 378.166666667 69.8333333333 368.5 71.5 c 0
 358.833333333 73.1666666667 350 78.6666666667 342 88 c 0
 340 90 331.5 100.666666667 316.5 120 c 0
 301.5 139.333333333 289.166666667 152.666666667 279.5 160 c 0
 269.833333333 167.333333333 260.333333333 170 251 168 c 0
 236.333333333 165.333333333 225.833333333 161.166666667 219.5 155.5 c 0
 213.166666667 149.833333333 202 134.666666667 186 110 c 0
 183.333333333 105.333333333 178.833333333 98.1666666667 172.5 88.5 c 0
 166.166666667 78.8333333333 161.166666667 71.1666666667 157.5 65.5 c 0
 153.833333333 59.8333333333 149 53.1666666667 143 45.5 c 0
 137 37.8333333333 131.666666667 32.5 127 29.5 c 0
 122.333333333 26.5 117.166666667 24.5 111.5 23.5 c 0
 105.833333333 22.5 100.166666667 24.1666666667 94.5 28.5 c 0
 88.8333333333 32.8333333333 83.3333333333 39.6666666667 78 49 c 0
 58.6666666667 81.6666666667 40.8333333333 107.166666667 24.5 125.5 c 0
 8.16666666667 143.833333333 -4.33333333333 153 -13 153 c 0
 -18.3333333333 153 -23 152.5 -27 151.5 c 0
 -31 150.5 -33.8333333333 149.333333333 -35.5 148 c 2
 -38 146 l 5x80
237 454 m 4
 232.333333333 453.333333333 224.333333333 443.166666667 213 423.5 c 0
 201.666666667 403.833333333 188.5 382.166666667 173.5 358.5 c 0
 158.5 334.833333333 146 319 136 311 c 0
 131.333333333 307 125.833333333 303 119.5 299 c 0
 113.166666667 295 107.333333333 291.333333333 102 288 c 0
 94 283 94 283 86 278 c 0
 80.6666666667 274.666666667 76.1666666667 271.5 72.5 268.5 c 0
 68.8333333333 265.5 66 262.333333333 64 259 c 0
 62 255.666666667 61.5 252.333333333 62.5 249 c 0
 63.5 245.666666667 66 242.333333333 70 239 c 0
 88.6666666667 223.666666667 170.333333333 220 315 228 c 0xa0
 323.010405765 228.457737472 334.469526746 227.805157134 349.377362943 226.042258986 c 0
 366.252198733 224.046756998 375.008873318 225.052677799 375.647386697 229.060021388 c 0
 375.980013508 231.147604774 375.097551276 234.127597644 373 238 c 0
 366.333333333 250 357.833333333 258.166666667 347.5 262.5 c 0xc0
 337.166666667 266.833333333 326.666666667 267 316 263 c 0
 306 259 275.166666667 255.5 223.5 252.5 c 0xa0
 171.833333333 249.5 144 249.333333333 140 252 c 0
 138 253.333333333 143.166666667 262.666666667 155.5 280 c 0
 167.833333333 297.333333333 182.5 317.333333333 199.5 340 c 0
 216.5 362.666666667 227 378.333333333 231 387 c 0
 246.048429026 418.037384866 250.572708941 439.202040536 244.572839744 450.493967011 c 0
 242.986024265 453.480399403 240.461744351 454.649077066 237 454 c 4
EndSplineSet
Validated: 41
EndChar

StartChar: U
Encoding: 85 85 13
Width: 774
Flags: W
VStem: -59 33<564.077 676.318>
LayerCount: 2
Back
Fore
SplineSet
-59 671 m 0
 -61 662.333333333 -54.3333333333 619.833333333 -39 543.5 c 0
 -23.6666666667 467.166666667 -10.6666666667 408.333333333 0 367 c 0
 4 350.333333333 21.5 288.833333333 52.5 182.5 c 0
 83.5 76.1666666667 99.6666666667 18 101 8 c 0
 103 -5.33333333333 104.833333333 -12.5 106.5 -13.5 c 0
 108.166666667 -14.5 116.333333333 -12.6666666667 131 -8 c 0
 147.666666667 -3.33333333333 182.166666667 17 234.5 53 c 0
 286.833333333 89 330 123.666666667 364 157 c 0
 406.666666667 199 459.166666667 256.5 521.5 329.5 c 0
 583.833333333 402.5 621.333333333 452.666666667 634 480 c 0
 648 510 647.333333333 541.333333333 632 574 c 0
 616.666666667 606.666666667 593.666666667 626.333333333 563 633 c 0
 532.333333333 639.666666667 504.166666667 634.333333333 478.5 617 c 0
 452.833333333 599.666666667 434.666666667 573.333333333 424 538 c 0
 414 504.666666667 406.666666667 478.166666667 402 458.5 c 0
 397.333333333 438.833333333 395.333333333 413 396 381 c 0
 396.666666667 349 403.333333333 320.333333333 416 295 c 0
 436 255.666666667 475 200 533 128 c 0
 591 56 626.333333333 18.6666666667 639 16 c 0
 651.666666667 13.3333333333 661 15.5 667 22.5 c 0
 673 29.5 671.666666667 39.6666666667 663 53 c 0
 657 61.6666666667 649.666666667 67.6666666667 641 71 c 0
 632.333333333 74.3333333333 621.333333333 83 608 97 c 0
 602 103 589.666666667 115 571 133 c 0
 552.333333333 151 535.833333333 168.166666667 521.5 184.5 c 0
 507.166666667 200.833333333 493.333333333 219.333333333 480 240 c 0
 422.666666667 329.333333333 413 420 451 512 c 0
 471.666666667 562.666666667 489.666666667 592.666666667 505 602 c 0
 520.333333333 611.333333333 539 608.333333333 561 593 c 1
 583 581 596.833333333 561.166666667 602.5 533.5 c 0
 608.166666667 505.833333333 604 482.666666667 590 464 c 0
 568.666666667 432.666666667 535.333333333 391 490 339 c 0
 485.333333333 333.666666667 472.5 318.666666667 451.5 294 c 0
 430.5 269.333333333 412.5 248.333333333 397.5 231 c 0
 382.5 213.666666667 365.333333333 194.833333333 346 174.5 c 0
 326.666666667 154.166666667 311 139.333333333 299 130 c 0
 231.666666667 77.3333333333 184.333333333 45 157 33 c 0
 145.666666667 27 136.833333333 25 130.5 27 c 0
 124.166666667 29 119 37 115 51 c 0
 114.333333333 52.3333333333 101.166666667 99.8333333333 75.5 193.5 c 0
 49.8333333333 287.166666667 33 349.333333333 25 380 c 0
 15.6666666667 415.333333333 5.16666666667 464.5 -6.5 527.5 c 0
 -18.1666666667 590.5 -24.6666666667 629.666666667 -26 645 c 0
 -27.1908706581 661.076753884 -33.4353818861 671.997995687 -44.7335336839 677.763725408 c 0
 -52.1686430468 681.558047861 -56.9241318189 679.303472725 -59 671 c 0
842 535 m 0
 826.666666667 529.666666667 744 438.666666667 594 262 c 0
 568.666666667 232 537.5 191.666666667 500.5 141 c 0
 463.5 90.3333333333 444.666666667 60 444 50 c 0
 443.813976162 45.9074755665 443.192689638 39.6763060131 442.136140427 31.3064913399 c 0
 440.193199531 15.9148228239 440.749830307 8.22012811512 443.806032753 8.22240721356 c 0
 444.891424046 8.2232166212 446.289413128 8.81574755001 448 10 c 0
 451.333333333 12.6666666667 466 32.1666666667 492 68.5 c 0
 518 104.833333333 546.833333333 144.5 578.5 187.5 c 0
 610.166666667 230.5 633 259.333333333 647 274 c 0
 771 402.666666667 837.666666667 470.666666667 847 478 c 0
 860.986047475 488.629396081 866.380173243 502.740453195 863.182377304 520.33317134 c 0
 860.67434712 534.131133735 853.613554686 539.020076622 842 535 c 0
EndSplineSet
Validated: 37
EndChar

StartChar: H
Encoding: 72 72 14
Width: 954
Flags: W
LayerCount: 2
Back
Fore
SplineSet
965 586 m 4
 960.333333333 584.666666667 936.5 549.833333333 893.5 481.5 c 0
 850.5 413.166666667 826.333333333 373.666666667 821 363 c 0
 819.666666667 361 781.833333333 313.166666667 707.5 219.5 c 0
 633.166666667 125.833333333 594 74 590 64 c 0
 577.333333333 34.6666666667 579.666666667 19 597 17 c 0
 605 16.3333333333 618.833333333 27.6666666667 638.5 51 c 0
 658.166666667 74.3333333333 670.333333333 92.3333333333 675 105 c 0
 678.333333333 115 705.833333333 156.333333333 757.5 229 c 0
 809.166666667 301.666666667 843.333333333 348.666666667 860 370 c 0
 876.666666667 390.666666667 902.166666667 427 936.5 479 c 0
 970.833333333 531 988 560.666666667 988 568 c 0
 988 575.333333333 985.666666667 580.5 981 583.5 c 0
 976.333333333 586.5 971 587.333333333 965 586 c 4
-62 70 m 0
 -63.3333333333 66.6666666667 -62.6666666667 61 -60 53 c 0
 -57.3333333333 45 -49.3333333333 36.5 -36 27.5 c 0
 -22.6666666667 18.5 -5.33333333333 13 16 11 c 0
 139.333333333 1 233 16.6666666667 297 58 c 0
 301 60.6666666667 312.166666667 67.8333333333 330.5 79.5 c 0
 348.833333333 91.1666666667 360.666666667 98.8333333333 366 102.5 c 0
 371.333333333 106.166666667 382.333333333 113.833333333 399 125.5 c 0
 415.666666667 137.166666667 428.333333333 146.666666667 437 154 c 0
 445.666666667 161.333333333 458 171.833333333 474 185.5 c 0
 490 199.166666667 504 212.166666667 516 224.5 c 0
 528 236.833333333 542.166666667 251.833333333 558.5 269.5 c 0
 574.833333333 287.166666667 591 306 607 326 c 0
 740.333333333 488 802.333333333 606.666666667 793 682 c 0
 789.666666667 707.333333333 778.833333333 726.666666667 760.5 740 c 0
 742.166666667 753.333333333 718.666666667 756.833333333 690 750.5 c 0
 661.333333333 744.166666667 633.333333333 726.333333333 606 697 c 0
 579.333333333 668.333333333 561.5 637.166666667 552.5 603.5 c 0
 543.5 569.833333333 540.666666667 541.833333333 544 519.5 c 0
 547.333333333 497.166666667 553.666666667 476.666666667 563 458 c 0
 565 453.333333333 570.333333333 441.833333333 579 423.5 c 0
 587.666666667 405.166666667 594.666666667 390.666666667 600 380 c 0
 605.333333333 369.333333333 613.5 354.833333333 624.5 336.5 c 0
 635.5 318.166666667 647 300.333333333 659 283 c 0
 683.666666667 247.666666667 716.166666667 207 756.5 161 c 0
 796.833333333 115 821.666666667 89.3333333333 831 84 c 0
 840.333333333 78 849.166666667 77.6666666667 857.5 83 c 0
 865.833333333 88.3333333333 869 98 867 112 c 0
 865.666666667 120.666666667 861.833333333 128.333333333 855.5 135 c 0
 849.166666667 141.666666667 838 151.5 822 164.5 c 0
 806 177.5 791 191.666666667 777 207 c 0
 769.666666667 215 755.833333333 228.833333333 735.5 248.5 c 0
 715.166666667 268.166666667 699.333333333 284.5 688 297.5 c 0
 676.666666667 310.5 662.833333333 330.666666667 646.5 358 c 0
 630.166666667 385.333333333 615.666666667 415.333333333 603 448 c 0
 593 474.666666667 585.666666667 498.666666667 581 520 c 0
 576.333333333 541.333333333 573.5 557.5 572.5 568.5 c 0
 571.5 579.5 572.666666667 590.166666667 576 600.5 c 0
 579.333333333 610.833333333 581.833333333 617 583.5 619 c 0
 585.166666667 621 588.333333333 625 593 631 c 0
 596.333333333 635 601.333333333 640.5 608 647.5 c 0
 614.666666667 654.5 623.5 663.5 634.5 674.5 c 0
 645.5 685.5 656.833333333 695 668.5 703 c 0
 680.166666667 711 691.833333333 717.666666667 703.5 723 c 0
 715.166666667 728.333333333 725.833333333 729.333333333 735.5 726 c 0
 745.166666667 722.666666667 752.333333333 714.666666667 757 702 c 0
 765 683.333333333 768 664.833333333 766 646.5 c 0
 764 628.166666667 760.666666667 613.5 756 602.5 c 0
 751.333333333 591.5 746 581.333333333 740 572 c 0
 734 562.666666667 731 557.666666667 731 557 c 0
 729.666666667 551 723 536.833333333 711 514.5 c 0
 699 492.166666667 677.166666667 459.5 645.5 416.5 c 0
 613.833333333 373.5 578.666666667 332.666666667 540 294 c 0
 395.333333333 150 290.666666667 70.3333333333 226 55 c 0
 186 45 142.833333333 39.5 96.5 38.5 c 0
 50.1666666667 37.5 18 41.3333333333 0 50 c 0
 -38.6666666667 70 -59.3333333333 76.6666666667 -62 70 c 0
EndSplineSet
Validated: 37
EndChar

StartChar: W
Encoding: 87 87 15
Width: 524
Flags: W
HStem: 242 40<-22.1895 42.2705> 716 44<145.315 209.707>
LayerCount: 2
Back
Fore
SplineSet
0 282 m 4
 -9.33333333333 283.333333333 -16.3333333333 277.833333333 -21 265.5 c 0
 -25.6666666667 253.166666667 -25.6666666667 245.333333333 -21 242 c 0
 -16.3333333333 239.333333333 -8.16666666667 238.666666667 3.5 240 c 0
 15.1666666667 241.333333333 23 243.333333333 27 246 c 0
 30.3333333333 248 42 259.166666667 62 279.5 c 0
 82 299.833333333 107.166666667 327.833333333 137.5 363.5 c 0
 167.833333333 399.166666667 193 432.666666667 213 464 c 0
 235 498.666666667 249.166666667 539.166666667 255.5 585.5 c 0
 261.833333333 631.833333333 257.666666667 672.5 243 707.5 c 0
 228.333333333 742.5 204.666666667 760 172 760 c 0
 147.717105263 760 128.607789496 752.362646566 114.672052698 737.087939698 c 0
 100.7363159 721.813232831 92.6268224345 703.337939698 90.3435723023 681.662060302 c 0
 88.0603221701 659.986180905 88.1385656352 638.961474037 90.5783026977 618.587939698 c 0
 93.0180397602 598.21440536 97.1586055276 581.351758794 103 568 c 0
 104.676028369 564.169078014 108.755014926 553.990775931 115.236959671 537.46509375 c 0
 121.718904415 520.93941157 127.640931302 507.216015736 133.003040329 496.29490625 c 0
 138.365149357 485.373796763 146.149789138 470.83052593 156.356959671 452.66509375 c 0
 166.564130203 434.49966157 179.44615709 415.336265737 195.003040329 395.17490625 c 0
 210.559923569 375.013546763 228.558910126 353.955244679 249 332 c 0
 281.666666667 296.666666667 304.833333333 259.166666667 318.5 219.5 c 0
 332.166666667 179.833333333 338.333333333 148.166666667 337 124.5 c 0
 335.666666667 100.833333333 331.666666667 82.3333333333 325 69 c 0
 321 61 314.666666667 53.3333333333 306 46 c 0
 297.333333333 38.6666666667 287.666666667 33 277 29 c 0
 266.333333333 25 254.666666667 24.8333333333 242 28.5 c 0
 229.333333333 32.1666666667 218 40.3333333333 208 53 c 0
 199.333333333 68.3333333333 194.833333333 83.5 194.5 98.5 c 0
 194.166666667 113.5 198.5 129.666666667 207.5 147 c 0
 216.5 164.333333333 224.833333333 178.5 232.5 189.5 c 0
 240.166666667 200.5 247.666666667 209.666666667 255 217 c 0
 257.666666667 219.666666667 269.666666667 232.333333333 291 255 c 0
 312.333333333 277.666666667 336.5 302.5 363.5 329.5 c 0
 390.5 356.5 416.333333333 381.666666667 441 405 c 0
 489.666666667 451 533.166666667 500.166666667 571.5 552.5 c 0
 609.833333333 604.833333333 627.333333333 645.666666667 624 675 c 0
 620.666666667 705 611.166666667 727.166666667 595.5 741.5 c 0
 579.833333333 755.833333333 562.333333333 761.666666667 543 759 c 0
 527.666666667 757 513.166666667 742.666666667 499.5 716 c 0
 485.833333333 689.333333333 477.333333333 666 474 646 c 0
 473.333333333 642.666666667 471.666666667 635 469 623 c 0
 466.333333333 611 464.333333333 601.333333333 463 594 c 0
 461.666666667 586.666666667 460.166666667 574.666666667 458.5 558 c 0
 456.833333333 541.333333333 457 526.666666667 459 514 c 0
 463.666666667 455.333333333 474 406 490 366 c 0
 502.666666667 334 515.166666667 308.666666667 527.5 290 c 0
 539.833333333 271.333333333 552 263.333333333 564 266 c 0
 578.111032532 269.135785007 589.069365865 278.09411834 596.875 292.875 c 0
 603.434216648 305.295644291 600.923997596 311.241462975 589.344342842 310.712456049 c 0
 587.730301099 310.638719891 585.948853485 310.401234541 584 310 c 0
 577.333333333 308.666666667 570.840714804 306.535954814 564.522144413 303.607864442 c 0
 560.174048138 301.869288147 557.333333333 301.5 556 302.5 c 0
 554.666666667 303.5 551.210330899 308.742005852 545.630992697 318.226017556 c 0
 543.210330899 322.742005852 541 326.666666667 539 330 c 0
 506.333333333 386.666666667 489.333333333 452 488 526 c 0
 487.333333333 570.666666667 492.5 614.166666667 503.5 656.5 c 0
 514.5 698.833333333 525.666666667 722 537 726 c 0
 552.333333333 731.333333333 567.333333333 729.666666667 582 721 c 0
 596.666666667 712.333333333 599.333333333 694.666666667 590 668 c 0
 587.333333333 661.333333333 584 651.333333333 580 638 c 0
 576 624.666666667 573 615.833333333 571 611.5 c 0
 569 607.166666667 565.666666667 600.166666667 561 590.5 c 0
 556.333333333 580.833333333 550.666666667 571.333333333 544 562 c 0
 537.333333333 552.666666667 528.666666667 541.333333333 518 528 c 0
 502 508 480.166666667 484 452.5 456 c 0
 424.833333333 428 402 405.833333333 384 389.5 c 0
 366 373.166666667 355 363.333333333 351 360 c 0
 346.333333333 356.666666667 333.166666667 344.166666667 311.5 322.5 c 0
 289.833333333 300.833333333 265.833333333 275.333333333 239.5 246 c 0
 213.166666667 216.666666667 197.666666667 195.333333333 193 182 c 0
 192.333333333 180.666666667 188.166666667 170.5 180.5 151.5 c 0
 172.833333333 132.5 168.166666667 118.166666667 166.5 108.5 c 0
 164.833333333 98.8333333333 163.5 86.1666666667 162.5 70.5 c 0
 161.5 54.8333333333 165.5 42 174.5 32 c 0
 183.5 22 197 14.3333333333 215 9 c 0
 265.666666667 -5 306.666666667 3.33333333333 338 34 c 0
 369.333333333 64.6666666667 377.666666667 112 363 176 c 0
 359.666666667 190.666666667 356 204.5 352 217.5 c 0
 348 230.5 343.333333333 242.666666667 338 254 c 0
 332.666666667 265.333333333 328 275.333333333 324 284 c 0
 320 292.666666667 314.666666667 301.5 308 310.5 c 0
 301.333333333 319.5 296.166666667 326.666666667 292.5 332 c 0
 288.833333333 337.333333333 283.333333333 343.666666667 276 351 c 0
 268.666666667 358.333333333 264 363.166666667 262 365.5 c 0
 260 367.833333333 255.333333333 372.333333333 248 379 c 2
 237 389 l 2
 217 407.666666667 192.166666667 445.833333333 162.5 503.5 c 0
 132.833333333 561.166666667 120.666666667 604.666666667 126 634 c 0
 132 666.666666667 138.333333333 688.333333333 145 699 c 0
 151.666666667 709.666666667 161.666666667 715.333333333 175 716 c 0
 191 716.666666667 205 705.666666667 217 683 c 0
 229 660.333333333 230.333333333 630.666666667 221 594 c 0
 211.666666667 555.333333333 196.666666667 515.333333333 176 474 c 0
 155.333333333 432.666666667 136.333333333 402 119 382 c 0
 94.3333333333 354 71 329.333333333 49 308 c 0
 32.3321968728 292.125901784 20.7591618279 283.501740082 14.2808948652 282.127514896 c 0
 10.2100398842 281.263970452 5.44974159578 281.221465486 0 282 c 4
EndSplineSet
Validated: 37
EndChar

StartChar: M
Encoding: 77 77 16
Width: 616
Flags: W
HStem: 10 44<457.293 521.685> 488 40<624.729 689.189>
LayerCount: 2
Back
Fore
SplineSet
667 488 m 4
 676.333333333 486.666666667 683.333333333 492.166666667 688 504.5 c 0
 692.666666667 516.833333333 692.666666667 524.666666667 688 528 c 0
 683.333333333 530.666666667 675.166666667 531.333333333 663.5 530 c 0
 651.833333333 528.666666667 644 526.666666667 640 524 c 0
 636.666666667 522 625 510.833333333 605 490.5 c 0
 585 470.166666667 559.833333333 442.166666667 529.5 406.5 c 0
 499.166666667 370.833333333 474 337.333333333 454 306 c 0
 432 271.333333333 417.833333333 230.833333333 411.5 184.5 c 0
 405.166666667 138.166666667 409.333333333 97.5 424 62.5 c 0
 438.666666667 27.5 462.333333333 10 495 10 c 0
 519 10 538 17.6666666667 552 33 c 0
 566 48.3333333333 574.166666667 66.8333333333 576.5 88.5 c 0
 578.833333333 110.166666667 578.833333333 131.166666667 576.5 151.5 c 0
 574.166666667 171.833333333 570 188.666666667 564 202 c 0
 562 206 557.833333333 216.166666667 551.5 232.5 c 0
 545.166666667 248.833333333 539.333333333 262.5 534 273.5 c 0
 528.666666667 284.5 520.833333333 299.166666667 510.5 317.5 c 0
 500.166666667 335.833333333 487.333333333 355 472 375 c 0
 456.666666667 395 438.666666667 416 418 438 c 0
 385.333333333 473.333333333 362.166666667 510.833333333 348.5 550.5 c 0
 334.833333333 590.166666667 328.666666667 621.833333333 330 645.5 c 0
 331.333333333 669.166666667 335.333333333 687.666666667 342 701 c 0
 346 709 352.333333333 716.666666667 361 724 c 0
 369.666666667 731.333333333 379.333333333 737 390 741 c 0
 400.666666667 745 412.333333333 745.166666667 425 741.5 c 0
 437.666666667 737.833333333 449 729.666666667 459 717 c 0
 467.666666667 701.666666667 472.166666667 686.5 472.5 671.5 c 0
 472.833333333 656.5 468.5 640.333333333 459.5 623 c 0
 450.5 605.666666667 442.166666667 591.5 434.5 580.5 c 0
 426.833333333 569.5 419.333333333 560.333333333 412 553 c 0
 409.333333333 550.333333333 397.333333333 537.666666667 376 515 c 0
 354.666666667 492.333333333 330.5 467.5 303.5 440.5 c 0
 276.5 413.5 250.666666667 388.333333333 226 365 c 0
 177.333333333 319 133.833333333 269.833333333 95.5 217.5 c 0
 57.1666666667 165.166666667 39.6666666667 124.333333333 43 95 c 0
 46.3333333333 65 55.8333333333 42.8333333333 71.5 28.5 c 0
 87.1666666667 14.1666666667 104.666666667 8.33333333333 124 11 c 0
 139.333333333 13 153.833333333 27.3333333333 167.5 54 c 0
 181.166666667 80.6666666667 189.666666667 104 193 124 c 0
 193.666666667 127.333333333 195.333333333 135 198 147 c 0
 200.666666667 159 202.666666667 168.666666667 204 176 c 0
 205.333333333 183.333333333 206.833333333 195.333333333 208.5 212 c 0
 210.166666667 228.666666667 210 243.333333333 208 256 c 0
 203.333333333 314.666666667 193 364 177 404 c 0
 164.333333333 436 151.833333333 461.333333333 139.5 480 c 0
 127.166666667 498.666666667 115 506.666666667 103 504 c 0
 88.8889674682 500.864214993 77.9306341348 491.90588166 70.125 477.125 c 0
 63.5657833517 464.704355709 66.0760024043 458.758537025 77.6556571579 459.287543951 c 0
 79.2696989013 459.361280109 81.0511465153 459.598765459 83 460 c 0
 89.6666666667 461.333333333 96.1592851955 463.464045186 102.477855587 466.392135558 c 0
 106.825951862 468.130711853 109.666666667 468.5 111 467.5 c 0
 112.333333333 466.5 115.789669101 461.257994148 121.369007303 451.773982444 c 0
 123.789669101 447.257994148 126 443.333333333 128 440 c 0
 160.666666667 383.333333333 177.666666667 318 179 244 c 0
 179.666666667 199.333333333 174.5 155.833333333 163.5 113.5 c 0
 152.5 71.1666666667 141.333333333 48 130 44 c 0
 114.666666667 38.6666666667 99.6666666667 40.3333333333 85 49 c 0
 70.3333333333 57.6666666667 67.6666666667 75.3333333333 77 102 c 0
 79.6666666667 108.666666667 83 118.666666667 87 132 c 0
 91 145.333333333 94 154.166666667 96 158.5 c 0
 98 162.833333333 101.333333333 169.833333333 106 179.5 c 0
 110.666666667 189.166666667 116.333333333 198.666666667 123 208 c 0
 129.666666667 217.333333333 138.333333333 228.666666667 149 242 c 0
 165 262 186.833333333 286 214.5 314 c 0
 242.166666667 342 265 364.166666667 283 380.5 c 0
 301 396.833333333 312 406.666666667 316 410 c 0
 320.666666667 413.333333333 333.833333333 425.833333333 355.5 447.5 c 0
 377.166666667 469.166666667 401.166666667 494.666666667 427.5 524 c 0
 453.833333333 553.333333333 469.333333333 574.666666667 474 588 c 0
 474.666666667 589.333333333 478.833333333 599.5 486.5 618.5 c 0
 494.166666667 637.5 498.833333333 651.833333333 500.5 661.5 c 0
 502.166666667 671.166666667 503.5 683.833333333 504.5 699.5 c 0
 505.5 715.166666667 501.5 728 492.5 738 c 0
 483.5 748 470 755.666666667 452 761 c 0
 401.333333333 775 360.333333333 766.666666667 329 736 c 0
 297.666666667 705.333333333 289.333333333 658 304 594 c 0
 307.333333333 579.333333333 311 565.5 315 552.5 c 0
 319 539.5 323.666666667 527.333333333 329 516 c 0
 334.333333333 504.666666667 339 494.666666667 343 486 c 0
 347 477.333333333 352.333333333 468.5 359 459.5 c 0
 365.666666667 450.5 370.833333333 443.333333333 374.5 438 c 0
 378.166666667 432.666666667 383.666666667 426.333333333 391 419 c 0
 398.333333333 411.666666667 403 406.833333333 405 404.5 c 0
 407 402.166666667 411.666666667 397.666666667 419 391 c 2
 430 381 l 2
 450 362.333333333 474.833333333 324.166666667 504.5 266.5 c 0
 534.166666667 208.833333333 546.333333333 165.333333333 541 136 c 0
 535 103.333333333 528.666666667 81.6666666667 522 71 c 0
 515.333333333 60.3333333333 505.333333333 54.6666666667 492 54 c 0
 476 53.3333333333 462 64.3333333333 450 87 c 0
 438 109.666666667 436.666666667 139.333333333 446 176 c 0
 455.333333333 214.666666667 470.333333333 254.666666667 491 296 c 0
 511.666666667 337.333333333 530.666666667 368 548 388 c 0
 572.666666667 416 596 440.666666667 618 462 c 0
 634.667803127 477.874098216 646.240838172 486.498259918 652.719105135 487.872485104 c 0
 656.789960116 488.736029548 661.550258404 488.778534514 667 488 c 4
EndSplineSet
Validated: 37
EndChar

StartChar: c
Encoding: 99 99 17
Width: 804
Flags: W
VStem: 46 31.5<41.739 129.139> 340 37<362.851 573.719> 689.5 53.5<394.385 453.653> 697 49<100.565 167.934>
LayerCount: 2
Back
Fore
SplineSet
715 474 m 0xe0
 712.333333333 476 708.166666667 474.333333333 702.5 469 c 0
 696.833333333 463.666666667 692.5 457 689.5 449 c 0
 686.5 441 687.333333333 432.333333333 692 423 c 0
 709.333333333 391.666666667 722.333333333 379.666666667 731 387 c 0
 736.333333333 391.666666667 740.333333333 402.166666667 743 418.5 c 0
 745.666666667 434.833333333 744 446.666666667 738 454 c 0
 731.333333333 461.333333333 723.666666667 468 715 474 c 0xe0
334 586 m 0
 328 584 324.833333333 580 324.5 574 c 0
 324.166666667 568 325.5 561.666666667 328.5 555 c 0
 331.5 548.333333333 334.5 539.666666667 337.5 529 c 0
 340.5 518.333333333 341.666666667 508 341 498 c 0
 341 488 340.833333333 476.833333333 340.5 464.5 c 0
 340.166666667 452.166666667 340 440.5 340 429.5 c 0
 340 418.5 338.333333333 405.333333333 335 390 c 0
 331.666666667 374.666666667 327 358.666666667 321 342 c 0
 291.666666667 262.666666667 263 201 235 157 c 0
 179 70.3333333333 140.333333333 26.6666666667 119 26 c 0
 113.666666667 26 107.833333333 28.3333333333 101.5 33 c 0
 95.1666666667 37.6666666667 89.6666666667 45 85 55 c 0
 80.3333333333 65 77.8333333333 76.3333333333 77.5 89 c 0
 77.1666666667 101.666666667 81.5 116.666666667 90.5 134 c 0
 99.5 151.333333333 113 169 131 187 c 0
 153.666666667 209.666666667 177.666666667 224.5 203 231.5 c 0
 228.333333333 238.5 251.833333333 238.333333333 273.5 231 c 0
 295.166666667 223.666666667 314.833333333 212.5 332.5 197.5 c 0
 350.166666667 182.5 364.666666667 164.666666667 376 144 c 0
 401.333333333 98.6666666667 440 61.8333333333 492 33.5 c 0
 544 5.16666666667 593 2.33333333333 639 25 c 0
 669 39.6666666667 692.666666667 56.8333333333 710 76.5 c 0
 727.333333333 96.1666666667 737.666666667 111.5 741 122.5 c 0
 744.333333333 133.5 746 144 746 154 c 0
 746 164 740.166666667 171.166666667 728.5 175.5 c 0
 716.833333333 179.833333333 708.666666667 177.333333333 704 168 c 0
 703.333333333 166.666666667 701 160.333333333 697 149 c 0xd0
 693 137.666666667 688.833333333 127.333333333 684.5 118 c 0
 680.166666667 108.666666667 674.333333333 98.5 667 87.5 c 0
 659.666666667 76.5 650.666666667 67.6666666667 640 61 c 0
 629.333333333 54.3333333333 617.666666667 50.6666666667 605 50 c 0
 566.333333333 48.6666666667 534 52.6666666667 508 62 c 0
 482 71.3333333333 454.666666667 92.6666666667 426 126 c 0
 418.666666667 134 407.166666667 147.666666667 391.5 167 c 0
 375.833333333 186.333333333 364.166666667 200.166666667 356.5 208.5 c 0
 348.833333333 216.833333333 338.833333333 226.666666667 326.5 238 c 0
 314.166666667 249.333333333 302.5 257.666666667 291.5 263 c 0
 280.5 268.333333333 269 271.333333333 257 272 c 0
 223 274.666666667 188.5 266.833333333 153.5 248.5 c 0
 118.5 230.166666667 93.3333333333 203.333333333 78 168 c 0
 65.3333333333 138.666666667 56.6666666667 117.5 52 104.5 c 0
 47.3333333333 91.5 45.3333333333 78.3333333333 46 65 c 0
 46.6666666667 51.6666666667 51.6666666667 39.3333333333 61 28 c 0
 111.666666667 -35.3333333333 175.666666667 -2.66666666667 253 126 c 0
 339 268.666666667 380.333333333 395 377 505 c 0
 376.333333333 540.333333333 372.333333333 564 365 576 c 0
 357.666666667 588 347.333333333 591.333333333 334 586 c 0
EndSplineSet
Validated: 37
EndChar

StartChar: d
Encoding: 100 100 18
Width: 502
Flags: W
VStem: 60.0868 19.9132<46.191 79.9997> 181 26.5<58.108 113.75> 187 35.5<77.7446 221.5 292 427.388> 405.5 43.5<10.9375 85.9966>
LayerCount: 2
Back
Fore
SplineSet
70 13 m 1x90
 70 13 63.9259259259 10.6790123457 51.7777777778 6.03703703704 c 0
 48.6666666667 3.79012345679 48.7407407407 1.77777777778 52 0 c 0
 54 -1.33333333333 56.1666666667 -2.83333333333 58.5 -4.5 c 0
 60.8333333333 -6.16666666667 62.5 -7.33333333333 63.5 -8 c 0
 64.5 -8.66666666667 65.5 -8.83333333333 66.5 -8.5 c 0
 67.5 -8.16666666667 68.6666666667 -7.33333333333 70 -6 c 0
 71.3333333333 -4 72 -1.5 72 1.5 c 0
 72 4.5 71.6666666667 7.16666666667 71 9.5 c 2
 70 13 l 1x90
449 22 m 0
 437.666666667 7.33333333333 428.333333333 5.66666666667 421 17 c 0
 417 23 411.833333333 38.8333333333 405.5 64.5 c 0
 399.166666667 90.1666666667 394.666666667 104.666666667 392 108 c 0
 386 117.333333333 377.833333333 128.5 367.5 141.5 c 0
 357.166666667 154.5 341 171 319 191 c 0
 297 211 277 224 259 230 c 0
 243 233.333333333 229.666666667 234.666666667 219 234 c 0
 208.333333333 233.333333333 198 229.166666667 188 221.5 c 0
 178 213.833333333 170.166666667 206.833333333 164.5 200.5 c 0
 158.833333333 194.166666667 153 186.833333333 147 178.5 c 0
 141 170.166666667 137 165 135 163 c 0
 127 155 115.833333333 136.166666667 101.5 106.5 c 0
 87.1666666667 76.8333333333 80 58 80 50 c 0
 80 43.2716883117 76.8106666667 41.8956883117 70.432 45.872 c 0
 59.6075590997 52.6197034184 56.159173872 63.0566183651 60.0868443168 77.1827448403 c 0
 60.3483865165 78.1233986562 60.6527717442 79.0624837094 61 80 c 0
 93.6666666667 167.333333333 128.666666667 222.666666667 166 246 c 0
 213.333333333 275.333333333 252.666666667 279.333333333 284 258 c 0
 356 208.666666667 401.333333333 158.666666667 420 108 c 0
 440.666666667 52 450.333333333 23.3333333333 449 22 c 0
210 429 m 4
 213.333333333 428.333333333 216 425.333333333 218 420 c 4
 220 414.666666667 221.166666667 407.666666667 221.5 399 c 4
 221.833333333 390.333333333 222.166666667 382.333333333 222.5 375 c 4
 222.833333333 367.666666667 222.833333333 359.666666667 222.5 351 c 4xb0
 222.166666667 342.333333333 222 337.666666667 222 337 c 4
 222 335.666666667 221.5 320.666666667 220.5 292 c 4
 219.5 263.333333333 218.833333333 239.166666667 218.5 219.5 c 4
 218.166666667 199.833333333 218.666666667 184.333333333 220 173 c 4
 221.333333333 168.333333333 223.166666667 164.833333333 225.5 162.5 c 4
 227.833333333 160.166666667 229.666666667 156.333333333 231 151 c 4
 231.666666667 149 231.333333333 145.5 230 140.5 c 4
 228.666666667 135.5 226.833333333 129.833333333 224.5 123.5 c 4
 222.166666667 117.166666667 219.5 110.5 216.5 103.5 c 4
 213.5 96.5 210.5 89.6666666667 207.5 83 c 4
 204.5 76.3333333333 201.5 70.3333333333 198.5 65 c 4
 195.5 59.6666666667 192.833333333 55.5 190.5 52.5 c 4
 188.166666667 49.5 186.666666667 48.3333333333 186 49 c 4
 182.666666667 50.3333333333 181 60.5 181 79.5 c 4xd0
 181 98.5 182.333333333 112.333333333 185 121 c 4
 186.333333333 125 187 221.333333333 187 410 c 4xb0
 187 419.333333333 188.666666667 425.166666667 192 427.5 c 4
 195.333333333 429.833333333 201.333333333 430.333333333 210 429 c 4
EndSplineSet
Validated: 37
EndChar

StartChar: g
Encoding: 103 103 19
Width: 564
Flags: W
LayerCount: 2
Back
Fore
SplineSet
368 278 m 4
 364.666666667 278 362 276.166666667 360 272.5 c 0
 358 268.833333333 357.333333333 264.5 358 259.5 c 0
 358.666666667 254.5 360.333333333 250.333333333 363 247 c 0
 365 245 379.166666667 229.5 405.5 200.5 c 0
 431.833333333 171.5 458.166666667 142.666666667 484.5 114 c 0
 510.833333333 85.3333333333 525.666666667 69 529 65 c 0
 531.666666667 61.6666666667 534.666666667 56.6666666667 538 50 c 0
 541.333333333 43.3333333333 544.333333333 38.3333333333 547 35 c 0
 549.666666667 31.6666666667 553 30.3333333333 557 31 c 0
 563.666666667 32.3333333333 571.833333333 37.3333333333 581.5 46 c 0
 591.166666667 54.6666666667 594.333333333 60.6666666667 591 64 c 0
 582.333333333 72.6666666667 574.666666667 78.6666666667 568 82 c 0
 548 92 531.333333333 105.333333333 518 122 c 0
 515.333333333 126 501 140.833333333 475 166.5 c 0
 449 192.166666667 431.333333333 210.666666667 422 222 c 0
 392.666666667 258.666666667 374.666666667 277.333333333 368 278 c 4
0 46 m 0
 -2.66666666667 40.6666666667 -4.83333333333 34.1666666667 -6.5 26.5 c 0
 -8.16666666667 18.8333333333 -9.16666666667 12.5 -9.5 7.5 c 2
 -10 0 l 1
 -7.33333333333 0.666666666667 -3.83333333333 1.5 0.5 2.5 c 0
 4.83333333333 3.5 10.3333333333 6.16666666667 17 10.5 c 0
 23.6666666667 14.8333333333 26.6666666667 19.6666666667 26 25 c 0
 24.6666666667 33.6666666667 42.5 62.6666666667 79.5 112 c 0
 116.5 161.333333333 141.666666667 190.333333333 155 199 c 0
 167 206.333333333 174.666666667 210.333333333 178 211 c 0
 181.333333333 211.666666667 184.666666667 210 188 206 c 0
 188.666666667 205.333333333 208 183.166666667 246 139.5 c 0
 284 95.8333333333 307.333333333 70.6666666667 316 64 c 0
 322 60 330 52.8333333333 340 42.5 c 0
 350 32.1666666667 358.833333333 23.1666666667 366.5 15.5 c 0
 374.166666667 7.83333333333 379.333333333 4 382 4 c 0
 384.666666667 4 389.166666667 9 395.5 19 c 0
 401.833333333 29 408.833333333 41.5 416.5 56.5 c 0
 424.166666667 71.5 430 82 434 88 c 0
 442.666666667 100.666666667 461.833333333 127.333333333 491.5 168 c 0
 521.166666667 208.666666667 539.333333333 232.666666667 546 240 c 0
 553.29098472 248.332553965 554.656483127 256.667556241 550.096495221 265.005006827 c 0
 544.372692101 275.470369161 534.340527028 271.802033552 520 254 c 0
 450.666666667 168 410.666666667 111 400 83 c 0
 390 57.6666666667 379.333333333 48.6666666667 368 56 c 0
 362 60 341 79.1666666667 305 113.5 c 0
 269 147.833333333 246.666666667 171.333333333 238 184 c 0
 234.666666667 189.333333333 230.166666667 196 224.5 204 c 0
 218.833333333 212 214.666666667 217.833333333 212 221.5 c 0
 209.333333333 225.166666667 207 229.166666667 205 233.5 c 0
 203 237.833333333 202 241.333333333 202 244 c 0
 202 252.804061066 194.68370207 253.277366595 180.05110621 245.419916589 c 0
 171.94314576 241.066082553 163.592777023 234.592777023 155 226 c 0
 151.666666667 222.666666667 142.5 213.833333333 127.5 199.5 c 0
 112.5 185.166666667 100.166666667 173 90.5 163 c 0
 80.8333333333 153 73.3333333333 144 68 136 c 0
 64 130 52.5 115.166666667 33.5 91.5 c 0
 14.5 67.8333333333 3.33333333333 52.6666666667 0 46 c 0
EndSplineSet
Validated: 37
EndChar

StartChar: G
Encoding: 71 71 20
Width: 890
Flags: W
LayerCount: 2
Back
Fore
SplineSet
937 296 m 0
 939 298.666666667 940.166666667 300.333333333 940.5 301 c 0
 940.833333333 301.666666667 938.666666667 302.666666667 934 304 c 0
 929.333333333 305.333333333 925.666666667 306.666666667 923 308 c 0
 919.666666667 310 912.666666667 311.5 902 312.5 c 0
 891.333333333 313.5 878.666666667 314.833333333 864 316.5 c 0
 849.333333333 318.166666667 838 319.666666667 830 321 c 0
 777.333333333 331.666666667 710.333333333 352 629 382 c 0
 603 391.333333333 577.166666667 403.166666667 551.5 417.5 c 0
 525.833333333 431.833333333 504.5 444.666666667 487.5 456 c 0
 470.5 467.333333333 437 490 387 524 c 0
 360.333333333 542 335.833333333 564.333333333 313.5 591 c 0
 291.166666667 617.666666667 274.5 641.166666667 263.5 661.5 c 0
 252.5 681.833333333 242.5 701.5 233.5 720.5 c 2
 220 749 l 2
 216 755 210 755.333333333 202 750 c 0
 194 744.666666667 190.666666667 738.666666667 192 732 c 0
 194 724.666666667 199.5 710.666666667 208.5 690 c 0
 217.5 669.333333333 232.166666667 643.666666667 252.5 613 c 0
 272.833333333 582.333333333 293.666666667 558.666666667 315 542 c 0
 325 534 340.166666667 521.5 360.5 504.5 c 0
 380.833333333 487.5 396.666666667 475 408 467 c 0
 419.333333333 459 437.833333333 447.333333333 463.5 432 c 0
 489.166666667 416.666666667 519.333333333 401 554 385 c 0
 634.666666667 347 746.666666667 311 890 277 c 0
 904 273.666666667 908.666666667 266.666666667 904 256 c 1
 910 264.5 l 2
 914 270.166666667 918.833333333 276.333333333 924.5 283 c 0
 930.166666667 289.666666667 934.333333333 294 937 296 c 0
800 633 m 0
 802 628.333333333 803.833333333 624.833333333 805.5 622.5 c 0
 807.166666667 620.166666667 808.666666667 618.666666667 810 618 c 0
 811.333333333 617.333333333 812.5 617.833333333 813.5 619.5 c 0
 814.5 621.166666667 815.666666667 624 817 628 c 0
 823.666666667 648 820.333333333 660.666666667 807 666 c 0
 801 668 794.5 667.166666667 787.5 663.5 c 0
 780.5 659.833333333 775.333333333 655.333333333 772 650 c 0
 747.333333333 609.333333333 731 555.333333333 723 488 c 0
 708.333333333 369.333333333 708 275.666666667 722 207 c 0
 723.333333333 201 726 186.166666667 730 162.5 c 0
 734 138.833333333 737.666666667 119.833333333 741 105.5 c 0
 744.333333333 91.1666666667 749 74.1666666667 755 54.5 c 0
 761 34.8333333333 768.166666667 19.1666666667 776.5 7.5 c 0
 784.833333333 -4.16666666667 794.333333333 -12.3333333333 805 -17 c 0
 824.482912686 -25.0019105674 831.195195758 -21.5162031949 825.136849216 -6.54287788258 c 0
 823.703843787 -3.00117614713 813.741138148 12.8278968914 795.248732298 40.944341233 c 0
 793.844320849 43.0796532438 793.094743417 44.4315394995 793 45 c 2
 787.5 56.5 l 2
 783.833333333 64.1666666667 779.5 74.6666666667 774.5 88 c 0
 769.5 101.333333333 764.5 117.166666667 759.5 135.5 c 0
 754.5 153.833333333 750.333333333 177.166666667 747 205.5 c 0
 743.666666667 233.833333333 741.666666667 263.666666667 741 295 c 0
 740.054589372 374.414492754 741.520733123 433.686488787 745.398431253 472.8159881 c 0
 749.276129383 511.945487413 755.809985632 543.673491379 765 568 c 0
 781.034037706 610.443040987 790.001265744 632.822194378 791.901684115 635.137460173 c 0
 794.993262986 638.903908091 797.692701615 638.191421367 800 633 c 0
109 59 m 0
 110.702978937 64.7901283861 108.14977027 64.9349088647 101.340373998 59.4343414358 c 0
 99.3396122189 57.8181445464 95.9431412495 54.8423690636 91.1509610893 50.5070149875 c 0
 81.8845745907 42.1239690387 75.8342542276 37.2882973762 73 36 c 0
 67.6666666667 33.3333333333 65.3333333333 28.5 66 21.5 c 0
 66.6666666667 14.5 69 9.33333333333 73 6 c 0
 75.6666666667 4 81.1666666667 4.83333333333 89.5 8.5 c 0
 97.8333333333 12.1666666667 106.833333333 16.5 116.5 21.5 c 0
 126.166666667 26.5 132.333333333 29.3333333333 135 30 c 0
 139 31.3333333333 151.333333333 37.8333333333 172 49.5 c 0
 192.666666667 61.1666666667 218 76.8333333333 248 96.5 c 0
 278 116.166666667 304 134.666666667 326 152 c 0
 360 178.666666667 394.833333333 213.666666667 430.5 257 c 0
 466.166666667 300.333333333 493.666666667 338.666666667 513 372 c 0
 538.333333333 416 562.833333333 469 586.5 531 c 0
 610.166666667 593 617.333333333 637.333333333 608 664 c 0
 598.338907146 690.787575642 588.141524957 700.730165419 577.407853434 693.827769333 c 0
 568.854546147 688.327478531 565.952070354 678.954359032 568.700426053 665.708410835 c 0
 569.199142247 663.304803152 569.965666896 661.068666207 571 659 c 0
 576.333333333 645 578.666666667 629.333333333 578 612 c 0
 577.333333333 594.666666667 575.666666667 583 573 577 c 0
 573 576.333333333 571.333333333 570.5 568 559.5 c 0
 564.666666667 548.5 560 535.166666667 554 519.5 c 0
 548 503.833333333 541 486.333333333 533 467 c 0
 525 447.666666667 514.5 426.5 501.5 403.5 c 0
 488.5 380.5 474.666666667 359 460 339 c 0
 445.333333333 319 429.166666667 299.166666667 411.5 279.5 c 0
 393.833333333 259.833333333 376.333333333 241.833333333 359 225.5 c 0
 341.666666667 209.166666667 326.666666667 195.333333333 314 184 c 0
 301.333333333 172.666666667 287.833333333 161 273.5 149 c 0
 259.166666667 137 250.666666667 130 248 128 c 0
 232.666666667 114.666666667 212.166666667 99.3333333333 186.5 82 c 0
 160.833333333 64.6666666667 144.333333333 54.6666666667 137 52 c 0
 132.333333333 50.6666666667 128.5 49.5 125.5 48.5 c 0
 122.5 47.5 119.333333333 47 116 47 c 0
 112.666666667 47 110.333333333 48 109 50 c 0
 107.666666667 52 107.666666667 55 109 59 c 0
EndSplineSet
Validated: 37
EndChar

StartChar: m
Encoding: 109 109 21
Width: 502
Flags: W
HStem: 19 28<157.105 169.953>
VStem: 363 42<130.82 176.996>
LayerCount: 2
Back
Fore
SplineSet
522 239 m 4
 504.666666667 216.333333333 480.333333333 193.333333333 449 170 c 0
 447 168.666666667 429.166666667 150.5 395.5 115.5 c 0
 361.833333333 80.5 341.666666667 61.3333333333 335 58 c 0
 331.666666667 56.6666666667 327.166666667 55 321.5 53 c 0
 315.833333333 51 311.333333333 49.3333333333 308 48 c 0
 304.666666667 46.6666666667 301.833333333 44.8333333333 299.5 42.5 c 0
 297.166666667 40.1666666667 296 37.3333333333 296 34 c 0
 297.333333333 16.6666666667 303 5.33333333333 313 0 c 0
 315.666666667 -0.666666666667 318.166666667 -0.666666666667 320.5 0 c 0
 322.833333333 0.666666666667 325.833333333 2.5 329.5 5.5 c 0
 333.166666667 8.5 336.5 11.5 339.5 14.5 c 0
 342.5 17.5 345.833333333 21.3333333333 349.5 26 c 0
 353.166666667 30.6666666667 356.166666667 34.5 358.5 37.5 c 0
 360.833333333 40.5 363.166666667 43.6666666667 365.5 47 c 0
 367.833333333 50.3333333333 369.333333333 52.3333333333 370 53 c 0
 374 58.3333333333 397 79.8333333333 439 117.5 c 0
 481 155.166666667 504.666666667 175 510 177 c 0
 516.666666667 179.666666667 524.333333333 184.5 533 191.5 c 0
 541.666666667 198.5 546.333333333 204.333333333 547 209 c 0
 549.197610875 219.988054375 547.198326924 230.803202523 541.002148148 241.445444444 c 0
 535.958500594 250.108157283 529.624451211 249.293009135 522 239 c 4
69 162 m 0
 68.3333333333 157.333333333 70.5 150.333333333 75.5 141 c 0
 80.5 131.666666667 85.6666666667 126.333333333 91 125 c 0
 94.3333333333 124.333333333 96.8333333333 124.833333333 98.5 126.5 c 0
 100.166666667 128.166666667 102.166666667 131 104.5 135 c 0
 106.833333333 139 109.333333333 142.333333333 112 145 c 0
 122 153.666666667 133.833333333 163.166666667 147.5 173.5 c 0
 161.166666667 183.833333333 183 194.166666667 213 204.5 c 0
 243 214.833333333 269.333333333 216 292 208 c 0
 314.666666667 200 331.5 189.666666667 342.5 177 c 0
 353.5 164.333333333 360.333333333 153.5 363 144.5 c 0
 365.666666667 135.5 368.333333333 130.666666667 371 130 c 0
 377.666666667 128.666666667 385 130.166666667 393 134.5 c 0
 401 138.833333333 405 143.333333333 405 148 c 0
 405 153.333333333 401.333333333 162.833333333 394 176.5 c 0
 386.666666667 190.166666667 373.5 204.833333333 354.5 220.5 c 0
 335.5 236.166666667 313.666666667 244.666666667 289 246 c 0
 238.333333333 248.666666667 187.666666667 233.333333333 137 200 c 0
 131.666666667 196.666666667 123.166666667 192.333333333 111.5 187 c 0
 99.8333333333 181.666666667 89.8333333333 176.833333333 81.5 172.5 c 0
 73.1666666667 168.166666667 69 164.666666667 69 162 c 0
-42 224 m 0
 -47.3333333333 218 -47.3333333333 211.166666667 -42 203.5 c 0
 -36.6666666667 195.833333333 -24.3333333333 184 -5 168 c 0
 49.6666666667 122 93.3333333333 81 126 45 c 0
 144.666666667 24.3333333333 156.333333333 15.6666666667 161 19 c 0
 178.333333333 31 182.666666667 40.3333333333 174 47 c 0
 168.666666667 51 144.333333333 71.3333333333 101 108 c 0
 57.6666666667 144.666666667 33 165.666666667 27 171 c 0
 25.6666666667 172.333333333 22.6666666667 175.5 18 180.5 c 0
 13.3333333333 185.5 8.33333333333 190.666666667 3 196 c 0
 -2.33333333333 201.333333333 -8 206.666666667 -14 212 c 0
 -20 217.333333333 -25.5 221.166666667 -30.5 223.5 c 0
 -35.5 225.833333333 -39.3333333333 226 -42 224 c 0
EndSplineSet
Validated: 41
EndChar

StartChar: n
Encoding: 110 110 22
Width: 556
Flags: W
VStem: 72.5 17.5<51.625 61.9684>
LayerCount: 2
Back
Fore
SplineSet
79 67 m 5
 76.3333333333 64.3333333333 74.1666666667 61.6666666667 72.5 59 c 0
 70.8333333333 56.3333333333 72 53.6666666667 76 51 c 0
 80 51 83.3333333333 51.8333333333 86 53.5 c 0
 88.6666666667 55.1666666667 90 56.8333333333 90 58.5 c 0
 90 60.1666666667 89.6666666667 61.3333333333 89 62 c 2
 79 67 l 5
64 41 m 1
 64 41 57.359375 37.3704427083 44.078125 30.111328125 c 0
 38.734375 25.646484375 37.375 21.609375 40 18 c 0
 41.3333333333 16 42.8333333333 13.3333333333 44.5 10 c 0
 46.1666666667 6.66666666667 47.5 4.66666666667 48.5 4 c 0
 49.5 3.33333333333 51 3 53 3 c 0
 55 3 57.3333333333 4.33333333333 60 7 c 0
 72.6666666667 19 77.3333333333 28.3333333333 74 35 c 1
 64 41 l 1
105 192 m 0
 97.6666666667 179.333333333 87.6666666667 160.5 75 135.5 c 0
 62.3333333333 110.5 55.6666666667 94.6666666667 55 88 c 0
 54.3333333333 85.3333333333 53.5 82.3333333333 52.5 79 c 0
 51.5 75.6666666667 50.5 72.6666666667 49.5 70 c 0
 48.5 67.3333333333 47.8333333333 64.6666666667 47.5 62 c 0
 47.1666666667 59.3333333333 47.3333333333 57.3333333333 48 56 c 0
 48.6666666667 54.6666666667 50.3333333333 54 53 54 c 0
 57 54 60.8333333333 56.8333333333 64.5 62.5 c 0
 68.1666666667 68.1666666667 71.3333333333 74.8333333333 74 82.5 c 0
 76.6666666667 90.1666666667 78.3333333333 94.3333333333 79 95 c 2
 86.5 108.5 l 2
 91.5 117.5 97.3333333333 127.5 104 138.5 c 0
 110.666666667 149.5 118.333333333 161.666666667 127 175 c 0
 135.666666667 188.333333333 144.166666667 200.333333333 152.5 211 c 0
 160.833333333 221.666666667 169.166666667 230.5 177.5 237.5 c 0
 185.833333333 244.5 193 247.666666667 199 247 c 0
 219 244.333333333 235.166666667 234 247.5 216 c 0
 259.833333333 198 268.666666667 166.333333333 274 121 c 0
 279.333333333 76.3333333333 295.833333333 44.6666666667 323.5 26 c 0
 351.166666667 7.33333333333 376.333333333 2.66666666667 399 12 c 0
 409.563060415 16.1696291113 418.585411199 20.0155881855 426.067052351 23.5378772226 c 0
 433.548693503 27.0601662597 443.159991936 32.9042481113 454.900947649 41.0701227774 c 0
 466.641903363 49.2359974436 475.947938263 57.8559155919 482.819052351 66.9298772226 c 0
 489.690166438 76.0038388532 495.221464871 87.8479207048 499.412947649 102.462122777 c 0
 503.604430427 117.07632485 504.466781211 132.922283924 502 150 c 0
 495.151263762 197.414327803 485.748454091 233.716849147 473.791570989 258.907564034 c 0
 461.834687886 284.09827892 442.904164223 304.129090909 417 319 c 0
 365.47708478 348.577969849 331.2985988 362.105024001 314.464542061 359.581162457 c 0
 309.158227553 358.785608341 307.670046866 355.591887522 310 350 c 0
 313.333333333 342.666666667 330.333333333 332.166666667 361 318.5 c 0
 391.666666667 304.833333333 410.333333333 292.333333333 417 281 c 2
 433 255.5 l 2
 443.666666667 238.5 451 226.166666667 455 218.5 c 0
 459 210.833333333 463 199.333333333 467 184 c 0
 471 168.666666667 472.333333333 154.666666667 471 142 c 0
 461.666666667 67.3333333333 429 35 373 45 c 0
 360.333333333 47 348.833333333 52.8333333333 338.5 62.5 c 0
 328.166666667 72.1666666667 320.166666667 82.1666666667 314.5 92.5 c 0
 308.833333333 102.833333333 303.5 116.666666667 298.5 134 c 0
 293.5 151.333333333 290.333333333 163.833333333 289 171.5 c 0
 287.666666667 179.166666667 286 190.666666667 284 206 c 0
 280.666666667 227.333333333 271.333333333 243.833333333 256 255.5 c 0
 240.666666667 267.166666667 225.666666667 272.666666667 211 272 c 0
 199 271.333333333 186.166666667 267.166666667 172.5 259.5 c 0
 158.833333333 251.833333333 148 243 140 233 c 0
 136 228.333333333 130.333333333 222.166666667 123 214.5 c 0
 115.666666667 206.833333333 109.666666667 199.333333333 105 192 c 0
EndSplineSet
Validated: 41
EndChar

StartChar: V
Encoding: 86 86 23
Width: 1066
Flags: W
HStem: 258 31<460.896 518 554 616.333> 680 52<159.534 285.216>
VStem: 426 36<162.797 465.402> 952.5 52.5<10.2537 78.5652>
LayerCount: 2
Back
Fore
SplineSet
82 24 m 0
 83.3333333333 29.3333333333 85.1666666667 35 87.5 41 c 0
 89.8333333333 47 93.3333333333 53.5 98 60.5 c 0
 102.666666667 67.5 106.666666667 73.6666666667 110 79 c 0
 113.333333333 84.3333333333 118.5 91.3333333333 125.5 100 c 0
 132.5 108.666666667 137.5 114.833333333 140.5 118.5 c 0
 143.5 122.166666667 149.166666667 128.833333333 157.5 138.5 c 0
 165.833333333 148.166666667 171 154 173 156 c 0
 189.666666667 175.333333333 207 190.166666667 225 200.5 c 0
 243 210.833333333 269 222 303 234 c 0
 349 250 420.666666667 258 518 258 c 0
 535.333333333 258 551.5 257.333333333 566.5 256 c 0
 581.5 254.666666667 601.333333333 252.166666667 626 248.5 c 0
 650.666666667 244.833333333 669.666666667 242 683 240 c 0
 716.333333333 236 747.333333333 226.5 776 211.5 c 0
 804.666666667 196.5 838.333333333 174 877 144 c 0
 898.333333333 127.333333333 914.833333333 109.833333333 926.5 91.5 c 0
 938.166666667 73.1666666667 946.833333333 56.3333333333 952.5 41 c 0
 958.166666667 25.6666666667 963.666666667 15.3333333333 969 10 c 0
 980.333333333 0 989.333333333 -1 996 7 c 0
 1002.66666667 15 1005.66666667 25.3333333333 1005 38 c 0
 1004.33333333 51.3333333333 977.666666667 89.6666666667 925 153 c 0
 907 174.333333333 855.333333333 209 770 257 c 0
 760.666666667 262.333333333 747.333333333 266.833333333 730 270.5 c 0
 712.666666667 274.166666667 697 276.666666667 683 278 c 0
 669 279.333333333 647.666666667 281.166666667 619 283.5 c 0
 590.333333333 285.833333333 568.666666667 287.666666667 554 289 c 0
 522 289.666666667 500.5 290.666666667 489.5 292 c 0
 478.5 293.333333333 458 292 428 288 c 0
 398 284 375.833333333 280.666666667 361.5 278 c 0
 347.166666667 275.333333333 320.333333333 270.333333333 281 263 c 0
 201.666666667 247.666666667 134 188.666666667 78 86 c 0
 76.6666666667 84 74.3333333333 79.8333333333 71 73.5 c 0
 67.6666666667 67.1666666667 65.1666666667 62.5 63.5 59.5 c 0
 61.8333333333 56.5 59.3333333333 51.5 56 44.5 c 0
 52.6666666667 37.5 50.6666666667 32.5 50 29.5 c 0
 49.3333333333 26.5 48.3333333333 22.1666666667 47 16.5 c 0
 45.6666666667 10.8333333333 46.3333333333 7.33333333333 49 6 c 0
 52.3333333333 0 56 -4 60 -6 c 0
 64 -8 68 -6.5 72 -1.5 c 0
 76 3.5 79.3333333333 12 82 24 c 0
948 719 m 0
 926 711.666666667 897.166666667 697.333333333 861.5 676 c 0
 825.833333333 654.666666667 796.666666667 631 774 605 c 0
 733.333333333 558.333333333 689.333333333 469.666666667 642 339 c 0
 640 333 633.666666667 316 623 288 c 0
 612.333333333 260 604 237.5 598 220.5 c 0
 592 203.5 585.666666667 182.333333333 579 157 c 0
 572.333333333 131.666666667 568 109.333333333 566 90 c 0
 561.912689816 48.1050706133 567.074033044 19.9169530193 581.484029686 5.43564721801 c 0
 591.694288787 -4.82513826578 600.541340526 -0.325161501447 608.025184903 18.935577511 c 0
 609.513090909 22.7649154575 610.838029275 27.1197229538 612 32 c 0
 614.666666667 42.6666666667 619.166666667 72.1666666667 625.5 120.5 c 0
 631.833333333 168.833333333 640.166666667 215.833333333 650.5 261.5 c 0
 660.833333333 307.166666667 674.333333333 344.333333333 691 373 c 0
 701 389.666666667 717.166666667 421 739.5 467 c 0
 761.833333333 513 781.333333333 548 798 572 c 0
 814.666666667 596 833 612.666666667 853 622 c 0
 871 630.666666667 891 638.666666667 913 646 c 0
 935 653.333333333 952.333333333 659.333333333 965 664 c 0
 977.666666667 668.666666667 986 673 990 677 c 0
 993.333333333 682.333333333 994.166666667 688.833333333 992.5 696.5 c 0
 990.833333333 704.166666667 985.666666667 710.666666667 977 716 c 0
 968.333333333 721.333333333 958.666666667 722.333333333 948 719 c 0
189 732 m 1
 186.333333333 730.666666667 183.333333333 729.333333333 180 728 c 0
 176.666666667 726.666666667 171 723.5 163 718.5 c 0
 155 713.5 151.166666667 709.333333333 151.5 706 c 0
 151.833333333 702.666666667 154.333333333 698.666666667 159 694 c 0
 170.333333333 688.666666667 184.833333333 685.333333333 202.5 684 c 0
 220.166666667 682.666666667 231 681.333333333 235 680 c 0
 235.666666667 680 240.166666667 679 248.5 677 c 0
 256.833333333 675 263.5 673.166666667 268.5 671.5 c 0
 273.5 669.833333333 281 666.333333333 291 661 c 0
 301 655.666666667 309.833333333 649.166666667 317.5 641.5 c 0
 325.166666667 633.833333333 333.666666667 623.166666667 343 609.5 c 0
 352.333333333 595.833333333 361 580.333333333 369 563 c 0
 393 509 408.833333333 468.5 416.5 441.5 c 0
 424.166666667 414.5 427.333333333 388.666666667 426 364 c 0
 424.666666667 328.666666667 421 276.833333333 415 208.5 c 0
 409 140.166666667 403.666666667 98.6666666667 399 84 c 0
 384.333333333 40 385.666666667 18 403 18 c 0
 412.333333333 18 420.333333333 21.3333333333 427 28 c 0
 433.666666667 34.6666666667 436.333333333 41.6666666667 435 49 c 0
 434.333333333 51.6666666667 436.5 68.8333333333 441.5 100.5 c 0
 446.5 132.166666667 451.5 173.166666667 456.5 223.5 c 0
 461.5 273.833333333 463.333333333 321 462 365 c 0
 459.333333333 437 444.666666667 503 418 563 c 0
 391.333333333 623 360.333333333 664.666666667 325 688 c 0
 280.683481113 716.941985071 235.35014778 731.608651738 189 732 c 1
EndSplineSet
Validated: 37
EndChar

StartChar: w
Encoding: 119 119 24
Width: 597
Flags: W
HStem: 0 12<35.1875 61.9006> 197 43<350.189 389.874>
VStem: 38 24<0.84668 9.2725>
LayerCount: 2
Back
Fore
SplineSet
364 240 m 0
 358.666666667 237.333333333 353.666666667 232 349 224 c 0
 344.333333333 216 344.666666667 209.333333333 350 204 c 0
 354 202 359.5 199.666666667 366.5 197 c 0
 373.5 194.333333333 378.333333333 191.666666667 381 189 c 0
 381.666666667 188.333333333 392.166666667 176.5 412.5 153.5 c 0
 432.833333333 130.5 453.333333333 107.833333333 474 85.5 c 0
 494.666666667 63.1666666667 507.333333333 50.6666666667 512 48 c 0
 516.666666667 45.3333333333 523.333333333 39.8333333333 532 31.5 c 0
 540.666666667 23.1666666667 546.666666667 18.6666666667 550 18 c 0
 554.666666667 17.3333333333 557.833333333 19.1666666667 559.5 23.5 c 0
 561.166666667 27.8333333333 562 32.3333333333 562 37 c 0
 562 42.3333333333 534 70.3333333333 478 121 c 0
 441.333333333 154.333333333 417 180.333333333 405 199 c 0
 399.666666667 207 392.333333333 216.333333333 383 227 c 0
 373.666666667 237.666666667 367.333333333 242 364 240 c 0
128 115 m 1
 145.333333333 101 157.666666667 91.6666666667 165 87 c 0
 205.666666667 61 233.333333333 47.6666666667 248 47 c 0
 289.333333333 45 317 46 331 50 c 0
 348.333333333 54.6666666667 366.666666667 66 386 84 c 0
 393.333333333 91.3333333333 401.833333333 101.5 411.5 114.5 c 0
 421.166666667 127.5 426 135.666666667 426 139 c 0
 426 144.787799058 422.795208242 150.492809507 416.385624727 156.115031346 c 0
 412.03013062 159.935490823 408.901589045 159.563813707 407 155 c 0
 393 121 371.333333333 99 342 89 c 0
 284 69.6666666667 239.666666667 71 209 93 c 0
 200.333333333 99 192.5 105.5 185.5 112.5 c 0
 178.5 119.5 174.166666667 124.5 172.5 127.5 c 0
 170.833333333 130.5 168 133.166666667 164 135.5 c 0
 160 137.833333333 156.666666667 137.333333333 154 134 c 0
 142.866408739 128.741162191 134.199742073 122.407828858 128 115 c 1
38 12 m 1
 32.6666666667 4 33.6666666667 0 41 0 c 0
 55.1046323291 0.725623582766 62.1046323291 2.72562358277 62 6 c 0
 59.9723668981 8.61574074074 51.9723668981 10.6157407407 38 12 c 1
226 238 m 0
 224 237.333333333 215.333333333 229.166666667 200 213.5 c 0
 184.666666667 197.833333333 167.666666667 179.666666667 149 159 c 0
 130.333333333 138.333333333 117.333333333 122.666666667 110 112 c 0
 103.333333333 102.666666667 95.6666666667 92.5 87 81.5 c 0
 78.3333333333 70.5 71.3333333333 61.5 66 54.5 c 0
 60.6666666667 47.5 57 41.3333333333 55 36 c 0
 50.4462827225 22.3388481675 50.3022827225 16.0028481675 54.568 16.992 c 0
 58.2098738739 17.8364924925 65.0205405405 24.1724924925 75 36 c 0
 75.6666666667 36.6666666667 87.3333333333 51 110 79 c 0
 132.666666667 107 151.666666667 129.5 167 146.5 c 0
 182.333333333 163.5 193.666666667 174.666666667 201 180 c 0
 212.333333333 188 222.333333333 197.166666667 231 207.5 c 0
 239.666666667 217.833333333 244 224.666666667 244 228 c 0
 244 230.666666667 241.666666667 233.333333333 237 236 c 0
 232.333333333 238.666666667 228.666666667 239.333333333 226 238 c 0
EndSplineSet
Validated: 37
EndChar

StartChar: v
Encoding: 118 118 26
Width: 414
Flags: W
HStem: 202 32<198.172 235.889>
LayerCount: 2
Back
Fore
SplineSet
209 454 m 1
 201 395 l 2
 201.666666667 394.333333333 203.833333333 392.5 207.5 389.5 c 0
 211.166666667 386.5 214.166666667 385.333333333 216.5 386 c 0
 218.833333333 386.666666667 221.666666667 389.333333333 225 394 c 0
 227 397.333333333 230.5 401 235.5 405 c 0
 240.5 409 242.5 411.666666667 241.5 413 c 0
 240.5 414.333333333 239 420 237 430 c 0
 233.666666667 437.333333333 229.666666667 443 225 447 c 0
 220.333333333 451 216.5 453.166666667 213.5 453.5 c 2
 209 454 l 1
18 21 m 0
 6.93063227599 8.80110495722 5.92992984799 3.22678158527 14.997892716 4.27702988416 c 0
 17.8559835038 4.60805296307 22.432405822 5.81982651265 28.7271596704 7.91235053291 c 2
 33 9 l 1
 79.787390614 58.7138595851 l 1
 80.67137834 59.686905794 l 1
 81.5578890206 60.6628275236 l 1
 82.4468355039 61.6415196989 l 1
 83.3381322134 62.6228791196 l 1
 84.2316950856 63.606804385 l 1
 85.12744151 64.5931958228 l 1
 86.025290272 65.5819554191 l 1
 86.9251614971 66.5729867531 l 1
 87.8269765981 67.5661949326 l 1
 88.7306582235 68.5614865328 l 1
 89.6361302088 69.5587695372 l 1
 90.9471658322 71.0027567961 l 2
 154.111941046 140.573239328 191.796219102 180.905653729 204 192 c 0
 211.333333333 198.666666667 217.666666667 202 223 202 c 0
 228.333333333 202 231.666666667 200.333333333 233 197 c 2
 235 192 l 1
 318.333333333 70.6666666667 364.333333333 8.33333333333 373 5 c 0
 386.462884776 -0.178032606277 393.137492187 -0.256031976721 393.023822233 4.76600188867 c 0
 392.98392359 6.52875733384 391.642649513 8.94009003761 389 12 c 0
 380.333333333 22 363.833333333 46.6666666667 339.5 86 c 0
 315.166666667 125.333333333 292.166666667 159.833333333 270.5 189.5 c 0
 248.833333333 219.166666667 232.333333333 234 221 234 c 0
 212.333333333 234 195.833333333 221.5 171.5 196.5 c 0
 147.166666667 171.5 117 137.666666667 81 95 c 0
 45 52.3333333333 24 27.6666666667 18 21 c 0
EndSplineSet
Validated: 41
EndChar

StartChar: X
Encoding: 88 88 27
Width: 956
Flags: W
HStem: 14 63.7726<143.63 171.297> 732 15.5<447.345 498.153>
VStem: 576 36<533.453 638>
LayerCount: 2
Back
Fore
SplineSet
607 128 m 5
 607 128 605.12345679 123.555555556 601.37037037 114.666666667 c 0
 601.197530864 112.074074074 602.740740741 111.518518519 606 113 c 0
 609.333333333 114.333333333 612 116.166666667 614 118.5 c 0
 616 120.833333333 617 122.833333333 617 124.5 c 0
 617 126.166666667 616.333333333 127.333333333 615 128 c 2
 607 128 l 5
167 76 m 0
 153.666666667 60.6666666667 138.666666667 51 122 47 c 0
 113.333333333 45 107 43.5 103 42.5 c 0
 99 41.5 93.5 40 86.5 38 c 0
 79.5 36 74.6666666667 34 72 32 c 0
 69.3333333333 30 68.6666666667 28 70 26 c 0
 70.6666666667 25.3333333333 71.3333333333 24 72 22 c 0
 72.6666666667 20 73.1666666667 18.8333333333 73.5 18.5 c 0
 73.8333333333 18.1666666667 74.6666666667 17.5 76 16.5 c 0
 77.3333333333 15.5 79 15 81 15 c 0
 83 15 85.6666666667 14.8333333333 89 14.5 c 0
 92.3333333333 14.1666666667 96.3333333333 14 101 14 c 2
 184 14 l 2
 190.666666667 14 198 13.3333333333 206 12 c 0
 214 10.6666666667 219.833333333 10.3333333333 223.5 11 c 0
 227.166666667 11.6666666667 231.333333333 14 236 18 c 0
 238.666666667 20.6666666667 240.833333333 23 242.5 25 c 0
 244.166666667 27 245.166666667 28.5 245.5 29.5 c 0
 245.833333333 30.5 246.5 31.3333333333 247.5 32 c 0
 248.5 32.6666666667 249.833333333 33 251.5 33 c 0
 254 33 254 33 259 33 c 0
 264.333333333 33 269.833333333 33.8333333333 275.5 35.5 c 0
 281.166666667 37.1666666667 286.5 39.3333333333 291.5 42 c 0
 296.5 44.6666666667 299.333333333 46 300 46 c 0
 306 48 311.666666667 49.3333333333 317 50 c 0
 326.333333333 51.3333333333 346.833333333 63 378.5 85 c 0
 410.166666667 107 436.333333333 129.666666667 457 153 c 0
 481 180.333333333 506.833333333 221.833333333 534.5 277.5 c 0
 562.166666667 333.166666667 580.333333333 384.333333333 589 431 c 0
 589.666666667 435 591.833333333 446 595.5 464 c 0
 599.166666667 482 601.5 494.166666667 602.5 500.5 c 0
 603.5 506.833333333 605.333333333 518.333333333 608 535 c 0
 610.666666667 551.666666667 612 564 612 572 c 0
 612 580 612.166666667 591 612.5 605 c 0
 612.833333333 619 611.666666667 630 609 638 c 0
 605 650 605 650 600 665 c 0
 596.666666667 675 591.666666667 683.5 585 690.5 c 0
 578.333333333 697.5 570.666666667 703.666666667 562 709 c 0
 522 735.666666667 489 748.5 463 747.5 c 0
 437 746.5 419.666666667 727.333333333 411 690 c 0
 391.666666667 608 384.666666667 536.333333333 390 475 c 0
 398.666666667 379.666666667 418 304.333333333 448 249 c 0
 518.666666667 119.666666667 610.666666667 42.3333333333 724 17 c 0
 818.240230993 -4.00896869265 868.983030893 -10.4221918331 876.228399699 -2.23966942149 c 0
 878.082697019 -0.145527663169 878.673230452 4.26769547733 878 11 c 0
 876.982222723 21.1777727666 875.606129429 26.5111060999 873.871720117 27 c 0
 873.871720117 27 868.247813411 27 857 27 c 0
 855.666666667 27 850.5 26.8333333333 841.5 26.5 c 0
 832.5 26.1666666667 825.5 26.1666666667 820.5 26.5 c 0
 815.5 26.8333333333 809.166666667 27.3333333333 801.5 28 c 0
 793.833333333 28.6666666667 787.333333333 29.8333333333 782 31.5 c 0
 776.666666667 33.1666666667 772.333333333 35.6666666667 769 39 c 0
 766.333333333 41.6666666667 763.666666667 44.6666666667 761 48 c 0
 758.333333333 51.3333333333 756.333333333 53.6666666667 755 55 c 0
 753 57 753 57 751 59 c 0
 749.666666667 60.3333333333 748.333333333 60.8333333333 747 60.5 c 0
 745.666666667 60.1666666667 744.333333333 59 743 57 c 0
 741 54.3333333333 739.5 51.5 738.5 48.5 c 0
 737.5 45.5 736.666666667 43.3333333333 736 42 c 0
 735.333333333 40.6666666667 734.333333333 40.6666666667 733 42 c 0
 719 53.3333333333 706.333333333 62.3333333333 695 69 c 0
 693.666666667 69.6666666667 693 71.5 693 74.5 c 0
 693 77.5 692.833333333 79.5 692.5 80.5 c 0
 692.166666667 81.5 690 81.3333333333 686 80 c 0
 678.666666667 76 669 77.3333333333 657 84 c 0
 653.666666667 86 649.5 89.8333333333 644.5 95.5 c 0
 639.5 101.166666667 635.5 105.833333333 632.5 109.5 c 0
 629.5 113.166666667 627.666666667 114.333333333 627 113 c 0
 626.333333333 111.666666667 626.333333333 109.333333333 627 106 c 0
 627.666666667 102.666666667 627.666666667 100 627 98 c 0
 626.333333333 96 624.333333333 95.6666666667 621 97 c 0
 613 99.6666666667 598.666666667 110 578 128 c 0
 524.666666667 174 482 250 450 356 c 0
 418 462 407 553 417 629 c 0
 419 643.666666667 420.666666667 654.333333333 422 661 c 0
 423.333333333 667.666666667 426 678.333333333 430 693 c 0
 434 707.666666667 439.666666667 718.166666667 447 724.5 c 0
 454.333333333 730.833333333 463 733.333333333 473 732 c 0
 496.333333333 728 518.666666667 716.5 540 697.5 c 0
 561.333333333 678.5 573.333333333 658 576 636 c 0
 582.666666667 575.333333333 580 518 568 464 c 0
 553.333333333 398.666666667 536 342.333333333 516 295 c 0
 489.333333333 232.333333333 459.666666667 187 427 159 c 0
 423.666666667 155.666666667 415.5 148.333333333 402.5 137 c 0
 389.5 125.666666667 379.666666667 117.333333333 373 112 c 0
 366.333333333 106.666666667 356.833333333 99.8333333333 344.5 91.5 c 0
 332.166666667 83.1666666667 319.833333333 76.6666666667 307.5 72 c 0
 295.166666667 67.3333333333 282 64 268 62 c 0
 232 56.6666666667 204.666666667 49.3333333333 186 40 c 0
 180 36.6666666667 174.666666667 37.3333333333 170 42 c 0
 168.666666667 44.6666666667 168.166666667 46.3333333333 168.5 47 c 0
 169 48 169 48 171.5 53 c 0
 173.166666667 56.3333333333 174.333333333 59.3333333333 175 62 c 0
 177.442384494 70.955409812 176.208176525 76.2129413961 171.297376093 77.7725947522 c 0
 169.810702303 78.2447572436 168.378243605 77.6538923262 167 76 c 0
189 766 m 0
 179 764 175.833333333 750.666666667 179.5 726 c 0
 183.166666667 701.333333333 189.333333333 683 198 671 c 0
 202 665.666666667 211 655.5 225 640.5 c 0
 239 625.5 251.666666667 611.666666667 263 599 c 0
 274.333333333 586.333333333 280 578.333333333 280 575 c 0
 280.666666667 566.333333333 287 558.333333333 299 551 c 1
 312 539 l 2
 320.666666667 531 330 523.666666667 340 517 c 0
 350 510.333333333 364.666666667 502.833333333 384 494.5 c 0
 403.333333333 486.166666667 423.833333333 481.333333333 445.5 480 c 0
 467.166666667 478.666666667 494 480 526 484 c 0
 572.666666667 492 611.666666667 503.833333333 643 519.5 c 0
 674.333333333 535.166666667 695.166666667 548.333333333 705.5 559 c 0
 715.833333333 569.666666667 727.333333333 584.333333333 740 603 c 0
 743.333333333 608.333333333 754 622.833333333 772 646.5 c 0
 790 670.166666667 803.666666667 689.5 813 704.5 c 0
 822.333333333 719.5 827 730.333333333 827 737 c 0
 827 740.518256392 827.541063355 745.982301327 828.623190066 753.392134805 c 0
 829.990595754 762.75540839 829.807471683 767.467439649 828.073817854 767.528228582 c 0
 825.123182281 767.631689831 816.431909663 758.122280304 802 739 c 0
 797.333333333 733 787 718.5 771 695.5 c 0
 755 672.5 741.666666667 654.333333333 731 641 c 0
 720.333333333 627.666666667 705.833333333 611.833333333 687.5 593.5 c 0
 669.166666667 575.166666667 650.666666667 560.666666667 632 550 c 0
 590.666666667 527.333333333 544.666666667 517.5 494 520.5 c 0
 443.333333333 523.5 398.666666667 537 360 561 c 0
 298 599.666666667 259.666666667 634.333333333 245 665 c 0
 241.666666667 671 225 700.666666667 195 754 c 0
 194.333333333 755.333333333 194.5 756.833333333 195.5 758.5 c 0
 196.5 760.166666667 197.666666667 761.5 199 762.5 c 0
 200.333333333 763.5 200.333333333 764.333333333 199 765 c 0
 197.666666667 765.666666667 194.333333333 766 189 766 c 0
EndSplineSet
Validated: 37
EndChar

StartChar: Y
Encoding: 89 89 28
Width: 274
Flags: W
VStem: 155.5 37.5<10.9881 282.743> 166 31.5<133.091 221 419 616.362> 175 31<404.007 600.5 701 751.397>
LayerCount: 2
Back
Fore
SplineSet
201 749 m 4x20
 195.36960028 763.537377706 189.769570586 764.436616899 184.199910917 751.697717579 c 0
 181.399970306 745.293706622 180 738.061134096 180 730 c 0
 180 720.666666667 178.333333333 677.5 175 600.5 c 0x20
 171.666666667 523.5 169.666666667 482.666666667 169 478 c 0
 169 476 168.666666667 458.333333333 168 425 c 0
 167.333333333 391.666666667 166.666666667 352.833333333 166 308.5 c 0x40
 165.333333333 264.166666667 164.333333333 230 163 206 c 0
 162.333333333 192.666666667 161.333333333 176.833333333 160 158.5 c 0
 158.666666667 140.166666667 157.666666667 125.333333333 157 114 c 0
 156.333333333 102.666666667 155.833333333 91 155.5 79 c 0
 155.166666667 67 155.5 57 156.5 49 c 0
 157.5 41 159 35 161 31 c 0
 172.7619699 9.43638851617 180.730311234 1.50653251617 184.905024 7.210432 c 0
 185.397691736 7.8835626806 185.762683736 8.8134186806 186 10 c 0
 186 11.3333333333 187.333333333 13.5 190 16.5 c 0
 192.666666667 19.5 193.666666667 25.6666666667 193 35 c 0x80
 192.333333333 43 192.666666667 74.8333333333 194 130.5 c 0
 195.333333333 186.166666667 196 216.333333333 196 221 c 0
 196 225 196.5 245.5 197.5 282.5 c 0x40
 198.5 319.5 199.666666667 365 201 419 c 0
 202.333333333 473 203.333333333 517 204 551 c 0
 204 567.666666667 204.333333333 587.666666667 205 611 c 0
 205.666666667 634.333333333 206 651.833333333 206 663.5 c 0
 206 681 206 681 206 701 c 0
 206 714.333333333 205.5 724.666666667 204.5 732 c 0
 203.5 739.333333333 202.333333333 745 201 749 c 4x20
392 717 m 0
 390.666666667 717 386.333333333 710 379 696 c 0
 371.666666667 682 363.5 666.5 354.5 649.5 c 0
 345.5 632.5 339 621.333333333 335 616 c 0
 323 600 304.5 573.166666667 279.5 535.5 c 0
 254.5 497.833333333 242.333333333 476.666666667 243 472 c 0
 243.666666667 465.333333333 245.5 458.5 248.5 451.5 c 0
 251.5 444.5 254.666666667 442 258 444 c 0
 268 450 274.333333333 459 277 471 c 0
 278.333333333 476.333333333 294.833333333 503.833333333 326.5 553.5 c 0
 358.166666667 603.166666667 377.333333333 630.666666667 384 636 c 0
 398.666666667 646.666666667 407.333333333 653.666666667 410 657 c 0
 412.666666667 660.333333333 414 666.666666667 414 676 c 0
 414 676.666666667 418.166666667 679.666666667 426.5 685 c 0
 434.833333333 690.333333333 443.5 696 452.5 702 c 0
 461.5 708 466.666666667 712 468 714 c 0
 470 718 470.666666667 722.333333333 470 727 c 0
 469.333333333 731.666666667 467.666666667 734.666666667 465 736 c 0
 463.666666667 736.666666667 463.166666667 737.833333333 463.5 739.5 c 0
 463.833333333 741.166666667 464.5 742.666666667 465.5 744 c 2
 467 746 l 2
 467 747.333333333 466.666666667 748.666666667 466 750 c 0
 465.333333333 751.333333333 464 753.333333333 462 756 c 0
 460 758.666666667 457.666666667 758.666666667 455 756 c 0
 453.666666667 754.666666667 449 748.166666667 441 736.5 c 0
 433 724.833333333 426.666666667 718.666666667 422 718 c 0
 417.333333333 717.333333333 411.333333333 717 404 717 c 0
 393 717 393 717 392 717 c 0
-47 756 m 0
 -54.6550389997 758.70177847 -56.2109811533 752.72087701 -51.6678264608 738.05729562 c 0
 -50.265798446 733.532080588 -45.7098562924 721.846315381 -38 703 c 0
 -32.6666666667 689.666666667 -10.6666666667 645.833333333 28 571.5 c 0
 66.6666666667 497.166666667 89 456.666666667 95 450 c 0
 103.988463145 439.628696372 114.385939696 434.663079421 126.192429654 435.103149147 c 0
 132.970315093 435.35578496 135.239505208 438.654735245 133 445 c 0
 131.666666667 449.666666667 123.5 466.166666667 108.5 494.5 c 0
 93.5 522.833333333 85.3333333333 540 84 546 c 0
 82.6666666667 553.333333333 78.8333333333 562.666666667 72.5 574 c 0
 66.1666666667 585.333333333 61.3333333333 592.333333333 58 595 c 0
 56.6666666667 596.333333333 51.6666666667 606.333333333 43 625 c 0
 34.3333333333 643.666666667 27.3333333333 656.333333333 22 663 c 0
 18.6666666667 667 12.1666666667 676.666666667 2.5 692 c 0
 -7.16666666667 707.333333333 -16.6666666667 721.333333333 -26 734 c 0
 -35.3333333333 746.666666667 -42.3333333333 754 -47 756 c 0
EndSplineSet
Validated: 41
EndChar

StartChar: B
Encoding: 66 66 29
Width: 738
Flags: W
HStem: 331.5 23.5<282.124 385.348>
VStem: 76 32<-10.5236 42.7184> 558 23<658.996 724.749>
LayerCount: 2
Back
Fore
SplineSet
108 22 m 2
 108 20 107.833333333 17.6666666667 107.5 15 c 0
 107.166666667 12.3333333333 106.666666667 8.16666666667 106 2.5 c 0
 105.333333333 -3.16666666667 104.333333333 -7.66666666667 103 -11 c 0
 101.666666667 -14.3333333333 100 -15.6666666667 98 -15 c 0
 94 -13 89.3333333333 -8.5 84 -1.5 c 0
 78.6666666667 5.5 76 10 76 12 c 0
 76 12.6666666667 76.5 16.5 77.5 23.5 c 0
 78.5 30.5 79 37 79 43 c 0
 79 101 91 163.333333333 115 230 c 0
 132.333333333 278 155.666666667 323.166666667 185 365.5 c 0
 214.333333333 407.833333333 243.333333333 436.666666667 272 452 c 0
 316 475.333333333 363.333333333 481.333333333 414 470 c 0
 428 467.333333333 449 454.5 477 431.5 c 0
 505 408.5 528.333333333 382.666666667 547 354 c 0
 555 342 562 330.5 568 319.5 c 0
 574 308.5 579.333333333 297 584 285 c 0
 588.666666667 273 592.166666667 263.833333333 594.5 257.5 c 0
 596.833333333 251.166666667 600 241.333333333 604 228 c 0
 608 214.666666667 610.333333333 206.666666667 611 204 c 0
 632.333333333 136.666666667 644.666666667 88 648 58 c 0
 648.666666667 54 649.833333333 51.3333333333 651.5 50 c 0
 653.166666667 48.6666666667 654.833333333 48.1666666667 656.5 48.5 c 0
 658.166666667 48.8333333333 659.5 48.5 660.5 47.5 c 0
 661.5 46.5 661.333333333 44.3333333333 660 41 c 0
 658.666666667 37.6666666667 658 30.6666666667 658 20 c 0
 658 9.33333333333 657.166666667 1.16666666667 655.5 -4.5 c 0
 653.833333333 -10.1666666667 650.333333333 -11.3333333333 645 -8 c 0
 627.666666667 2.66666666667 620 13 622 23 c 0
 624.666666667 40.3333333333 617 83.6666666667 599 153 c 0
 575.666666667 243.666666667 553.666666667 301.333333333 533 326 c 0
 530 330 530 330 516.5 348 c 0
 507.5 360 499.333333333 370.166666667 492 378.5 c 0
 484.666666667 386.833333333 475.833333333 396.333333333 465.5 407 c 0
 455.166666667 417.666666667 444.5 426.166666667 433.5 432.5 c 0
 422.5 438.833333333 411.666666667 442.666666667 401 444 c 0
 341.666666667 450.666666667 296.666666667 441.333333333 266 416 c 0
 246.666666667 400 226.833333333 378 206.5 350 c 0
 186.166666667 322 170.666666667 295.333333333 160 270 c 0
 136 213.333333333 121.666666667 169.666666667 117 139 c 2
 108 22 l 2
70 710 m 0
 71.3333333333 709.333333333 72.1666666667 708.166666667 72.5 706.5 c 0
 72.8333333333 704.833333333 73.1666666667 702.166666667 73.5 698.5 c 0
 73.8333333333 694.833333333 74.3333333333 691.666666667 75 689 c 0
 78.3333333333 677.666666667 96.3333333333 633.666666667 129 557 c 0
 137 539 156.5 509 187.5 467 c 0
 218.5 425 242.666666667 396.333333333 260 381 c 0
 278 365.666666667 299.5 357 324.5 355 c 0
 349.5 353 372 358 392 370 c 0
 424.666666667 388.666666667 461.333333333 440 502 524 c 0
 521.333333333 564 540 624.666666667 558 706 c 1
 560.328230549 731.472420664 566.661563882 737.805753997 577 725 c 0
 579.666666667 719.666666667 581 712.333333333 581 703 c 0
 581 693.666666667 580 683.666666667 578 673 c 0
 576 662.333333333 572.833333333 650 568.5 636 c 0
 564.166666667 622 560.166666667 609.333333333 556.5 598 c 0
 552.833333333 586.666666667 548.5 573.666666667 543.5 559 c 0
 538.5 544.333333333 534.666666667 533 532 525 c 0
 526 506.333333333 514.166666667 483.5 496.5 456.5 c 0
 478.833333333 429.5 461.166666667 405 443.5 383 c 0
 425.833333333 361 416.666666667 349.333333333 416 348 c 0
 411.333333333 340 394.5 334.5 365.5 331.5 c 0
 336.5 328.5 307.333333333 331.333333333 278 340 c 0
 267.333333333 344 255.666666667 351.333333333 243 362 c 0
 230.333333333 372.666666667 217.333333333 386.666666667 204 404 c 0
 190.666666667 421.333333333 179.666666667 436.5 171 449.5 c 0
 162.333333333 462.5 151.666666667 478.833333333 139 498.5 c 0
 126.333333333 518.166666667 118.666666667 530 116 534 c 0
 92 570 72.6666666667 616.666666667 58 674 c 0
 54 686.666666667 53.1666666667 695.666666667 55.5 701 c 0
 57.8333333333 706.333333333 60.1666666667 709.5 62.5 710.5 c 0
 64.8333333333 711.5 67.3333333333 711.333333333 70 710 c 0
EndSplineSet
Validated: 37
EndChar

StartChar: L
Encoding: 76 76 30
Width: 934
Flags: W
HStem: 0 36<360.072 401.5 487.5 662.92> 17 39<634.831 833.312>
VStem: 69 45<23.7343 78.2715> 310.5 49.5<6.5 40> 567.5 51.066<484.6 538.797>
LayerCount: 2
Back
Fore
SplineSet
601 545 m 4xb8
 589.666666667 541 578.5 531.666666667 567.5 517 c 0
 556.5 502.333333333 546.833333333 487.166666667 538.5 471.5 c 0
 530.166666667 455.833333333 525.666666667 447.333333333 525 446 c 0
 515 434.666666667 485.666666667 380.333333333 437 283 c 0
 435.666666667 279.666666667 424.833333333 263.333333333 404.5 234 c 0
 384.166666667 204.666666667 372.666666667 187 370 181 c 0
 332.666666667 95.6666666667 315 47.3333333333 317 36 c 0
 317.666666667 32 316.5 26.5 313.5 19.5 c 0
 310.5 12.5 309.5 8.16666666667 310.5 6.5 c 0
 311.5 4.83333333333 317.333333333 2.5 328 -0.5 c 0
 338.666666667 -3.5 357.666666667 -3.33333333333 385 0 c 0xb8
 409.666666667 1.33333333333 443.833333333 2.66666666667 487.5 4 c 0
 531.166666667 5.33333333333 566 6.83333333333 592 8.5 c 0
 618 10.1666666667 638 12.6666666667 652 16 c 0
 668 20 700.166666667 19.8333333333 748.5 15.5 c 0
 796.833333333 11.1666666667 822 11.6666666667 824 17 c 1
 860.052287582 42.2366013072 864.718954248 55.2366013072 838 56 c 0x78
 824.666666667 56.6666666667 774.166666667 54.1666666667 686.5 48.5 c 0
 598.833333333 42.8333333333 552 40 546 40 c 0
 543.333333333 40 525.166666667 39.3333333333 491.5 38 c 0
 457.833333333 36.6666666667 427.833333333 36 401.5 36 c 0
 375.166666667 36 361.333333333 37.3333333333 360 40 c 0
 356.712453535 45.9726378774 361.045786868 63.3059712107 373 92 c 0
 415 197.333333333 444.666666667 261.333333333 462 284 c 0
 468 292 477 305.666666667 489 325 c 0
 501 344.333333333 512.333333333 361.166666667 523 375.5 c 0
 533.666666667 389.833333333 542.666666667 399.333333333 550 404 c 0
 560 410 570.833333333 424.833333333 582.5 448.5 c 0
 594.166666667 472.166666667 600.666666667 484.666666667 602 486 c 0
 608.422360176 490.281573451 613.944359342 501.690036179 618.565997497 520.225388185 c 0
 623.297583114 539.201690959 619.600104645 547.979148627 607.473562089 546.557761188 c 0
 605.526323811 546.329519707 603.368469781 545.810265978 601 545 c 4xb8
545 770 m 0
 542.333333333 768.666666667 533.833333333 760.5 519.5 745.5 c 0
 505.166666667 730.5 487.166666667 709.333333333 465.5 682 c 0
 443.833333333 654.666666667 425 628 409 602 c 0
 275.666666667 382.666666667 204.666666667 265.666666667 196 251 c 0
 190 241 176 218.166666667 154 182.5 c 0
 132 146.833333333 112.333333333 114.666666667 95 86 c 0
 77.6666666667 57.3333333333 69 41.3333333333 69 38 c 0
 68.3333333333 33.3333333333 71 28.5 77 23.5 c 0
 83 18.5 89.8333333333 17.1666666667 97.5 19.5 c 0
 105.166666667 21.8333333333 110.666666667 29.6666666667 114 43 c 0
 120.666666667 69 128.333333333 89.6666666667 137 105 c 0
 138.333333333 107.666666667 162.333333333 147.833333333 209 225.5 c 0
 255.666666667 303.166666667 281.666666667 347 287 357 c 0
 345 461 377.333333333 514.666666667 384 518 c 0
 386 518.666666667 392.333333333 526.166666667 403 540.5 c 0
 413.666666667 554.833333333 425 570 437 586 c 0
 449 602 456.666666667 612 460 616 c 0
 463.333333333 619.333333333 478.166666667 640.666666667 504.5 680 c 0
 530.833333333 719.333333333 546.333333333 740.333333333 551 743 c 0
 554.333333333 746.333333333 556 750.166666667 556 754.5 c 0
 556 758.833333333 554.666666667 762.833333333 552 766.5 c 0
 549.333333333 770.166666667 547 771.333333333 545 770 c 0
EndSplineSet
Validated: 41
EndChar

StartChar: R
Encoding: 82 82 31
Width: 616
Flags: W
HStem: -7 35<78.0948 220.288> 0 9.24627<267.862 285.67>
VStem: 325 26<167.5 506.704> 417 28.5<237.37 401.875> 505 44<-2.875 24.4844>
LayerCount: 2
Back
Fore
SplineSet
534 28 m 1xb8
 532 27.3333333333 529.666666667 26.1666666667 527 24.5 c 0
 524.333333333 22.8333333333 520 19.8333333333 514 15.5 c 0
 508 11.1666666667 505 7.66666666667 505 5 c 0
 505 2.33333333333 506.666666667 -0.333333333333 510 -3 c 0
 517.333333333 -5.66666666667 523.833333333 -6.66666666667 529.5 -6 c 0
 535.166666667 -5.33333333333 539.833333333 -3.83333333333 543.5 -1.5 c 0
 547.166666667 0.833333333333 549 3 549 5 c 0
 549 7 547.833333333 9.83333333333 545.5 13.5 c 0
 543.166666667 17.1666666667 540.666666667 20.5 538 23.5 c 2
 534 28 l 1xb8
400 106 m 1
 400 106 401.656 110.32 404.968 118.96 c 0
 407.842666667 122.773333333 411.186666667 123.12 415 120 c 0
 427.666666667 110 429.666666667 103 421 99 c 0
 419 98.3333333333 416.166666667 98.5 412.5 99.5 c 0
 408.833333333 100.5 405.833333333 101.833333333 403.5 103.5 c 2
 400 106 l 1
458 54 m 0
 458.666666667 53.3333333333 459.666666667 52.5 461 51.5 c 0
 462.333333333 50.5 464.833333333 48.6666666667 468.5 46 c 0
 472.166666667 43.3333333333 475 40.8333333333 477 38.5 c 0
 479 36.1666666667 481 33.5 483 30.5 c 0
 485 27.5 485 25 483 23 c 0
 479.666666667 17 472.333333333 13.6666666667 461 13 c 0
 449.666666667 12.3333333333 439 14.6666666667 429 20 c 0
 407.666666667 32 390 50 376 74 c 0
 341.333333333 134.666666667 324.333333333 198.666666667 325 266 c 0
 325 282 324.5 303.166666667 323.5 329.5 c 0
 322.5 355.833333333 322.166666667 375.666666667 322.5 389 c 0
 322.833333333 402.333333333 325.5 422.833333333 330.5 450.5 c 0
 335.5 478.166666667 343.333333333 510.333333333 354 547 c 0
 374 615.666666667 402.833333333 666.833333333 440.5 700.5 c 0
 478.166666667 734.166666667 516 754.666666667 554 762 c 0
 589.333333333 768.666666667 634.166666667 765.833333333 688.5 753.5 c 0
 742.833333333 741.166666667 782.333333333 720 807 690 c 0
 811.666666667 684.666666667 817.833333333 677.333333333 825.5 668 c 0
 833.166666667 658.666666667 838.5 652 841.5 648 c 0
 844.5 644 848.666666667 638.666666667 854 632 c 0
 859.333333333 625.333333333 863 620.333333333 865 617 c 0
 867 613.666666667 869.5 609.333333333 872.5 604 c 0
 875.5 598.666666667 877.333333333 594.166666667 878 590.5 c 0
 878.666666667 586.833333333 879.333333333 582.666666667 880 578 c 0
 880.666666667 573.333333333 880.666666667 568.333333333 880 563 c 0
 878.666666667 541.666666667 874.5 520.333333333 867.5 499 c 0
 860.5 477.666666667 854 466 848 464 c 0
 843.333333333 462.666666667 838.833333333 463.666666667 834.5 467 c 0
 830.166666667 470.333333333 827.5 475.166666667 826.5 481.5 c 0
 825.5 487.833333333 827.666666667 495.333333333 833 504 c 0
 845 523.333333333 851 541 851 557 c 0
 851 573.666666667 843.166666667 596.833333333 827.5 626.5 c 0
 811.833333333 656.166666667 787.666666667 680 755 698 c 0
 717.666666667 718 678.333333333 730.833333333 637 736.5 c 0
 595.666666667 742.166666667 562 739.333333333 536 728 c 0
 505.333333333 715.333333333 475.833333333 696.333333333 447.5 671 c 0
 419.166666667 645.666666667 399 617 387 585 c 0
 367 531.666666667 355.666666667 473.333333333 353 410 c 0
 351.666666667 380 351 334 351 272 c 0
 351 242.666666667 354.666666667 209.166666667 362 171.5 c 0
 369.333333333 133.833333333 379.666666667 109 393 97 c 0
 412.199264452 79.1330298892 433.865931118 64.7996965559 458 54 c 0
286 12 m 1
 286 2 283.333333333 -2 278 0 c 0
 276.79793963 0.415670346777 275.683804 0.823345822713 274.657593112 1.22302642781 c 0
 266.17428446 4.52703925131 263.758648884 7.20145450712 267.410686385 9.24627219524 c 2x78
 286 12 l 1
285 549 m 1
 320 532 l 2
 362 509.333007812 395 481.666992188 419 449 c 0
 429 435.666992188 436 420.833007812 440 404.5 c 0
 444 388.166992188 445.833007812 374.333007812 445.5 363 c 0
 445.166992188 351.666992188 444 335.166992188 442 313.5 c 0
 440 291.833007812 438.666992188 275 438 263 c 0
 437.333007812 231.666992188 417.666992188 188.333007812 379 133 c 0
 340.333007812 77.6669921875 305.333333333 48 286 32 c 0
 284.957859499 31.139101325 283.613295671 29.7621622918 281.966308518 27.8691829006 c 0
 280.319321364 25.9762035094 278.82211935 24.2922660268 277.474702475 22.817370453 c 0
 276.127285599 21.3424748792 274.695820516 19.9964176017 273.180307225 18.7791986204 c 0
 271.664793933 17.5619796391 270.205924174 17.0063030187 268.803697948 17.1121687592 c 0
 267.401471722 17.2180344997 266.133572406 18.0976171908 265 19.7509168325 c 0
 262.739759383 21.0961173724 260.418165948 21.8303481146 258.035219697 21.9536090591 c 0
 255.652273445 22.0768700037 251.489086576 21.1817658906 245.54565909 19.2682967198 c 0
 239.602231604 17.354827549 234.199841452 15.4342441704 229.338488635 13.5065465839 c 0
 224.477135818 11.5788489974 218.437932535 9.23664194301 211.220878787 6.47992542078 c 0
 204.003825038 3.72320889856 197.930198776 1.5632337583 193 0 c 0x78
 170.333333333 -5.33333333333 148.833333333 -7.66666666667 128.5 -7 c 0xb8
 108.166666667 -6.33333333333 92.6666666667 -4 82 0 c 0x78
 78 1.33333333333 75.5 2.66666666667 74.5 4 c 0
 73.5 5.33333333333 73.3333333333 6.66666666667 74 8 c 0
 74.6666666667 9.33333333333 75.3333333333 11.1666666667 76 13.5 c 0
 76.6666666667 15.8333333333 76.6666666667 18.3333333333 76 21 c 0
 75.3333333333 23 76 24.6666666667 78 26 c 0
 80 27.3333333333 83.5 28.1666666667 88.5 28.5 c 0
 93.5 28.8333333333 98.5 29 103.5 29 c 0
 108.5 29 115.5 28.8333333333 124.5 28.5 c 0
 133.5 28.1666666667 141 28 147 28 c 0xb8
 175 28 206.333333333 34 241 46 c 0
 275.666666667 58 311.666992188 73.3330078125 337 104 c 0
 363 135.333007812 382.5 171.166992188 395.5 211.5 c 0
 408.5 251.833007812 415.666992188 288 417 320 c 0
 418.333007812 348 417.333007812 367.5 414 378.5 c 0
 410.666992188 389.5 398.333007812 411 377 443 c 0
 363.666992188 463 351.166992188 478.333007812 339.5 489 c 0
 327.833007812 499.666992188 313.5 509.166992188 296.5 517.5 c 0
 279.5 525.833007812 269 531.333007812 265 534 c 0
 251.23046875 542.797851562 249.1640625 548.0546875 258.803710938 549.771484375 c 0
 276.267578125 549.256835938 285 549 285 549 c 1
EndSplineSet
Validated: 37
EndChar

StartChar: Q
Encoding: 81 81 32
Width: 850
Flags: W
HStem: -5.5 35.5<302.655 461 648.5 753.336> 420.5 34.5<378.544 491 629 660.716>
VStem: 123 33<127.459 288.874> 419.5 39.5<248.158 279.968> 494 12.4401<679.28 691.134>
LayerCount: 2
Back
Fore
SplineSet
605 538 m 4
 601 538 597.666666667 536.333333333 595 533 c 0
 592.333333333 529.666666667 589.833333333 525.333333333 587.5 520 c 0
 585.166666667 514.666666667 583.333333333 511 582 509 c 0
 581.333333333 508.333333333 557.666666667 470.833333333 511 396.5 c 0
 464.333333333 322.166666667 439 283.333333333 435 280 c 0
 433.666666667 279.333333333 431.833333333 278.166666667 429.5 276.5 c 0
 427.166666667 274.833333333 425.5 273.5 424.5 272.5 c 0
 423.5 271.5 422.333333333 270.166666667 421 268.5 c 0
 419.666666667 266.833333333 419.166666667 265.333333333 419.5 264 c 0
 419.833333333 262.666666667 420.666666667 261 422 259 c 0
 423.333333333 257 425.666666667 254.666666667 429 252 c 0
 439 246 446.166666667 244.666666667 450.5 248 c 0
 454.833333333 251.333333333 457.666666667 256.666666667 459 264 c 0
 460.333333333 272.666666667 467 287.333333333 479 308 c 0
 487.666666667 323.333333333 510.666666667 359.833333333 548 417.5 c 0
 585.333333333 475.166666667 606 505.666666667 610 509 c 0
 612.666666667 511 614.333333333 514.5 615 519.5 c 0
 615.666666667 524.5 615.166666667 528.833333333 613.5 532.5 c 0
 611.833333333 536.166666667 609 538 605 538 c 4
89 40 m 0
 83.96 34.96 81.44 25.24 81.44 10.84 c 0
 81.44 2.93777777778 83.6266666667 0.991111111111 88 5 c 0
 90.6666666667 7.66666666667 103.333333333 25.5 126 58.5 c 0
 148.666666667 91.5 172.666666667 126.5 198 163.5 c 0
 223.333333333 200.5 247.833333333 236.5 271.5 271.5 c 0
 295.166666667 306.5 307.333333333 324.666666667 308 326 c 0
 313.333333333 333.333333333 343.333333333 382.333333333 398 473 c 0
 452.666666667 563.666666667 482 612.666666667 486 620 c 0
 495.602751536 637.833681424 502.416112418 657.942903813 506.440082645 680.327667168 c 0
 508.787026239 693.383374342 506.415024241 697.005411987 499.324076652 691.193780104 c 0
 497.771517365 689.921326325 495.996825148 688.190066291 494 686 c 0
 484.666666667 676 473.166666667 658.333333333 459.5 633 c 0
 445.833333333 607.666666667 431.333333333 579.166666667 416 547.5 c 0
 400.666666667 515.833333333 392 498 390 494 c 0
 381.333333333 477.333333333 349.666666667 426.666666667 295 342 c 0
 240.333333333 257.333333333 210 211.666666667 204 205 c 0
 199.333333333 200.333333333 179.5 172.166666667 144.5 120.5 c 0
 109.5 68.8333333333 91 42 89 40 c 0
755 32 m 0
 755 33.3333333333 719.5 33.1666666667 648.5 31.5 c 0
 577.5 29.8333333333 502.666666667 29.3333333333 424 30 c 0
 345.333333333 30.6666666667 298.666666667 34.3333333333 284 41 c 0
 279.333333333 43 270.5 46.6666666667 257.5 52 c 0
 244.5 57.3333333333 234.333333333 61.6666666667 227 65 c 0
 219.666666667 68.3333333333 210.666666667 74.1666666667 200 82.5 c 0
 189.333333333 90.8333333333 181.166666667 100.166666667 175.5 110.5 c 0
 169.833333333 120.833333333 165 134.666666667 161 152 c 0
 157 169.333333333 155.333333333 189 156 211 c 0
 159.333333333 308.333333333 212 372.333333333 314 403 c 0
 338.666666667 410.333333333 390.166666667 416.166666667 468.5 420.5 c 0
 546.833333333 424.833333333 601 424 631 418 c 0
 645 414.666666667 655 413 661 413 c 0
 667 413 670.666666667 413.5 672 414.5 c 0
 673.333333333 415.5 673.333333333 418.333333333 672 423 c 0
 670.666666667 427.666666667 670 431.333333333 670 434 c 0
 670 442 656.333333333 447.5 629 450.5 c 0
 601.666666667 453.5 555.666666667 455 491 455 c 0
 416.333333333 455 345.833333333 444.5 279.5 423.5 c 0
 213.166666667 402.5 168.333333333 368 145 320 c 0
 132.333333333 293.333333333 125 264.666666667 123 234 c 0
 121 203.333333333 124.166666667 174.166666667 132.5 146.5 c 0
 140.833333333 118.833333333 155.666666667 93.6666666667 177 71 c 0
 198.333333333 48.3333333333 224.333333333 32.3333333333 255 23 c 0
 270.333333333 18.3333333333 289.333333333 14.1666666667 312 10.5 c 0
 334.666666667 6.83333333333 358.166666667 4 382.5 2 c 0
 406.833333333 0 433 -1.66666666667 461 -3 c 0
 489 -4.33333333333 515.333333333 -5.16666666667 540 -5.5 c 0
 577 -6 577 -6 614 -6.5 c 0
 638.666666667 -6.83333333333 659.333333333 -6.83333333333 676 -6.5 c 0
 692.666666667 -6.16666666667 707.5 -5.83333333333 720.5 -5.5 c 0
 733.5 -5.16666666667 740.333333333 -5 741 -5 c 0
 745 -5 748 -3.33333333333 750 0 c 0
 752 3.33333333333 753.166666667 7 753.5 11 c 0
 753.833333333 15 754.166666667 19.3333333333 754.5 24 c 0
 754.833333333 28.6666666667 755 31.3333333333 755 32 c 0
EndSplineSet
Validated: 37
EndChar

StartChar: K
Encoding: 75 75 33
Width: 318
Flags: W
HStem: 703.5 18.5<-116.204 -13.5396>
VStem: -2.5 27.5<386.091 421.933> 126 38.5<478.687 569.056> 162 28<-1.0022 486.453>
LayerCount: 2
Back
Fore
SplineSet
9 422 m 4xc0
 11.6666666667 422.666666667 14.3333333333 422.333333333 17 421 c 4
 19.6666666667 419.666666667 22.3333333333 416.833333333 25 412.5 c 4
 27.6666666667 408.166666667 30 404 32 400 c 4
 34 396 36.5 390.666666667 39.5 384 c 4
 42.5 377.333333333 45 372 47 368 c 4
 53.6666666667 355.333333333 59 345.666666667 63 339 c 4
 67 332.333333333 74.3333333333 324 85 314 c 4
 95.6666666667 304 107.666666667 296 121 290 c 4
 142.333333333 280 167.5 277.5 196.5 282.5 c 0
 225.5 287.5 252.666666667 300.333333333 278 321 c 4
 299.333333333 338.333333333 317.333333333 363.833333333 332 397.5 c 4
 346.666666667 431.166666667 354.333333333 448.333333333 355 449 c 4
 359.408615035 453.723516109 363.492984827 454.916604651 367.253109375 452.579265625 c 4
 376.098121405 447.081098866 378.68041828 432.554676991 375 409 c 4
 373 394.333333333 359.333333333 371.833333333 334 341.5 c 4
 308.666666667 311.166666667 288.333333333 290.666666667 273 280 c 4
 258.333333333 269.333333333 239 262 215 258 c 4
 191 254 163.666666667 255 133 261 c 4
 115 265 98.1666666667 272.666666667 82.5 284 c 4
 66.8333333333 295.333333333 55.8333333333 305 49.5 313 c 4
 43.1666666667 321 33 334 19 352 c 4
 5.66666666667 369.333333333 -1.5 385 -2.5 399 c 4
 -3.5 413 0.333333333333 420.666666667 9 422 c 4xc0
474 718 m 0
 477.333333333 716 479.666666667 712 481 706 c 0
 482.333333333 700 481.333333333 695.333333333 478 692 c 0
 477.333333333 691.333333333 462.166666667 689.166666667 432.5 685.5 c 0
 402.833333333 681.833333333 371 674.333333333 337 663 c 0
 303 651.666666667 279.333333333 636.333333333 266 617 c 0
 215.333333333 543 190 476 190 416 c 0
 190 401.333333333 190.666666667 359.166666667 192 289.5 c 0
 193.333333333 219.833333333 194.333333333 162.5 195 117.5 c 0
 195.666666667 72.5 195.333333333 39 194 17 c 0
 190.666666667 -2.33333333333 182 -8.33333333333 168 -1 c 0
 166 -0.333333333333 164.5 1.83333333333 163.5 5.5 c 0
 162.5 9.16666666667 161.833333333 13.5 161.5 18.5 c 0
 161.166666667 23.5 161 28 161 32 c 0
 161 36 161.166666667 40.5 161.5 45.5 c 0
 161.833333333 50.5 162 53.3333333333 162 54 c 2
 162 396 l 1xd0
 168.666666667 462.666666667 177.666666667 506.666666667 189 528 c 0
 192.333333333 534 199.166666667 548.333333333 209.5 571 c 0
 219.833333333 593.666666667 229.666666667 612 239 626 c 0
 248.333333333 640 258.666666667 650.666666667 270 658 c 0
 289.333333333 670 315 681.5 347 692.5 c 0
 379 703.5 406 709.333333333 428 710 c 0
 438 710.666666667 446.5 711.666666667 453.5 713 c 0
 460.5 714.333333333 464.666666667 715.5 466 716.5 c 0
 467.333333333 717.5 469 718.333333333 471 719 c 0
 473 719.666666667 474 719.333333333 474 718 c 0
-142 716 m 2
 -142.666666667 715.333333333 -143.166666667 714.5 -143.5 713.5 c 0
 -143.833333333 712.5 -144.166666667 710.666666667 -144.5 708 c 0
 -144.833333333 705.333333333 -144.833333333 703 -144.5 701 c 0
 -144.166666667 699 -142.5 697.166666667 -139.5 695.5 c 0
 -136.5 693.833333333 -132.333333333 693 -127 693 c 0
 -121.666666667 693 -111.333333333 695 -96 699 c 0
 -80.6666666667 703 -64.8333333333 704.5 -48.5 703.5 c 0
 -32.1666666667 702.5 -16 697 0 687 c 0
 3.33333333333 685 10 680.833333333 20 674.5 c 0
 30 668.166666667 36.8333333333 663.833333333 40.5 661.5 c 0
 44.1666666667 659.166666667 50.5 655 59.5 649 c 0
 68.5 643 74.8333333333 638 78.5 634 c 0
 82.1666666667 630 87.1666666667 624.666666667 93.5 618 c 0
 99.8333333333 611.333333333 104.666666667 605.166666667 108 599.5 c 0
 111.333333333 593.833333333 114.666666667 587.166666667 118 579.5 c 0
 121.333333333 571.833333333 124 563.666666667 126 555 c 0
 137.333333333 499.666666667 145.666666667 471 151 469 c 0
 153 468.333333333 155.5 471.166666667 158.5 477.5 c 0
 161.5 483.833333333 163.5 491.833333333 164.5 501.5 c 0xe0
 165.5 511.166666667 163.666666667 522 159 534 c 0
 158.333333333 536 155.833333333 542.5 151.5 553.5 c 0
 147.166666667 564.5 143.666666667 573.166666667 141 579.5 c 0
 138.333333333 585.833333333 134.166666667 594.5 128.5 605.5 c 0
 122.833333333 616.5 117.333333333 625.666666667 112 633 c 0
 106.666666667 640.333333333 99.8333333333 647.833333333 91.5 655.5 c 0
 83.1666666667 663.166666667 74.6666666667 669 66 673 c 0
 56.6666666667 677.666666667 44.5 684 29.5 692 c 0
 14.5 700 3.16666666667 705.833333333 -4.5 709.5 c 0
 -12.1666666667 713.166666667 -22.3333333333 716.333333333 -35 719 c 0
 -47.6666666667 721.666666667 -61 722.666666667 -75 722 c 2
 -142 716 l 2
EndSplineSet
Validated: 37
EndChar

StartChar: N
Encoding: 78 78 34
Width: 818
Flags: W
VStem: 103 25.5<74.0371 675.246> 335 35.5<9.51562 283.562>
LayerCount: 2
Back
Fore
SplineSet
376 9 m 5
 375 8 375 8 373.5 6.5 c 0
 372.5 5.5 370.5 3.83333333333 367.5 1.5 c 0
 364.5 -0.833333333333 361.5 -2.66666666667 358.5 -4 c 0
 355.5 -5.33333333333 352.333333333 -5.66666666667 349 -5 c 0
 345.666666667 -4.33333333333 342.666666667 -2.66666666667 340 0 c 0
 334 2 332.333333333 14 335 36 c 0
 337.666666667 58 339 69.3333333333 339 70 c 0
 337.666666667 77.3333333333 338 102.5 340 145.5 c 0
 342 188.5 347.166666667 242.666666667 355.5 308 c 0
 363.833333333 373.333333333 374.666666667 427.333333333 388 470 c 0
 410 539.333333333 442.333333333 591.5 485 626.5 c 0
 527.666666667 661.5 570.666666667 673.666666667 614 663 c 0
 682.666666667 646.333333333 711 598.666666667 699 520 c 0
 694.333333333 490.666666667 683.666666667 466.166666667 667 446.5 c 0
 650.333333333 426.833333333 635.333333333 415.666666667 622 413 c 0
 607.568836918 410.376152167 600.691395512 412.812919745 601.367675781 420.310302734 c 0
 601.933395714 426.581990951 609.144170453 434.811890039 623 445 c 0
 639 457 652 474.666666667 662 498 c 0
 672 521.333333333 675.333333333 538.333333333 672 549 c 0
 671.333333333 550.333333333 670.333333333 554.166666667 669 560.5 c 0
 667.666666667 566.833333333 666.333333333 572.333333333 665 577 c 0
 663.666666667 581.666666667 661.5 587.5 658.5 594.5 c 0
 655.5 601.5 651.833333333 607 647.5 611 c 0
 643.166666667 615 637.333333333 619.333333333 630 624 c 0
 622.666666667 628.666666667 614.166666667 630.666666667 604.5 630 c 0
 594.833333333 629.333333333 583.333333333 628 570 626 c 0
 528 615.333333333 494 594.166666667 468 562.5 c 0
 442 530.833333333 424.666666667 498.333333333 416 465 c 0
 409.333333333 438.333333333 400.333333333 390.833333333 389 322.5 c 0
 377.666666667 254.166666667 371.333333333 207.666666667 370 183 c 0
 369.333333333 169 369.5 147.5 370.5 118.5 c 0
 371.5 89.5 372.666666667 64 374 42 c 2
 376 9 l 5
133 135 m 0
 137.666666667 115 137 88.8333333333 131 56.5 c 0
 125 24.1666666667 114.666666667 7.66666666667 100 7 c 0
 90 7 83.6666666667 10.5 81 17.5 c 0
 78.3333333333 24.5 78 32 80 40 c 0
 82 48 84.6666666667 54.6666666667 88 60 c 0
 100 78.6666666667 106.333333333 102 107 130 c 0
 107 134.666666667 106 173.5 104 246.5 c 0
 102 319.5 101.666666667 374 103 410 c 0
 103.666666667 444.666666667 103.833333333 480.333333333 103.5 517 c 0
 103.166666667 553.666666667 102.666666667 588.5 102 621.5 c 0
 101.333333333 654.5 101.333333333 673 102 677 c 0
 102.666666667 680.333333333 103 685.333333333 103 692 c 0
 103 698.666666667 103.5 704.5 104.5 709.5 c 0
 105.5 714.5 107 719.666666667 109 725 c 0
 112.333333333 733.666666667 117 737.666666667 123 737 c 0
 129 736.333333333 135.333333333 731 142 721 c 0
 154 702.333333333 174.5 671.666666667 203.5 629 c 0
 232.5 586.333333333 270.5 533 317.5 469 c 0
 364.5 405 399.666666667 361 423 337 c 0
 445 315 479.666666667 282 527 238 c 0
 574.333333333 194 616.166666667 155.166666667 652.5 121.5 c 0
 688.833333333 87.8333333333 709 68.3333333333 713 63 c 0
 724.250364026 46.9280513919 729.266364026 31.2560513919 728.048 15.984 c 0
 727.243330157 5.89755708488 721.893996824 3.23622375154 712 8 c 0
 706 10.6666666667 696.166666667 18.3333333333 682.5 31 c 0
 668.833333333 43.6666666667 656 56.3333333333 644 69 c 0
 632 81.6666666667 620 94.5 608 107.5 c 0
 596 120.5 589.666666667 127.333333333 589 128 c 2
 579 138 l 2
 572.333333333 144.666666667 564.5 152.333333333 555.5 161 c 0
 546.5 169.666666667 535.5 180.5 522.5 193.5 c 0
 509.5 206.5 496 220.166666667 482 234.5 c 0
 468 248.833333333 453.333333333 264.166666667 438 280.5 c 0
 422.666666667 296.833333333 407.5 313.333333333 392.5 330 c 0
 377.5 346.666666667 363 363.333333333 349 380 c 0
 335 396.666666667 321.833333333 413.166666667 309.5 429.5 c 0
 297.166666667 445.833333333 286.666666667 460.666666667 278 474 c 0
 201.333333333 594 155.333333333 661 140 675 c 0
 134.083772788 680.378388374 130.516843371 676.966904733 129.299211748 664.765549077 c 0
 128.643337242 658.193316587 128.543599993 647.604800228 129 633 c 0
 129 627.666666667 128.833333333 584.333333333 128.5 503 c 0
 128.166666667 421.666666667 128.166666667 342.5 128.5 265.5 c 0
 128.833333333 188.5 130.333333333 145 133 135 c 0
EndSplineSet
Validated: 37
EndChar

StartChar: O
Encoding: 79 79 35
Width: 586
Flags: HMW
LayerCount: 2
Fore
SplineSet
-55 728 m 2
 -54.3333333333 729.333333333 -53.3333333333 731.166666667 -52 733.5 c 128
 -50.6666666667 735.833333333 -48.1666666667 739.5 -44.5 744.5 c 128
 -40.8333333333 749.5 -37.8333333333 752.166666667 -35.5 752.5 c 128
 -33.1666666667 752.833333333 -30.3333333333 751.666666667 -27 749 c 0
 -19.6666666667 737 -22 708.666666667 -34 664 c 0
 -36.6666666667 654.666666667 -35.3333333333 621.833333333 -30 565.5 c 128
 -24.6666666667 509.166666667 -17 461 -7 421 c 0
 -3.66666666667 406.333333333 1 384.333333333 7 355 c 128
 13 325.666666667 18 302.5 22 285.5 c 128
 26 268.5 32.5 249.166666667 41.5 227.5 c 128
 50.5 205.833333333 61 187.666666667 73 173 c 0
 103.666666667 136.333333333 141.666666667 101.666666667 187 69 c 128
 232.333333333 36.3333333333 270.310661755 21.3847716713 301 23 c 0
 339 25 386 37 432 67 c 128
 478 97 519.785928665 132.354381738 562 194 c 0
 604 255.333007812 629.833333333 313.5 643.5 340.5 c 128
 657.166666667 367.5 667.333333333 395 674 423 c 0
 681.333333333 455.666666667 690.5 502.833333333 701.5 564.5 c 128
 712.5 626.166666667 718 667.333333333 718 688 c 128
 718 708.655246112 724.006625196 719.194252726 736.019875588 719.617019842 c 0
 746.086412566 719.971278736 752.768824834 714.468753151 756.067112393 703.109443087 c 0
 756.549419055 701.448377816 756.86038159 699.74523012 757 698 c 0
 759 676.666666667 755 631.333333333 745 562 c 128
 735 492.666666667 720.333333333 435 701 389 c 0
 633.666666667 227.666666667 552.333333333 113 457 45 c 0
 337 -40.3333333333 212.666666667 -19 84 109 c 0
 54 139 28.3333333333 178.5 7 227.5 c 128
 -14.3333333333 276.5 -29.1666666667 324.833333333 -37.5 372.5 c 128
 -45.8333333333 420.166666667 -51.6666666667 459.333333333 -55 490 c 128
 -58.3333333333 520.666666667 -59.6666666667 542.333333333 -59 555 c 2
 -55 728 l 2
-177 516 m 0
 -132.793990262 518.662624757 -73.7957132234 519.229928554 0 518 c 0
 40 517.333333333 101.666992188 510.833007812 185 512.5 c 128
 268.333007812 514.166992188 323.668841649 515.31796115 351 515 c 0
 408.333007812 514.333007812 513.666992188 515.333007812 673 508 c 128
 832.333007812 500.666992188 916 497.399346342 916 494 c 0
 916 489 916 489 916 478.5 c 128
 916 471.5 914.666666667 464.666666667 912 458 c 128
 909.333333333 451.333333333 904.666992188 456.333007812 900 457 c 128
 895.333007812 457.666992188 863 461.666992188 801 465 c 132
 739 468.333007812 675 473 601 474 c 128
 541.869961003 474.799054581 483.345923659 472.156877081 460 474 c 0
 434.666992188 476 366.666666667 478.666666667 270 480 c 128
 173.333333333 481.333333333 82.5 482.333333333 -2.5 483 c 128
 -87.5 483.666666667 -132 483.666666667 -136 483 c 0
 -166.666666667 479.666666667 -187.333333333 481.333333333 -198 488 c 0
 -200 490.666666667 -200.833333333 493.166666667 -200.5 495.5 c 128
 -200.166666667 497.833333333 -197.5 501 -192.5 505 c 128
 -187.5 509 -184 511.666666667 -182 513 c 128
 -180 514.333333333 -178.333333333 515.333333333 -177 516 c 0
EndSplineSet
Validated: 37
EndChar

StartChar: Z
Encoding: 90 90 36
Width: 294
Flags: W
HStem: 461 29<-29.9871 23 56 194.196> 503 17<379.263 623.749>
VStem: 64 24<6.8761 210.536> 73.5 23.5<224.02 306 438 719.563> 81 23<610.088 729.937> 175 43<36 200.673> 187.5 30.5<643.843 717.442>
LayerCount: 2
Back
Fore
SplineSet
209 20 m 1xc4
 207.666666667 18.6666666667 206.333333333 17.1666666667 205 15.5 c 0
 203.666666667 13.8333333333 200.833333333 10.8333333333 196.5 6.5 c 0
 192.166666667 2.16666666667 189 -0.333333333333 187 -1 c 0
 185 -1.66666666667 183 -1.33333333333 181 0 c 0
 177 10 175 21.6666666667 175 35 c 0
 175 67.6666666667 181.666666667 120.666666667 195 194 c 0
 208.101449275 266.057971014 219.434782609 310.057971014 229 326 c 0
 230.564931507 328.608219178 233.554244289 333.717418014 237.967938347 341.327596507 c 0
 242.381632405 348.937775 246.46700684 355.903377328 250.224061653 362.224403493 c 0
 253.981116465 368.545429658 258.07174203 375.275827329 262.495938347 382.415596507 c 0
 266.920134664 389.555365684 270.9255091 395.560968013 274.512061653 400.432403493 c 0
 278.098614206 405.303838974 280.927926988 408.49303781 283 410 c 0
 317 434.666666667 347.333333333 451.666666667 374 461 c 0
 382.637381568 464.004306632 397.726004881 469.657622739 419.26586994 477.95994832 c 0
 440.805734999 486.262273902 458.184043928 492.511197244 471.400796727 496.706718346 c 0
 484.617549526 500.902239449 494.817283951 503 502 503 c 0
 506.531746032 503 520.704585538 503.679012346 544.518518519 505.037037037 c 0
 568.332451499 506.395061728 586.208994709 507.148148148 598.148148148 507.296296296 c 0
 610.087301587 507.444444444 618.704585538 506.345679012 624 504 c 0
 624 502 612.666666667 499.166666667 590 495.5 c 0
 567.333333333 491.833333333 542.5 488 515.5 484 c 0
 488.5 480 471.333333333 476.666666667 464 474 c 0
 447.333333333 468.666666667 408 451 346 421 c 0
 334 415 319.666666667 405 303 391 c 0
 286.333333333 377 277.333333333 367.333333333 276 362 c 0
 275.333333333 358.666666667 273.166666667 352 269.5 342 c 0
 265.833333333 332 261.333333333 319.833333333 256 305.5 c 0
 250.666666667 291.166666667 247 281.333333333 245 276 c 0
 233.666666667 245.333333333 227 213 225 179 c 0
 224.333333333 172.333333333 223 158.166666667 221 136.5 c 0
 219 114.833333333 218 100 218 92 c 2
 209 20 l 1xc4
234 659 m 1
 235.333333333 657 236.833333333 654.833333333 238.5 652.5 c 0
 240.166666667 650.166666667 243.166666667 647.166666667 247.5 643.5 c 0
 251.833333333 639.833333333 255.666666667 638.333333333 259 639 c 0
 264.28 640.44 259.936 645.048 245.968 652.824 c 0
 237.989333333 656.941333333 234 659 234 659 c 1
208 718 m 0
 200 719.333333333 193.166666667 711.666666667 187.5 695 c 0
 181.833333333 678.333333333 180.333333333 661 183 643 c 0
 185 627 194.166666667 609.5 210.5 590.5 c 0
 226.833333333 571.5 242 557.333333333 256 548 c 0
 266.666666667 540.666666667 283.5 532.5 306.5 523.5 c 0
 329.5 514.5 347 509.333333333 359 508 c 0
 361.666666667 507.333333333 369.333333333 505.666666667 382 503 c 0
 394.666666667 500.333333333 412 498.333333333 434 497 c 0
 449.333333333 496.333333333 464.833333333 495.333333333 480.5 494 c 0
 496.166666667 492.666666667 508.5 491.666666667 517.5 491 c 0
 526.5 490.333333333 533.333333333 490 538 490 c 0
 576 490 597.666666667 490.666666667 603 492 c 0
 612.03856383 494.259640957 620.98802672 500.249387051 629.848388672 509.969238281 c 0
 636.976022817 517.788280426 635.35989326 522.465200999 625 524 c 0
 615.666666667 525.333333333 605.333333333 525 594 523 c 0
 582.666666667 521 570.666666667 520 558 520 c 0
 496.666666667 520 444 522 400 526 c 0
 354.666666667 530 316.333333333 542.333333333 285 563 c 0
 268.333333333 573.666666667 254.666666667 587.5 244 604.5 c 0
 233.333333333 621.5 226.666666667 635 224 645 c 0
 223.333333333 647 222.666666667 654.5 222 667.5 c 0
 221.333333333 680.5 220 692 218 702 c 0xc2
 216 712 212.666666667 717.333333333 208 718 c 0
-30 496 m 1
 -38.6666666667 475.333333333 -38.6666666667 464.333333333 -30 463 c 0
 -17.3333333333 461 -7.33333333333 460.333333333 0 461 c 0
 21.3333333333 463 40 464 56 464 c 0
 64.6666666667 464 80.3333333333 463.166666667 103 461.5 c 0
 125.666666667 459.833333333 142.833333333 458.833333333 154.5 458.5 c 0
 166.166666667 458.166666667 177 459 187 461 c 1
 220.333333333 479 220 488.666666667 186 490 c 0
 170.666666667 490.666666667 141.5 491 98.5 491 c 0
 55.5 491 30.3333333333 491.333333333 23 492 c 0
 -12.3333333333 494.666666667 -30 496 -30 496 c 1
97 730 m 0xd0
 89.6666666667 732.666666667 84.3333333333 729.333333333 81 720 c 0
 77.6666666667 710.666666667 77 701.666666667 79 693 c 0
 81 685 81.6666666667 677 81 669 c 0xc8
 81 665.666666667 79.8333333333 655.333333333 77.5 638 c 0
 75.1666666667 620.666666667 74 610.333333333 74 607 c 0
 74 606.333333333 73.8333333333 559 73.5 465 c 0xd0
 73.1666666667 371 73 318 73 306 c 0
 73 251.333333333 70 224 64 224 c 1
 62 220.666666667 61 214 61 204 c 0
 61 194 61.5 180 62.5 162 c 0
 63.5 144 64 132.666666667 64 128 c 0
 64 125.333333333 63.1666666667 113.166666667 61.5 91.5 c 0
 59.8333333333 69.8333333333 58.8333333333 53.6666666667 58.5 43 c 0
 58.1666666667 32.3333333333 58.3333333333 22 59 12 c 0
 61 6 66.3333333333 4.16666666667 75 6.5 c 0
 83.6666666667 8.83333333333 88 13.3333333333 88 20 c 0xe0
 88 60 90.6666666667 109.333333333 96 168 c 0
 98 190 99 208.333333333 99 223 c 0
 99 223.666666667 98.6666666667 249.5 98 300.5 c 0
 97.3333333333 351.5 96.8333333333 397.333333333 96.5 438 c 0
 96.1666666667 478.666666667 96.3333333333 512 97 538 c 0
 97.6666666667 549.333333333 97.6666666667 559 97 567 c 0xd0
 96.3333333333 575 95.6666666667 580.833333333 95 584.5 c 0
 94.3333333333 588.166666667 93.6666666667 591.666666667 93 595 c 0
 92.3333333333 598.333333333 92 601 92 603 c 0
 92 607 94 624.333333333 98 655 c 0
 102 685.666666667 104 702.666666667 104 706 c 0xc8
 104 707.333333333 104.5 710.166666667 105.5 714.5 c 0
 106.5 718.833333333 106.5 722.166666667 105.5 724.5 c 0
 104.5 726.833333333 101.666666667 728.666666667 97 730 c 0xd0
EndSplineSet
Validated: 37
EndChar

StartChar: j
Encoding: 106 106 37
Width: 479
Flags: W
HStem: 20 33<515 536.743>
LayerCount: 2
Back
Fore
SplineSet
408 438 m 0
 402 434 366 410 384 397 c 0
 402 384 421 413 424 419 c 0
 427 425 433 436 424 439 c 0
 415 442 414 442 408 438 c 0
382 239 m 0
 390 254 412 236 431.65625 234.24609375 c 29
 418 225 407 220 397 210 c 0
 387 200 234 16 229 6 c 0
 224 -4 220 -11 213 -13 c 0
 206 -15 198 9 201 18 c 0
 204 27 222 36 228 44 c 0
 234 52 374 224 382 239 c 0
210 213 m 0
 202 210 75 55 74 37 c 0
 73 19 46 6 46 6 c 25
 46 6 17 15 30 29 c 0
 43 43 181 224 181 224 c 25
 181 224 225 275 232 265 c 0
 239 255 233 243 239 239 c 0
 245 235 510 57 512 50 c 0
 514 43 507 52 525 53 c 0
 543 54 543 20 543 20 c 25
 515 13 l 25
 515 13 218 216 210 213 c 0
EndSplineSet
Validated: 524325
EndChar

StartChar: k
Encoding: 107 107 38
Width: 304
Flags: W
VStem: 236 26<86.6328 190.824>
LayerCount: 2
Back
Fore
SplineSet
144 243 m 5
 146.666666667 242.333333333 150 241.333333333 154 240 c 0
 158 238.666666667 165.166666667 235.5 175.5 230.5 c 0
 185.833333333 225.5 195 219.833333333 203 213.5 c 0
 211 207.166666667 218.333333333 198.833333333 225 188.5 c 0
 231.666666667 178.166666667 235.333333333 167.333333333 236 156 c 0
 237.333333333 110.666666667 229 84 211 76 c 0
 208.333333333 74.6666666667 180 68.6666666667 126 58 c 0
 121.333333333 57.3333333333 114 60.6666666667 104 68 c 0
 94 75.3333333333 87.3333333333 82 84 88 c 0
 70.6666666667 114.666666667 67.3333333333 138.666666667 74 160 c 0
 87.3333333333 202.666666667 102.666666667 227.333333333 120 234 c 0
 140 242 150.666666667 248 152 252 c 0
 153.333333333 256.666666667 152.166666667 260.333333333 148.5 263 c 0
 144.833333333 265.666666667 139.333333333 265.666666667 132 263 c 0
 131.333333333 263 127.166666667 261.833333333 119.5 259.5 c 0
 111.833333333 257.166666667 105.333333333 254.666666667 100 252 c 0
 94.6666666667 249.333333333 88.1666666667 245.666666667 80.5 241 c 0
 72.8333333333 236.333333333 66.1666666667 229.666666667 60.5 221 c 0
 54.8333333333 212.333333333 50 202 46 190 c 0
 38 157.333333333 35.8333333333 129.666666667 39.5 107 c 0
 43.1666666667 84.3333333333 49.6666666667 68 59 58 c 0
 69.6666666667 46.6666666667 84.1666666667 34.6666666667 102.5 22 c 0
 120.833333333 9.33333333333 136.666666667 3.33333333333 150 4 c 0
 164.666666667 4.66666666667 183 13 205 29 c 0
 227 45 241.666666667 61 249 77 c 0
 256.333333333 93 260.666666667 115 262 143 c 0
 263.333333333 171 260.666666667 192 254 206 c 0
 247.333333333 219.333333333 237.166666667 232.333333333 223.5 245 c 0
 209.833333333 257.666666667 199.333333333 264.666666667 192 266 c 0
 166.666666667 269.333333333 152.666666667 270 150 268 c 2
 144 243 l 5
EndSplineSet
Validated: 37
EndChar

StartChar: F
Encoding: 70 70 39
Width: 462
Flags: W
HStem: 712.5 38.5<276.875 428.5 570.5 744.147>
VStem: 498.5 33.5<467.332 662 727 732.333> 831 41<392.737 614.965>
LayerCount: 2
Back
Fore
SplineSet
240 743 m 5
 238.666666667 741.666666667 236.833333333 740.166666667 234.5 738.5 c 0
 232.166666667 736.833333333 228.666666667 733.833333333 224 729.5 c 0
 219.333333333 725.166666667 215.833333333 721.333333333 213.5 718 c 0
 211.166666667 714.666666667 210.666666667 712.333333333 212 711 c 0
 219.333333333 704.333333333 242 703 280 707 c 0
 296.666666667 709 346.166666667 710.833333333 428.5 712.5 c 0
 510.833333333 714.166666667 567 714.333333333 597 713 c 0
 670.741642843 709.596539561 721.272199478 702.669496015 748.591669905 692.218869363 c 0
 778.897331133 680.62592316 797.366774498 663.552966706 804 641 c 0
 819.333333333 589 828.333333333 514.333333333 831 417 c 0
 831 405.666666667 834 397.5 840 392.5 c 0
 846 387.5 852.333333333 387 859 391 c 0
 865.666666667 395 870 402.333333333 872 413 c 0
 875.333333333 430.333333333 874.666666667 468.5 870 527.5 c 0
 865.333333333 586.5 859.333333333 624 852 640 c 0
 822.666666667 705.333333333 762.333333333 741 671 747 c 0
 640.333333333 749 606.833333333 750.5 570.5 751.5 c 0
 534.166666667 752.5 503.833333333 752.833333333 479.5 752.5 c 0
 455.166666667 752.166666667 429.666666667 751.833333333 403 751.5 c 0
 376.333333333 751.166666667 361.333333333 751 358 751 c 2
 240 743 l 5
50 152 m 0
 40.6666666667 150 34.8333333333 142.5 32.5 129.5 c 0
 30.1666666667 116.5 33.6666666667 99.3333333333 43 78 c 0
 51.6666666667 60.6666666667 58.8333333333 48 64.5 40 c 0
 70.1666666667 32 79.6666666667 24.5 93 17.5 c 0
 106.333333333 10.5 123.333333333 6.66666666667 144 6 c 0
 152 6 164 5.33333333333 180 4 c 0
 196 2.66666666667 207.833333333 2 215.5 2 c 0
 223.166666667 2 233 3 245 5 c 0
 257 7 268.5 11.1666666667 279.5 17.5 c 0
 290.5 23.8333333333 302 32.3333333333 314 43 c 0
 340.666666667 67 361.166666667 86.3333333333 375.5 101 c 0
 389.833333333 115.666666667 406.166666667 136.666666667 424.5 164 c 0
 442.833333333 191.333333333 458 221 470 253 c 0
 487.333333333 299 502.833333333 372 516.5 472 c 0
 530.166666667 572 535.666666667 635.333333333 533 662 c 0
 532.333333333 669.333333333 532 677.5 532 686.5 c 0
 532 695.5 532.166666667 703.166666667 532.5 709.5 c 0
 532.833333333 715.833333333 533 721.666666667 533 727 c 0
 533 732.333333333 532.833333333 736.333333333 532.5 739 c 0
 532.166666667 741.666666667 531 743 529 743 c 0
 528.333333333 743 525.833333333 742.833333333 521.5 742.5 c 0
 517.166666667 742.166666667 514 741.833333333 512 741.5 c 0
 510 741.166666667 507.833333333 740 505.5 738 c 0
 503.166666667 736 502 733.333333333 502 730 c 0
 502 721.333333333 500.833333333 691.666666667 498.5 641 c 0
 496.166666667 590.333333333 494.666666667 561.333333333 494 554 c 0
 494 553.333333333 493.5 549.166666667 492.5 541.5 c 0
 491.5 533.833333333 490.5 525.666666667 489.5 517 c 0
 488.5 508.333333333 487.166666667 497.166666667 485.5 483.5 c 0
 483.833333333 469.833333333 481.833333333 456 479.5 442 c 0
 477.166666667 428 474.5 413 471.5 397 c 0
 468.5 381 465 365.166666667 461 349.5 c 0
 457 333.833333333 452.833333333 318.5 448.5 303.5 c 0
 444.166666667 288.5 439.166666667 274 433.5 260 c 0
 427.833333333 246 422 233.666666667 416 223 c 0
 386.666666667 171 355.5 127.666666667 322.5 93 c 0
 289.5 58.3333333333 259.333333333 38.3333333333 232 33 c 0
 200 27 170.5 27.6666666667 143.5 35 c 0
 116.5 42.3333333333 98 58.3333333333 88 83 c 0
 85.3333333333 89.6666666667 82.6666666667 96.6666666667 80 104 c 0
 77.3333333333 111.333333333 75.3333333333 117 74 121 c 0
 72.6666666667 125 71.1666666667 129.333333333 69.5 134 c 0
 67.8333333333 138.666666667 66.5 141.833333333 65.5 143.5 c 0
 64.5 145.166666667 63.1666666667 147.166666667 61.5 149.5 c 0
 59.8333333333 151.833333333 58.1666666667 152.666666667 56.5 152 c 0
 54.8333333333 151.333333333 52.6666666667 151.333333333 50 152 c 0
EndSplineSet
Validated: 37
EndChar

StartChar: J
Encoding: 74 74 40
Width: 376
Flags: W
LayerCount: 2
Back
Fore
SplineSet
249 754 m 4
 248.333333333 749.333333333 246.333333333 744.5 243 739.5 c 0
 239.666666667 734.5 238.333333333 731 239 729 c 0
 245 715 262 689.333333333 290 652 c 0
 294.666666667 645.333333333 311.5 623.166666667 340.5 585.5 c 0
 369.5 547.833333333 396.833333333 512.166666667 422.5 478.5 c 0
 448.166666667 444.833333333 462 426.333333333 464 423 c 0
 466 421 466 421 468 419 c 0
 469.333333333 417.666666667 470.5 416.833333333 471.5 416.5 c 0
 472.5 416.166666667 473.333333333 415.5 474 414.5 c 0
 474.666666667 413.5 474.833333333 412.333333333 474.5 411 c 0
 474.166666667 409.666666667 473.166666667 407.833333333 471.5 405.5 c 0
 469.833333333 403.166666667 467.666666667 400 465 396 c 0
 458.333333333 387.333333333 435.166666667 351 395.5 287 c 0
 355.833333333 223 333 187 327 179 c 0
 322.333333333 172.333333333 311.833333333 155.166666667 295.5 127.5 c 0
 279.166666667 99.8333333333 264 75.1666666667 250 53.5 c 0
 236 31.8333333333 227.666666667 20.6666666667 225 20 c 0
 219.666666667 18.6666666667 215.833333333 14.8333333333 213.5 8.5 c 0
 211.166666667 2.16666666667 212 -3.33333333333 216 -8 c 0
 218.11864736 -10.3834782795 221.034334812 -14.7427029175 224.747062357 -21.0776739138 c 0
 229.180518372 -28.6424130251 231.598164253 -30.6165217205 232 -27 c 0
 232 -24.3333333333 233.5 -20.5 236.5 -15.5 c 0
 239.5 -10.5 243 -5.16666666667 247 0.5 c 0
 251 6.16666666667 253.666666667 10 255 12 c 0
 261 22.6666666667 298.833333333 84.1666666667 368.5 196.5 c 0
 438.166666667 308.833333333 474.666666667 366 478 368 c 0
 480 369.333333333 485.166666667 370.166666667 493.5 370.5 c 0
 501.833333333 370.833333333 507 372 509 374 c 0
 519 384 523.333333333 392 522 398 c 0
 521.333333333 400 506.333333333 419.833333333 477 457.5 c 0
 447.666666667 495.166666667 415.5 536.5 380.5 581.5 c 0
 345.5 626.5 322.666666667 656.666666667 312 672 c 0
 274.980796053 727.028546408 254.726606473 755.141233398 251.237431262 756.338060968 c 0
 249.900974084 756.796481283 249.155163664 756.017127627 249 754 c 4
443 746 m 0
 441 746 438.833333333 744.333333333 436.5 741 c 0
 434.166666667 737.666666667 432.333333333 734.5 431 731.5 c 2
 429 727 l 1
 421.666666667 721.666666667 416.333333333 716 413 710 c 0
 316.333333333 536 263.333333333 444.666666667 254 436 c 0
 252.666666667 434.666666667 250.833333333 433 248.5 431 c 0
 246.166666667 429 244.333333333 427.333333333 243 426 c 0
 241 424 241 424 238.5 421.5 c 0
 236.833333333 419.833333333 235.5 418.333333333 234.5 417 c 0
 233.5 415.666666667 232.5 414.166666667 231.5 412.5 c 0
 230.5 410.833333333 229.833333333 409.5 229.5 408.5 c 0
 229.166666667 407.5 229 406.166666667 229 404.5 c 0
 229 402.833333333 229.333333333 401.333333333 230 400 c 0
 230.666666667 398.666666667 231.666666667 397.333333333 233 396 c 0
 235 394 237 391.333333333 239 388 c 0
 242 383 242 383 243.5 380.5 c 0
 244.5 378.833333333 245.833333333 377.5 247.5 376.5 c 0
 249.166666667 375.5 250.833333333 375.333333333 252.5 376 c 0
 254.166666667 376.666666667 256.333333333 378.666666667 259 382 c 0
 264.333333333 388.666666667 288.333333333 430.166666667 331 506.5 c 0
 373.666666667 582.833333333 400 630.666666667 410 650 c 0
 412.666666667 655.333333333 417.833333333 664.166666667 425.5 676.5 c 0
 433.166666667 688.833333333 439 699 443 707 c 0
 447 715 448.666666667 720.333333333 448 723 c 0
 447.333333333 725 447 728 447 732 c 0
 447 736 446.833333333 739.333333333 446.5 742 c 0
 446.166666667 744.666666667 445 746 443 746 c 0
146 215 m 0
 136 194.333333333 108.666666667 144.666666667 64 66 c 0
 60 58.6666666667 59.8333333333 52.5 63.5 47.5 c 0
 67.1666666667 42.5 73.6666666667 41.3333333333 83 44 c 0
 91.6666666667 46 103.666666667 60.5 119 87.5 c 0
 134.333333333 114.5 145.333333333 137 152 155 c 0
 168.22929162 199.517538169 173.562624953 221.850871502 168 222 c 0
 164.666666667 220.666666667 161.666666667 220.666666667 159 222 c 0
 156.333333333 223.333333333 154.166666667 223.833333333 152.5 223.5 c 0
 150.833333333 223.166666667 148.666666667 220.333333333 146 215 c 0
EndSplineSet
Validated: 37
EndChar

StartChar: C
Encoding: 67 67 41
Width: 616
Flags: W
HStem: -7 35<78.0948 220.288> 0 9.24627<267.862 285.67>
VStem: 325 26<167.5 509.42> 411 28.5<243.371 407.875> 505 44<-2.875 24.4844>
LayerCount: 2
Fore
SplineSet
534 28 m 1xb8
 532 27.3333333333 529.666666667 26.1666666667 527 24.5 c 0
 524.333333333 22.8333333333 520 19.8333333333 514 15.5 c 0
 508 11.1666666667 505 7.66666666667 505 5 c 0
 505 2.33333333333 506.666666667 -0.333333333333 510 -3 c 0
 517.333333333 -5.66666666667 523.833333333 -6.66666666667 529.5 -6 c 0
 535.166666667 -5.33333333333 539.833333333 -3.83333333333 543.5 -1.5 c 0
 547.166666667 0.833333333333 549 3 549 5 c 0
 549 7 547.833333333 9.83333333333 545.5 13.5 c 0
 543.166666667 17.1666666667 540.666666667 20.5 538 23.5 c 2
 534 28 l 1xb8
400 106 m 1
 400 106 401.656 110.32 404.968 118.96 c 0
 407.842666667 122.773333333 411.186666667 123.12 415 120 c 0
 427.666666667 110 429.666666667 103 421 99 c 0
 419 98.3333333333 416.166666667 98.5 412.5 99.5 c 0
 408.833333333 100.5 405.833333333 101.833333333 403.5 103.5 c 2
 400 106 l 1
458 54 m 0
 458.666666667 53.3333333333 459.666666667 52.5 461 51.5 c 0
 462.333333333 50.5 464.833333333 48.6666666667 468.5 46 c 0
 472.166666667 43.3333333333 475 40.8333333333 477 38.5 c 0
 479 36.1666666667 481 33.5 483 30.5 c 0
 485 27.5 485 25 483 23 c 0
 479.666666667 17 472.333333333 13.6666666667 461 13 c 0
 449.666666667 12.3333333333 439 14.6666666667 429 20 c 0
 407.666666667 32 390 50 376 74 c 0
 341.333333333 134.666666667 324.333333333 198.666666667 325 266 c 0
 325 282 324.5 303.166666667 323.5 329.5 c 0
 322.5 355.833333333 322.166666667 375.666666667 322.5 389 c 0
 322.833333333 402.333333333 325.5 422.833333333 330.5 450.5 c 0
 335.5 478.166666667 343.333333333 510.333333333 354 547 c 0
 374 615.666666667 402.833333333 666.833333333 440.5 700.5 c 0
 478.166666667 734.166666667 516 754.666666667 554 762 c 0
 589.333333333 768.666666667 634.166666667 765.833333333 688.5 753.5 c 0
 742.833333333 741.166666667 782.333333333 720 807 690 c 0
 811.666666667 684.666666667 817.833333333 677.333333333 825.5 668 c 0
 833.166666667 658.666666667 838.5 652 841.5 648 c 0
 844.5 644 848.666666667 638.666666667 854 632 c 0
 859.333333333 625.333333333 863 620.333333333 865 617 c 0
 867 613.666666667 869.5 609.333333333 872.5 604 c 0
 875.5 598.666666667 877.333333333 594.166666667 878 590.5 c 0
 878.666666667 586.833333333 879.333333333 582.666666667 880 578 c 0
 880.666666667 573.333333333 880.666666667 568.333333333 880 563 c 0
 878.666666667 541.666666667 874.5 520.333333333 867.5 499 c 0
 860.5 477.666666667 854 466 848 464 c 0
 843.333333333 462.666666667 838.833333333 463.666666667 834.5 467 c 0
 830.166666667 470.333333333 827.5 475.166666667 826.5 481.5 c 0
 825.5 487.833333333 827.666666667 495.333333333 833 504 c 0
 845 523.333333333 851 541 851 557 c 0
 851 573.666666667 843.166666667 596.833333333 827.5 626.5 c 0
 811.833333333 656.166666667 787.666666667 680 755 698 c 0
 717.666666667 718 678.333333333 730.833333333 637 736.5 c 0
 595.666666667 742.166666667 562 739.333333333 536 728 c 0
 505.333333333 715.333333333 475.833333333 696.333333333 447.5 671 c 0
 419.166666667 645.666666667 399 617 387 585 c 0
 367 531.666666667 355.666666667 473.333333333 353 410 c 0
 351.666666667 380 351 334 351 272 c 0
 351 242.666666667 354.666666667 209.166666667 362 171.5 c 0
 369.333333333 133.833333333 379.666666667 109 393 97 c 0
 412.199264452 79.1330298892 433.865931118 64.7996965559 458 54 c 0
286 12 m 1
 286 2 283.333333333 -2 278 0 c 0
 276.79793963 0.415670346777 275.683804 0.823345822713 274.657593112 1.22302642781 c 0
 266.17428446 4.52703925131 263.758648884 7.20145450712 267.410686385 9.24627219524 c 2x78
 286 12 l 1
279 555 m 1
 314 538 l 2
 356 515.333333333 389 487.666666667 413 455 c 0
 423 441.666666667 430 426.833333333 434 410.5 c 0
 438 394.166666667 439.833333333 380.333333333 439.5 369 c 0
 439.166666667 357.666666667 438 341.166666667 436 319.5 c 4
 434 297.833333333 432.666666667 281 432 269 c 4
 431.333333333 237.666666667 411.666666667 194.333333333 373 139 c 0
 334.333333333 83.6666666667 305.333333333 48 286 32 c 0
 284.957859499 31.139101325 283.613295671 29.7621622918 281.966308518 27.8691829006 c 0
 280.319321364 25.9762035094 278.82211935 24.2922660268 277.474702475 22.817370453 c 0
 276.127285599 21.3424748792 274.695820516 19.9964176017 273.180307225 18.7791986204 c 0
 271.664793933 17.5619796391 270.205924174 17.0063030187 268.803697948 17.1121687592 c 0
 267.401471722 17.2180344997 266.133572406 18.0976171908 265 19.7509168325 c 0
 262.739759383 21.0961173724 260.418165948 21.8303481146 258.035219697 21.9536090591 c 0
 255.652273445 22.0768700037 251.489086576 21.1817658906 245.54565909 19.2682967198 c 0
 239.602231604 17.354827549 234.199841452 15.4342441704 229.338488635 13.5065465839 c 0
 224.477135818 11.5788489974 218.437932535 9.23664194301 211.220878787 6.47992542078 c 0
 204.003825038 3.72320889856 197.930198776 1.5632337583 193 0 c 0x78
 170.333333333 -5.33333333333 148.833333333 -7.66666666667 128.5 -7 c 0xb8
 108.166666667 -6.33333333333 92.6666666667 -4 82 0 c 0x78
 78 1.33333333333 75.5 2.66666666667 74.5 4 c 0
 73.5 5.33333333333 73.3333333333 6.66666666667 74 8 c 0
 74.6666666667 9.33333333333 75.3333333333 11.1666666667 76 13.5 c 0
 76.6666666667 15.8333333333 76.6666666667 18.3333333333 76 21 c 0
 75.3333333333 23 76 24.6666666667 78 26 c 0
 80 27.3333333333 83.5 28.1666666667 88.5 28.5 c 0
 93.5 28.8333333333 98.5 29 103.5 29 c 0
 108.5 29 115.5 28.8333333333 124.5 28.5 c 0
 133.5 28.1666666667 141 28 147 28 c 0xb8
 175 28 206.333333333 34 241 46 c 0
 275.666666667 58 305.666666667 79.3333333333 331 110 c 0
 357 141.333333333 376.5 177.166666667 389.5 217.5 c 0
 402.5 257.833333333 409.666666667 294 411 326 c 0
 412.333333333 354 411.333333333 373.5 408 384.5 c 0
 404.666666667 395.5 392.333333333 417 371 449 c 0
 357.666666667 469 345.166666667 484.333333333 333.5 495 c 0
 321.833333333 505.666666667 307.5 515.166666667 290.5 523.5 c 0
 273.5 531.833333333 263 537.333333333 259 540 c 0
 245.23 548.7975 243.1645 554.054625 252.8035 555.771375 c 0
 270.267833333 555.257125 279 555 279 555 c 1
EndSplineSet
Validated: 37
EndChar

StartChar: b
Encoding: 98 98 42
Width: 766
Flags: W
HStem: -2.17358 48.1736<696.063 726.622>
VStem: 219 26<125.5 190.824>
LayerCount: 2
Back
Fore
SplineSet
127 243 m 1
 129.666666667 242.333333333 133 241.333333333 137 240 c 0
 141 238.666666667 148.166666667 235.5 158.5 230.5 c 0
 168.833333333 225.5 178 219.833333333 186 213.5 c 0
 194 207.166666667 201.333333333 198.833333333 208 188.5 c 0
 214.666666667 178.166666667 218.333333333 167.333333333 219 156 c 0
 220.333333333 110.666666667 212 84 194 76 c 0
 191.333333333 74.6666666667 163 68.6666666667 109 58 c 0
 104.333333333 57.3333333333 97 60.6666666667 87 68 c 0
 77 75.3333333333 70.3333333333 82 67 88 c 0
 53.6666666667 114.666666667 50.3333333333 138.666666667 57 160 c 0
 70.3333333333 202.666666667 85.6666666667 227.333333333 103 234 c 0
 123 242 133.666666667 248 135 252 c 0
 136.333333333 256.666666667 135.166666667 260.333333333 131.5 263 c 0
 127.833333333 265.666666667 122.333333333 265.666666667 115 263 c 0
 114.333333333 263 110.166666667 261.833333333 102.5 259.5 c 0
 94.8333333333 257.166666667 88.3333333333 254.666666667 83 252 c 0
 77.6666666667 249.333333333 71.1666666667 245.666666667 63.5 241 c 0
 55.8333333333 236.333333333 49.1666666667 229.666666667 43.5 221 c 0
 37.8333333333 212.333333333 33 202 29 190 c 0
 21 157.333333333 18.8333333333 129.666666667 22.5 107 c 0
 26.1666666667 84.3333333333 32.6666666667 68 42 58 c 0
 52.6666666667 46.6666666667 67.1666666667 34.6666666667 85.5 22 c 0
 103.833333333 9.33333333333 119.666666667 3.33333333333 133 4 c 0
 147.666666667 4.66666666667 166 13 188 29 c 0
 210 45 224.666666667 61 232 77 c 0
 239.333333333 93 243.666666667 115 245 143 c 0
 246.333333333 171 243.666666667 192 237 206 c 0
 230.333333333 219.333333333 220.166666667 232.333333333 206.5 245 c 0
 192.833333333 257.666666667 182.333333333 264.666666667 175 266 c 0
 149.666666667 269.333333333 135.666666667 270 133 268 c 2
 127 243 l 1
146 160 m 1
 296 28 l 2
 297.333333333 26 300.833333333 22.8333333333 306.5 18.5 c 0
 312.166666667 14.1666666667 318.5 11.3333333333 325.5 10 c 0
 332.5 8.66666666667 337.333333333 12.6666666667 340 22 c 0
 344 35.3333333333 373.333333333 72 428 132 c 0
 482.666666667 192 512.333333333 221.333333333 517 220 c 0
 519.666666667 219.333333333 549.666666667 185 607 117 c 0
 664.333333333 49 694 14.6666666667 696 14 c 0
 697.333333333 13.3333333333 699.833333333 11.8333333333 703.5 9.5 c 0
 707.166666667 7.16666666667 713.333333333 4 722 0 c 0
 725.143224958 -1.3666195469 727.620776066 -2.09114627046 729.432653326 -2.17358017067 c 0
 733.876453254 -2.37575708856 733.988432163 3.16442388196 729.768590053 14.4469627409 c 0
 727.256196684 21.164317341 726 25.6819964274 726 28 c 0
 726 40 722 46 714 46 c 0
 709.333333333 46 680.666666667 76.6666666667 628 138 c 0
 575.333333333 199.333333333 548 232.666666667 546 238 c 2
 546 261 l 2
 546 273 534.666666667 274 512 264 c 0
 506.666666667 262 487.666666667 243.666666667 455 209 c 0
 422.333333333 174.333333333 390.833333333 140.666666667 360.5 108 c 0
 330.166666667 75.3333333333 314.666666667 59.3333333333 314 60 c 0
 312 61.3333333333 290 78.8333333333 248 112.5 c 0
 206 146.166666667 183.333333333 164.666666667 180 168 c 0
 168 180 156.666666667 183.333333333 146 178 c 0
 138 174 138 168 146 160 c 1
EndSplineSet
Validated: 37
EndChar

StartChar: p
Encoding: 112 112 43
Width: 336
Flags: W
HStem: 150 33<85.2816 218.587>
VStem: 244 26<86.6328 187.297>
LayerCount: 2
Back
Fore
SplineSet
152 243 m 1
 154.666666667 242.333333333 158 241.333333333 162 240 c 0
 166 238.666666667 173.166666667 235.5 183.5 230.5 c 0
 193.833333333 225.5 203 219.833333333 211 213.5 c 0
 219 207.166666667 226.333333333 198.833333333 233 188.5 c 0
 239.666666667 178.166666667 243.333333333 167.333333333 244 156 c 0
 245.333333333 110.666666667 237 84 219 76 c 0
 216.333333333 74.6666666667 188 68.6666666667 134 58 c 0
 129.333333333 57.3333333333 122 60.6666666667 112 68 c 0
 102 75.3333333333 95.3333333333 82 92 88 c 0
 78.6666666667 114.666666667 75.3333333333 138.666666667 82 160 c 0
 95.3333333333 202.666666667 110.666666667 227.333333333 128 234 c 0
 148 242 158.666666667 248 160 252 c 0
 161.333333333 256.666666667 160.166666667 260.333333333 156.5 263 c 0
 152.833333333 265.666666667 147.333333333 265.666666667 140 263 c 0
 139.333333333 263 135.166666667 261.833333333 127.5 259.5 c 0
 119.833333333 257.166666667 113.333333333 254.666666667 108 252 c 0
 102.666666667 249.333333333 96.1666666667 245.666666667 88.5 241 c 0
 80.8333333333 236.333333333 74.1666666667 229.666666667 68.5 221 c 0
 62.8333333333 212.333333333 58 202 54 190 c 0
 46 157.333333333 43.8333333333 129.666666667 47.5 107 c 0
 51.1666666667 84.3333333333 57.6666666667 68 67 58 c 0
 77.6666666667 46.6666666667 92.1666666667 34.6666666667 110.5 22 c 0
 128.833333333 9.33333333333 144.666666667 3.33333333333 158 4 c 0
 172.666666667 4.66666666667 191 13 213 29 c 0
 235 45 249.666666667 61 257 77 c 0
 264.333333333 93 268.666666667 115 270 143 c 0
 271.333333333 171 268.666666667 192 262 206 c 0
 255.333333333 219.333333333 245.166666667 232.333333333 231.5 245 c 0
 217.833333333 257.666666667 207.333333333 264.666666667 200 266 c 0
 174.666666667 269.333333333 160.666666667 270 158 268 c 2
 152 243 l 1
-85 293 m 0
 -88.3333333333 291.666666667 -90.5 287.833333333 -91.5 281.5 c 0
 -92.5 275.166666667 -91.3333333333 269.333333333 -88 264 c 0
 -84 258 -66.8333333333 243.666666667 -36.5 221 c 0
 -6.16666666667 198.333333333 12.6666666667 186.333333333 20 185 c 0
 22 184.333333333 31.6666666667 180.5 49 173.5 c 0
 66.3333333333 166.5 85.6666666667 160.333333333 107 155 c 0
 128.333333333 149.666666667 148 148 166 150 c 0
 193.333333333 152.666666667 225.833333333 166.666666667 263.5 192 c 0
 301.166666667 217.333333333 327.333333333 239.333333333 342 258 c 0
 348.666666667 266 355.833333333 274.333333333 363.5 283 c 0
 371.166666667 291.666666667 376.666666667 297.833333333 380 301.5 c 0
 383.333333333 305.166666667 384.666666667 307.333333333 384 308 c 2
 382 315 l 2
 380.666666667 319.666666667 378.666666667 323.333333333 376 326 c 0
 373.333333333 328.666666667 370 329.666666667 366 329 c 0
 363.333333333 328.333333333 355.833333333 320.5 343.5 305.5 c 0
 331.166666667 290.5 317.333333333 274.333333333 302 257 c 0
 286.666666667 239.666666667 267.5 223.333333333 244.5 208 c 0
 221.5 192.666666667 199.333333333 184.333333333 178 183 c 0
 149.333333333 181 119.833333333 184.666666667 89.5 194 c 0
 59.1666666667 203.333333333 36 212.833333333 20 222.5 c 0
 4 232.166666667 -9.33333333333 241.333333333 -20 250 c 0
 -58 280.666666667 -79.6666666667 295 -85 293 c 0
EndSplineSet
Validated: 37
EndChar

StartChar: f
Encoding: 102 102 44
Width: 625
Flags: W
LayerCount: 2
Back
Fore
SplineSet
616 431 m 4
 613 429 590 421 610 404 c 4
 630 387 630 364 644 380 c 4
 658 396 678 424 668 434 c 4
 658 444 637 449 631 446 c 4
 625 443 619 433 616 431 c 4
73 36 m 4
 70 34 42 12 60 9 c 4
 78 6 171 16 214 47 c 4
 257 78 357 176 371 251 c 4
 385 326 387 385 323 405 c 4
 259 425 217 331 234 265 c 4
 251 199 288 121 335 83 c 4
 382 45 448 3 461 -5 c 4
 474 -13 476 -8 481 7 c 4
 486 22 629 168 645 180 c 4
 661 192 681 202 661 211 c 4
 641 220 623 206 618 199 c 4
 613 192 496 63 480 56 c 4
 464 49 392 89 376 100 c 4
 360 111 299 140 278 246 c 4
 257 352 282 392 310 377 c 4
 338 362 360 309 344 272 c 4
 328 235 303 161 213 103 c 4
 123 45 76 38 73 36 c 4
EndSplineSet
Validated: 37
EndChar

StartChar: D
Encoding: 68 68 45
Width: 290
Flags: W
HStem: 420 34<137.174 353.145>
VStem: 113 20<12.2699 84 100 290.869 291.116 559.669>
LayerCount: 2
Fore
SplineSet
118 591 m 0
 115 589 114.994140625 566.369140625 115 554 c 0
 115.005859375 542 114.73608704 454.999847654 116 453 c 0
 117.068359375 451.309570312 113 291 113 291 c 1
 112.84375 291 110.823242188 110 113 102 c 0
 115.116210938 94.220703125 111 95 111 83 c 0
 111 71 103 17 110 12 c 0
 117 7 131 2 131 13 c 0
 131 24 130 50 131 60 c 0
 132 70 138 80 138 84 c 0
 138 88 133 96 133 100 c 0
 133 104 136 560 136 560 c 25
 136 560 129 591 127 591 c 0
 125 591 121 593 118 591 c 0
-141 694 m 0
 -143 692 -148 675 -147 662 c 0
 -146 649 -146 590 -88 535 c 0
 -30 480 37 450 84 432 c 0
 131 414 266 419 294 420 c 0
 322 421 356 426 354 442 c 0
 352 458 340 460 328 454 c 0
 316 448 316 448 291 444 c 0
 266 440 147 434 102 448 c 0
 57 462 -4 488 -52 528 c 0
 -100 568 -114 600 -122 631 c 0
 -130 662 -122 688 -128 692 c 0
 -134 696 -139 696 -141 694 c 0
EndSplineSet
Validated: 524325
EndChar

StartChar: E
Encoding: 69 69 46
Width: 276
Flags: W
HStem: 357 21G<380 380>
LayerCount: 2
Fore
SplineSet
155 262 m 0
 142 259 147 238 154 230 c 0
 161 222 150 223 162 213 c 0
 174 203 175 202 186 202 c 0
 197 202 198 196 212 186 c 0
 226 176 256 142 294 162 c 0
 332 182 386 236 404 236 c 0
 422 236 444 204 460 182 c 0
 476 160 482 152 492 157 c 0
 502 162 510 170 506 176 c 0
 502 182 492 202 480 212 c 0
 468 222 472 214 463 226 c 0
 454 238 441 254 426 262 c 0
 411 270 356 230 322 206 c 0
 288 182 268 174 234 200 c 0
 200 226 180 238 175 246 c 0
 170 254 168 265 155 262 c 0
106 517 m 0
 114 522 160 472 177 456 c 0
 194 440 225 454 234 456 c 0
 243 458 280 506 326 552 c 0
 372 598 392 580 400 578 c 0
 408 576 479 488 479 488 c 25
 479 488 476 460 466 459 c 0
 456 458 442 486 430 498 c 0
 418 510 396 538 382 552 c 0
 368 566 339 528 329 518 c 0
 319 508 236 425 224 420 c 0
 212 415 199 419 182 426 c 0
 165 433 120 478 110 486 c 0
 100 494 98 512 106 517 c 0
-140 334 m 0
 -149 332 -156 318 -142 306 c 0
 -128 294 135 26 135 26 c 25
 135 26 132 14 138 9 c 0
 144 4 148 -2 156 4 c 0
 164 10 182 38 182 38 c 25
 381 322 l 25
 381 322 406 341 409 346 c 0
 412 351 404 359 396 354 c 0
 388 349 358 334 350 322 c 0
 342 310 178 64 170 60 c 0
 162 56 156 50 149 54 c 0
 142 58 139 46 132 58 c 0
 125 70 0 198 0 198 c 25
 -132 326 l 25
 -132 326 -131 336 -140 334 c 0
-6 527 m 25
 -6 527 -156 343 -159 326 c 0
 -162 309 -192 328 -178 342 c 0
 -164 356 52 639 57 644 c 0
 62 649 102 710 114 711 c 0
 126 712 156 700 162 690 c 0
 168 680 241 578 252 562 c 0
 263 546 350 426 372 404 c 0
 394 382 395 378 388 374 c 0
 381 370 380 357 380 357 c 25
 380 357 368 354 362 365 c 0
 356 376 221 556 221 556 c 25
 221 556 166 638 156 648 c 0
 146 658 125 712 80 636 c 0
 35 560 25 568 18 556 c 0
 11 544 3 538 -6 527 c 25
EndSplineSet
Validated: 37
EndChar

StartChar: P
Encoding: 80 80 47
Width: 238
Flags: W
HStem: 578 32<693.582 803.473>
LayerCount: 2
Back
Fore
SplineSet
798 610 m 4
 803 610 804 590 804 584 c 4
 804 578 774 579 764 578 c 4
 754 577 568 540 492 536 c 4
 416 532 318 562 278 604 c 4
 238 646 260 732 315 748 c 4
 370 764 437 721 456 648 c 4
 475 575 482 496 442 401 c 4
 402 306 317 174 296 143 c 4
 275 112 154 13 88 10 c 4
 22 7 74 29 106 42 c 4
 138 55 252 99 308 206 c 4
 364 313 417 377 436 465 c 4
 455 553 446 612 439 630 c 4
 432 648 408 728 350 730 c 4
 292 732 279 685 280 666 c 4
 281 647 286 606 404 574 c 4
 522 542 645 584 676 591 c 4
 707 598 767 608 781 608 c 4
 795 608 793 610 798 610 c 4
EndSplineSet
Validated: 37
EndChar

StartChar: S
Encoding: 83 83 48
Width: 1132
Flags: W
HStem: 408 49<258.002 475.354>
LayerCount: 2
Back
Fore
SplineSet
700 37 m 4
 693 36 707 -15 730 0 c 0
 753 15 757 17 764 32 c 0
 771 47 833 178 850 191 c 0
 867 204 885 214 901 199 c 0
 917 184 998 53 1007 33 c 0
 1016 13 1022 -5 1045 0 c 0
 1068 5 1086 23 1075 36 c 0
 1064 49 1056 57 1042 66 c 0
 1028 75 1014 80 1004 95 c 0
 994 110 923 215 918 229 c 0
 913 243 886 284 869 261 c 0
 852 238 833 220 817 203 c 0
 801 186 758 101 755 95 c 0
 752 89 707 38 700 37 c 4
890 698 m 0
 870 700 849 616 840 592 c 0
 831 568 819 446 707 438 c 0
 595 430 584 430 559 302 c 0
 534 174 539 86 488 73 c 0
 437 60 431 77 403 88 c 0
 375 99 366 85 399 58 c 0
 432 31 474 20 502 36 c 0
 530 52 564 72 574 198 c 0
 581.294281583 289.907947948 590.703125 343 618 377 c 0
 645.296875 411 705.40170844 407.302047966 734 410 c 0
 752.167621085 411.713926517 829 431 857 525 c 0
 885 619 911 648 905 664 c 0
 899 680 910 696 890 698 c 0
537 675 m 1
 537 675 515 656 514 636 c 0
 513 616 507 497 474 473 c 0
 441 449 350 457 331 457 c 0
 312 457 235 470 206 352 c 0
 177 234 163 71 121 56 c 0
 79 41 27 62 8 91 c 0
 -11 120 -39 89 -10 64 c 0
 19 39 65 -7 110 10 c 0
 155 27 187 72 208 185 c 0
 229 298 240 403 285 408 c 0
 330 413 381 409 407 413 c 0
 433 417 498 420 520 478 c 0
 542 536 539 626 557 640 c 0
 575 654 537 675 537 675 c 1
EndSplineSet
Validated: 41
EndChar

StartChar: r
Encoding: 114 114 49
Width: 704
Flags: W
HStem: 236 46<504.206 568.573> 389 73<340.251 379.285>
LayerCount: 2
Back
Fore
SplineSet
91 186 m 1
 91 186 75 190 75 186 c 0
 75 182 77 179 80 179 c 0
 83 179 91 186 91 186 c 1
73 168 m 1
 73 168 55 117 63 98 c 0
 71 79 92 38 118 25 c 0
 144 12 186 -10 218 4 c 0
 250 18 316 48 328 86 c 0
 340 124 351 136 358 128 c 0
 365 120 396 55 426 40 c 0
 456 25 494 14 516 14 c 0
 538 14 668 84 654 148 c 0
 640 212 599 256 573 260 c 0
 547 264 525 278 516 282 c 0
 507 286 478 246 511 236 c 0
 544 226 560 234 569 226 c 0
 578 218 639 134 607 116 c 0
 575 98 548 56 538 54 c 0
 528 52 488 34 450 80 c 0
 412 126 376 140 382 202 c 0
 388 264 394 276 377 268 c 0
 360 260 339 202 337 196 c 0
 335 190 322 138 316 130 c 0
 310 122 297 82 259 58 c 0
 221 34 185 14 139 48 c 0
 93 82 73 133 73 144 c 0
 73 155 73 168 73 168 c 1
227 217 m 0
 228 208 241 191 247 207 c 0
 253 223 254 232 248 243 c 0
 242 254 211 287 181 287 c 0
 151 287 118 268 102 239 c 0
 86 210 82 191 82 191 c 9
 82 191 115 241 127 246 c 0
 139 251 175 288 200 260 c 0
 225 232 226 226 227 217 c 0
348 462 m 0
 339 459 326 448 337 419 c 0
 348 390 348 386 365 389 c 0
 382 392 393 412 390 424 c 0
 387 436 357 465 348 462 c 0
EndSplineSet
Validated: 41
EndChar

StartChar: q
Encoding: 113 113 50
Width: 503
Flags: W
HStem: 130.336 31.6641<192.917 320.51>
VStem: 334 26<86.6328 190.824>
LayerCount: 2
Fore
SplineSet
242 243 m 1
 248 268 l 2
 250.666992188 270 264.666992188 269.333007812 290 266 c 0
 297.333007812 264.666992188 307.833007812 257.666992188 321.5 245 c 0
 335.166992188 232.333007812 345.333007812 219.333007812 352 206 c 0
 358.666992188 192 361.333007812 171 360 143 c 0
 358.666992188 115 354.333007812 93 347 77 c 0
 339.666992188 61 325 45 303 29 c 0
 281 13 262.666992188 4.6669921875 248 4 c 0
 234.666992188 3.3330078125 218.833007812 9.3330078125 200.5 22 c 0
 182.166992188 34.6669921875 167.666992188 46.6669921875 157 58 c 0
 147.666992188 68 141.166992188 84.3330078125 137.5 107 c 0
 133.833007812 129.666992188 136 157.333007812 144 190 c 0
 148 202 152.833007812 212.333007812 158.5 221 c 0
 164.166992188 229.666992188 170.833007812 236.333007812 178.5 241 c 0
 186.166992188 245.666992188 192.666992188 249.333007812 198 252 c 0
 203.333007812 254.666992188 209.833007812 257.166992188 217.5 259.5 c 0
 225.166992188 261.833007812 229.333007812 263 230 263 c 0
 237.333007812 265.666992188 242.833007812 265.666992188 246.5 263 c 0
 250.166992188 260.333007812 251.333007812 256.666992188 250 252 c 0
 248.666992188 248 238 242 218 234 c 0
 200.666992188 227.333007812 185.333007812 202.666992188 172 160 c 0
 165.333007812 138.666992188 168.666992188 114.666992188 182 88 c 0
 185.333007812 82 192 75.3330078125 202 68 c 0
 212 60.6669921875 219.333007812 57.3330078125 224 58 c 0
 278 68.6669921875 306.333007812 74.6669921875 309 76 c 0
 327 84 335.333007812 110.666992188 334 156 c 0
 333.333007812 167.333007812 329.666992188 178.166992188 323 188.5 c 0
 316.333007812 198.833007812 309 207.166992188 301 213.5 c 0
 293 219.833007812 283.833007812 225.5 273.5 230.5 c 0
 263.166992188 235.5 256 238.666992188 252 240 c 0
 248 241.333007812 244.666992188 242.333007812 242 243 c 1
19.2412109375 -4.9375 m 0
 15.7939453125 -3.9375 13.2607421875 -0.3349609375 11.64453125 5.869140625 c 0
 10.0283203125 12.0732421875 10.6171875 17.994140625 13.4111328125 23.6279296875 c 0
 16.802734375 29.9921875 32.48046875 45.9404296875 60.443359375 71.4736328125 c 0
 88.40625 97.0078125 105.971679688 110.797851562 113.138671875 112.84375 c 0
 115.063476562 113.704101562 124.307617188 118.466796875 140.870117188 127.133789062 c 0
 157.432617188 135.80078125 176.068359375 143.834960938 196.775390625 151.235351562 c 0
 217.482421875 158.635742188 236.890625 162.223632812 255 162 c 0
 282.462890625 162.02734375 316.1796875 151.284179688 356.150390625 129.768554688 c 0
 396.12109375 108.25390625 424.319335938 88.9267578125 440.747070312 71.7890625 c 0
 448.166992188 64.482421875 456.116210938 56.892578125 464.596679688 49.01953125 c 0
 473.077148438 41.146484375 479.155273438 35.5498046875 482.83203125 32.2275390625 c 0
 486.508789062 28.9052734375 488.048828125 26.880859375 487.450195312 26.1513671875 c 2
 486.146484375 18.9892578125 l 2
 485.278320312 14.2138671875 483.647460938 10.369140625 481.254882812 7.453125 c 0
 478.862304688 4.537109375 475.643554688 3.21484375 471.59765625 3.486328125 c 0
 468.877929688 3.888671875 460.645507812 10.9482421875 446.900390625 24.666015625 c 0
 433.155273438 38.3828125 417.801757812 53.115234375 400.841796875 68.859375 c 0
 383.8828125 84.6044921875 363.205078125 98.9794921875 338.811523438 111.981445312 c 0
 314.41796875 124.984375 291.541015625 131.102539062 270.1796875 130.3359375 c 0
 241.455078125 129.513671875 212.45703125 122.970703125 183.186523438 110.706054688 c 0
 153.915039062 98.4423828125 131.791992188 86.71484375 116.817382812 75.5244140625 c 0
 101.84375 64.333984375 89.4736328125 53.904296875 79.708984375 44.232421875 c 0
 44.9013671875 9.9853515625 24.7451171875 -6.404296875 19.2412109375 -4.9375 c 0
EndSplineSet
Validated: 524325
EndChar

StartChar: x
Encoding: 120 120 51
Width: 422
Flags: W
VStem: 12 31<1.73158 55.998> 136 30<55.3038 178.439>
LayerCount: 2
Fore
SplineSet
12 28 m 4
 8 11 15 0 24 0 c 0
 33 0 43 32 43 36 c 0
 43 40 94 108 116 137 c 0
 138 166 182 214 198 220 c 0
 214 226 255 180 258 166 c 0
 261 152 340 56 350 50 c 0
 360 44 384 14 386 7 c 0
 388 0 384 -19 392 -4 c 0
 400 11 401 14 401 22 c 0
 401 30 293 155 268 196 c 0
 243 237 212 276 202 272 c 0
 192 268 86 148 76 131 c 0
 66 114 16 45 12 28 c 4
-12 186 m 0
 -16 182 -14 172 -14 160 c 0
 -14 148 -20 142 -10 150 c 0
 0 158 1 170 6 176 c 0
 11 182 49 215 84 203 c 0
 119 191 136 160 136 124 c 0
 136 88 120 54 134 53 c 0
 148 52 166 58 166 72 c 0
 166 86 172 176 122 210 c 0
 72 244 32 222 20 214 c 0
 8 206 -8 190 -12 186 c 0
EndSplineSet
Validated: 37
EndChar

StartChar: y
Encoding: 121 121 52
Width: 486
Flags: W
VStem: 294 24<-2.26671 123.973>
LayerCount: 2
Fore
SplineSet
322 262 m 4
 315 246 313 201 311 198 c 0
 309 195 294 77 294 62 c 0
 294 47 296 38 293 26 c 0
 290 14 272 -4 290 -10 c 0
 308 -16 320 -4 318 11 c 0
 316 26 328 144 328 168 c 0
 328 192 339 205 340 230 c 0
 341 255 345 275 345 275 c 25
 345 275 329 278 322 262 c 4
153 250 m 0
 159 249 161 257 164 248 c 0
 167 239 147 16 147 16 c 25
 147 16 133 0 154 0 c 0
 175 0 178 12 177 18 c 0
 176 24 169 25 169 56 c 0
 169 87 187 234 187 247 c 0
 187 260 191 281 190 287 c 0
 189 293 173 293 171 283 c 0
 169 273 147 251 153 250 c 0
46 65 m 0
 42 58 23 20 36 19 c 0
 49 18 72 61 72 61 c 25
 72 61 210 195 228 209 c 0
 246 223 251 222 251 222 c 25
 251 222 255 203 261 194 c 0
 267 185 364 39 364 39 c 25
 364 39 348 12 363 9 c 0
 378 6 403 34 403 34 c 25
 403 34 546 231 545 237 c 0
 544 243 528 233 528 233 c 25
 528 233 398 77 387 64 c 0
 376 51 270 216 269 246 c 0
 268 276 232 254 224 241 c 0
 216 228 50 72 46 65 c 0
EndSplineSet
Validated: 37
EndChar

StartChar: zero
Encoding: 48 48 53
Width: 420
Flags: W
VStem: 247 22<533.766 726.393> 347 25<264.996 364.278>
LayerCount: 2
Fore
SplineSet
186 387 m 0
 192 394 178 410 173 404 c 0
 168 398 141 372 135 353 c 0
 129 334 112 288 132 248 c 0
 152 208 188 192 215 193 c 0
 242 194 340 217 352 238 c 0
 364 259 358 278 364 296 c 0
 370 314 372 319 372 330 c 0
 372 341 336 426 312 434 c 0
 288 442 186 416 181 412 c 0
 176 408 170 397 178 392 c 0
 186 387 194 390 201 396 c 0
 208 402 282 411 293 408 c 0
 304 405 317 397 326 382 c 0
 335 367 347 343 347 330 c 0
 347 317 346 276 334 264 c 0
 322 252 275 201 210 220 c 0
 145 239 144 282 144 304 c 0
 144 326 174 374 179 379 c 0
 184 384 180 380 186 387 c 0
264 733 m 4
 257 728 247 712 247 695 c 4
 247 678 238 476 237 459 c 4
 236 442 233 19 228 -11 c 4
 223 -41 217 -119 226 -130 c 4
 235 -141 258 -106 259 -94 c 4
 260 -82 260 -26 260 -13 c 4
 260 0 250 47 252 70 c 4
 254 93 264 693 269 713 c 4
 274 733 271 738 264 733 c 4
976 384 m 1049
EndSplineSet
Validated: 37
EndChar

StartChar: one
Encoding: 49 49 54
Width: 420
Flags: W
VStem: 247 22<638.717 726.393>
LayerCount: 2
Fore
SplineSet
380 726 m 4
 353 710 317 680 308 674 c 4
 299 668 163 552 154 535 c 4
 145 518 92 470 122 464 c 4
 152 458 155 452 161 468 c 4
 167 484 167 494 174 507 c 4
 181 520 285 601 302 618 c 4
 319 635 314 652 323 659 c 4
 332 666 360 679 374 687 c 4
 388 695 412 719 406 720 c 4
 400 721 407 742 380 726 c 4
264 733 m 4
 257 728 247 712 247 695 c 4
 247 678 238 476 237 459 c 4
 236 442 233 19 228 -11 c 4
 223 -41 217 -119 226 -130 c 4
 235 -141 258 -106 259 -94 c 4
 260 -82 260 -26 260 -13 c 4
 260 0 250 47 252 70 c 4
 254 93 264 693 269 713 c 4
 274 733 271 738 264 733 c 4
EndSplineSet
Validated: 37
EndChar

StartChar: two
Encoding: 50 50 55
Width: 420
Flags: W
VStem: 247 22<638.717 726.393>
LayerCount: 2
Fore
SplineSet
373 608 m 4
 346 592 318 568 309 562 c 4
 300 556 164 434 155 417 c 4
 146 400 84 365 114 359 c 4
 144 353 144 346 150 362 c 4
 156 378 165 386 172 399 c 4
 179 412 280 502 297 519 c 4
 314 536 315 531 324 538 c 4
 333 545 358 571 372 579 c 4
 386 587 405 601 399 602 c 4
 393 603 400 624 373 608 c 4
380 726 m 0
 353 710 317 680 308 674 c 0
 299 668 163 552 154 535 c 0
 145 518 92 470 122 464 c 0
 152 458 155 452 161 468 c 0
 167 484 167 494 174 507 c 0
 181 520 285 601 302 618 c 0
 319 635 314 652 323 659 c 0
 332 666 360 679 374 687 c 0
 388 695 412 719 406 720 c 0
 400 721 407 742 380 726 c 0
264 733 m 0
 257 728 247 712 247 695 c 0
 247 678 238 476 237 459 c 0
 236 442 233 19 228 -11 c 0
 223 -41 217 -119 226 -130 c 0
 235 -141 258 -106 259 -94 c 0
 260 -82 260 -26 260 -13 c 0
 260 0 250 47 252 70 c 0
 254 93 264 693 269 713 c 0
 274 733 271 738 264 733 c 0
EndSplineSet
Validated: 37
EndChar

StartChar: three
Encoding: 51 51 56
Width: 420
Flags: W
VStem: 247 22<638.717 726.393>
LayerCount: 2
Fore
SplineSet
368 500 m 4
 350.985258696 473.627692965 313 460 304 454 c 0
 295 448 157.286132812 328.25390625 147 312 c 0
 135.30859375 293.525390625 111.61240651 274.864308433 109 251 c 0
 105.670775271 220.587564012 138 242 144 258 c 0
 150 274 160 278 167 291 c 0
 174 304 277 388 294 405 c 0
 311 422 315 417 324 424 c 0
 333 431 352 457 366 465 c 0
 380 473 400.000250817 493.00150607 394 494 c 4
 388.009078126 494.996941513 381.300558539 520.615442061 368 500 c 4
373 608 m 0
 346 592 318 568 309 562 c 0
 300 556 164 434 155 417 c 0
 146 400 84 365 114 359 c 0
 144 353 144 346 150 362 c 0
 156 378 165 386 172 399 c 0
 179 412 280 502 297 519 c 0
 314 536 315 531 324 538 c 0
 333 545 358 571 372 579 c 0
 386 587 405 601 399 602 c 0
 393 603 400 624 373 608 c 0
380 726 m 0
 353 710 317 680 308 674 c 0
 299 668 163 552 154 535 c 0
 145 518 92 470 122 464 c 0
 152 458 155 452 161 468 c 0
 167 484 167 494 174 507 c 0
 181 520 285 601 302 618 c 0
 319 635 314 652 323 659 c 0
 332 666 360 679 374 687 c 0
 388 695 412 719 406 720 c 0
 400 721 407 742 380 726 c 0
264 733 m 0
 257 728 247 712 247 695 c 0
 247 678 238 476 237 459 c 0
 236 442 233 19 228 -11 c 0
 223 -41 217 -119 226 -130 c 0
 235 -141 258 -106 259 -94 c 0
 260 -82 260 -26 260 -13 c 0
 260 0 250 47 252 70 c 0
 254 93 264 693 269 713 c 0
 274 733 271 738 264 733 c 0
EndSplineSet
Validated: 37
EndChar

StartChar: four
Encoding: 52 52 57
Width: 420
Flags: W
VStem: 247 22<638.717 726.393>
LayerCount: 2
Fore
SplineSet
253 408 m 0
 260 404 303 343 310 324 c 0
 317 305 305 306 305 306 c 25
 305 306 332 263 367 247 c 0
 402 231 374 287 364 301 c 0
 354 315 298 405 294 416 c 0
 290 427 267 453 252 456 c 0
 237 459 199 393 151 341 c 0
 103 289 90 239 90 239 c 25
 90 239 105 223 108 231 c 0
 111 239 166 319 174 334 c 0
 182 349 246 412 253 408 c 0
380 726 m 0
 353 710 317 680 308 674 c 0
 299 668 163 552 154 535 c 0
 145 518 92 470 122 464 c 0
 152 458 155 452 161 468 c 0
 167 484 167 494 174 507 c 0
 181 520 285 601 302 618 c 0
 319 635 314 652 323 659 c 0
 332 666 360 679 374 687 c 0
 388 695 412 719 406 720 c 0
 400 721 407 742 380 726 c 0
264 733 m 0
 257 728 247 712 247 695 c 0
 247 678 238 476 237 459 c 0
 236 442 233 19 228 -11 c 0
 223 -41 217 -119 226 -130 c 0
 235 -141 258 -106 259 -94 c 0
 260 -82 260 -26 260 -13 c 0
 260 0 250 47 252 70 c 0
 254 93 264 693 269 713 c 0
 274 733 271 738 264 733 c 0
EndSplineSet
Validated: 37
EndChar

StartChar: five
Encoding: 53 53 58
Width: 420
Flags: W
VStem: 247 22<638.717 726.393>
LayerCount: 2
Fore
SplineSet
373 608 m 0
 346 592 318 568 309 562 c 0
 300 556 164 434 155 417 c 0
 146 400 84 365 114 359 c 0
 144 353 144 346 150 362 c 0
 156 378 165 386 172 399 c 0
 179 412 280 502 297 519 c 0
 314 536 315 531 324 538 c 0
 333 545 358 571 372 579 c 0
 386 587 405 601 399 602 c 0
 393 603 400 624 373 608 c 0
253 408 m 0
 260 404 303 343 310 324 c 0
 317 305 305 306 305 306 c 25
 305 306 332 263 367 247 c 4
 402 231 374 287 364 301 c 4
 354 315 298 405 294 416 c 0
 290 427 267 453 252 456 c 0
 237 459 199 393 151 341 c 0
 103 289 90 239 90 239 c 25
 90 239 105 223 108 231 c 0
 111 239 166 319 174 334 c 0
 182 349 246 412 253 408 c 0
380 726 m 0
 353 710 317 680 308 674 c 0
 299 668 163 552 154 535 c 0
 145 518 92 470 122 464 c 0
 152 458 155 452 161 468 c 0
 167 484 167 494 174 507 c 0
 181 520 285 601 302 618 c 0
 319 635 314 652 323 659 c 0
 332 666 360 679 374 687 c 0
 388 695 412 719 406 720 c 0
 400 721 407 742 380 726 c 0
264 733 m 0
 257 728 247 712 247 695 c 0
 247 678 238 476 237 459 c 0
 236 442 233 19 228 -11 c 0
 223 -41 217 -119 226 -130 c 0
 235 -141 258 -106 259 -94 c 0
 260 -82 260 -26 260 -13 c 0
 260 0 250 47 252 70 c 0
 254 93 264 693 269 713 c 0
 274 733 271 738 264 733 c 0
EndSplineSet
Validated: 37
EndChar

StartChar: six
Encoding: 54 54 59
Width: 420
Flags: W
VStem: 247 22<533.766 726.393>
LayerCount: 2
Fore
SplineSet
327 442 m 5
 327 442 320 421 313 415 c 4
 306 409 197 287 189 275 c 4
 181 263 121 195 121 177 c 4
 121 159 117 143 123 143 c 4
 129 143 143 160 151 170 c 4
 159 180 251 325 301 358 c 4
 351 391 350 401 355 406 c 4
 360 411 369 439 358 442 c 4
 347 445 327 442 327 442 c 5
119 465 m 4
 106 469 103 443 113 433 c 4
 123 423 212 334 225 325 c 4
 238 316 323 225 327 209 c 4
 331 193 343 155 353 162 c 4
 363 169 385 199 373 209 c 4
 361 219 132 461 119 465 c 4
264 733 m 0
 257 728 247 712 247 695 c 0
 247 678 238 476 237 459 c 0
 236 442 233 19 228 -11 c 0
 223 -41 217 -119 226 -130 c 0
 235 -141 258 -106 259 -94 c 0
 260 -82 260 -26 260 -13 c 0
 260 0 250 47 252 70 c 0
 254 93 264 693 269 713 c 0
 274 733 271 738 264 733 c 0
EndSplineSet
Validated: 37
EndChar

